<?xml version="1.0" standalone="no"?>
<!DOCTYPE svg PUBLIC "-//W3C//DTD SVG 1.1//EN" "http://www.w3.org/Graphics/SVG/1.1/DTD/svg11.dtd" >
<svg xmlns="http://www.w3.org/2000/svg" xmlns:xlink="http://www.w3.org/1999/xlink" version="1.1">
<metadata>
Created by FontForge 20170731 at Wed Feb  6 02:32:31 2019
 By Aleksey,,,
Copyright (c)2019. HK Guise by Alfredo Marco Pradil. All rights reserved.
</metadata>
<defs>
<font id="HKGuise-SemiBold" horiz-adv-x="0" >
  <font-face 
    font-family="HK Guise SemiBold"
    font-weight="600"
    font-stretch="normal"
    units-per-em="2048"
    panose-1="0 0 7 0 0 0 0 0 0 0"
    ascent="1570"
    descent="-478"
    x-height="1110"
    cap-height="1570"
    bbox="-947 -569 2910 2490"
    underline-thickness="91"
    underline-position="-453"
    unicode-range="U+0020-F8FF"
  />
<missing-glyph horiz-adv-x="1217" 
d="M151 0v1062h914v-1062h-914zM250 99h717v865h-717v-865z" />
    <glyph glyph-name="h_d_c_o.liga" unicode="hdco" horiz-adv-x="1897" 
d="M949 -68q-175 0 -334.5 68t-275 183t-183.5 274.5t-68 334.5t68 334t183.5 274.5t275 183.5t334.5 68q140 0 271.5 -43.5t237 -123t185 -185t123 -237t43.5 -271.5q0 -175 -68 -334.5t-183.5 -274.5t-274.5 -183t-334 -68zM949 11q159 0 303.5 62t249 166.5t166 249
t61.5 303.5t-61.5 303.5t-166 249t-249 166t-303.5 61.5q-160 0 -304.5 -61.5t-249 -166t-166 -249t-61.5 -303.5t61.5 -303.5t166 -249.5t249 -166.5t304.5 -61.5zM500 455q-15 0 -26.5 11t-11.5 28v596q0 17 11.5 29t26.5 12q17 0 29 -12t12 -29v-596q0 -17 -12 -28
t-29 -11zM949 455q-17 0 -28 11t-11 28v596q0 17 11 29t28 12q16 0 27 -12t11 -29v-596q0 -17 -10.5 -28t-27.5 -11zM1392 455q-15 0 -29 14l-289 289q-14 14 -14 32t14 31l289 289q13 14 29 14q17 0 28 -11q11 -13 11 -28t-14 -29l-266 -266l266 -267q14 -14 14 -29
t-11 -28q-13 -11 -28 -11zM650 753q-17 0 -27.5 11t-10.5 28t10.5 28t27.5 11h148q17 0 29 -11t12 -28t-12 -28t-29 -11h-148z" />
    <glyph glyph-name="hyphen_hyphen.liga" unicode="&#x2d;&#x2d;" horiz-adv-x="1138" 
d="M0 588v174h1138v-174h-1138z" />
    <glyph glyph-name="hyphen_hyphen_hyphen.liga" unicode="&#x2d;&#x2d;&#x2d;" horiz-adv-x="2276" 
d="M0 588v174h2276v-174h-2276z" />
    <glyph glyph-name="hyphen_greater.liga" unicode="&#x2d;&#x3e;" horiz-adv-x="2240" 
d="M2188 710l-870 -511v424h-1234v174h1234v423z" />
    <glyph glyph-name="parenleft_c_parenright.liga" unicode="&#x28;c&#x29;" horiz-adv-x="1846" 
d="M924 -28q-136 0 -264 41t-230.5 116t-180 175t-119.5 224t-42 257q0 166 66 317t178 259.5t267 173t325 64.5t324 -64.5t265.5 -173t177.5 -259.5t66 -317t-66 -316.5t-177.5 -259t-265.5 -173t-324 -64.5zM924 118q187 0 345.5 89t251 243t92.5 335t-92.5 335
t-251 243.5t-345.5 89.5q-188 0 -347.5 -89.5t-252 -243t-92.5 -335.5q0 -136 54.5 -259.5t147.5 -213t221 -142t269 -52.5zM947 294q-107 0 -193 40t-140 108.5t-83 155.5t-29 185q0 75 17 146t53 133.5t87 109.5t125 74.5t161 27.5q139 0 242.5 -68.5t156.5 -202.5
l-180 -70q-26 77 -84 123.5t-135 46.5q-84 0 -142.5 -47.5t-83.5 -117.5t-25 -155q0 -86 25 -155t83 -115t143 -46q79 0 136 44.5t81 121.5l170 -66q-45 -129 -146.5 -201t-238.5 -72z" />
    <glyph glyph-name="parenleft_p_parenright.liga" unicode="&#x28;p&#x29;" horiz-adv-x="1846" 
d="M924 -28q-136 0 -264 41t-230.5 116t-180 175t-119.5 224t-42 257q0 166 66 317t178 259.5t267 173t325 64.5t324 -64.5t265.5 -173t177.5 -259.5t66 -317t-66 -316.5t-177.5 -259t-265.5 -173t-324 -64.5zM924 118q187 0 345.5 89t251 243t92.5 335t-92.5 335
t-251 243.5t-345.5 89.5q-188 0 -347.5 -89.5t-252 -243t-92.5 -335.5q0 -136 54.5 -259.5t147.5 -213t221 -142t269 -52.5zM749 389v794l551 -396z" />
    <glyph glyph-name="parenleft_r_parenright.liga" unicode="&#x28;r&#x29;" horiz-adv-x="1846" 
d="M924 -28q-136 0 -264 41t-230.5 116t-180 175t-119.5 224t-42 257q0 166 66 317t178 259.5t267 173t325 64.5t324 -64.5t265.5 -173t177.5 -259.5t66 -317t-66 -316.5t-177.5 -259t-265.5 -173t-324 -64.5zM924 118q187 0 345.5 89t251 243t92.5 335t-92.5 335
t-251 243.5t-345.5 89.5q-188 0 -347.5 -89.5t-252 -243t-92.5 -335.5q0 -136 54.5 -259.5t147.5 -213t221 -142t269 -52.5zM651 314v942h291q146 0 235.5 -75.5t89.5 -198.5q0 -86 -49 -150.5t-134 -93.5l258 -424h-175l-234 408q-8 0 -25.5 -0.5t-26.5 -0.5h-78v-407h-152
zM803 847h152q77 2 118.5 37.5t41.5 95.5q0 66 -45 103t-126 37h-141v-273z" />
    <glyph glyph-name="less_hyphen.liga" unicode="&#x3c;&#x2d;" horiz-adv-x="2240" 
d="M2156 762v-174h-1234v-424l-870 511l870 510v-423h1234z" />
    <glyph glyph-name=".notdef" horiz-adv-x="1217" 
d="M151 0v1062h914v-1062h-914zM250 99h717v865h-717v-865z" />
    <glyph glyph-name=".null" 
 />
    <glyph glyph-name="nonmarkingreturn" horiz-adv-x="682" 
 />
    <glyph glyph-name="space" unicode=" " horiz-adv-x="559" 
 />
    <glyph glyph-name="exclam" unicode="!" horiz-adv-x="633" 
d="M225 465l-26 1105h227l-26 -1105h-175zM313 -23q-63 0 -106.5 44t-43.5 106q0 61 43.5 104.5t106.5 43.5q60 0 103.5 -43.5t43.5 -104.5q0 -62 -43.5 -106t-103.5 -44z" />
    <glyph glyph-name="quotedbl" unicode="&#x22;" horiz-adv-x="940" 
d="M185 876v694h194v-694h-194zM561 876v694h194v-694h-194z" />
    <glyph glyph-name="numbersign" unicode="#" horiz-adv-x="1497" 
d="M240 0l99 465h-264v163h299l70 338h-276v171h311l100 433h182l-97 -441h316l94 441h182l-99 -441h267v-163h-302l-73 -338h283v-163h-318l-98 -465h-181l99 465h-317l-96 -465h-181zM556 628h317l68 338h-316z" />
    <glyph glyph-name="dollar" unicode="$" horiz-adv-x="1245" 
d="M1158 452q0 -199 -128 -327t-345 -141v-184h-98v185q-237 15 -376.5 168.5t-139.5 419.5h245q0 -345 271 -375v538q-172 65 -241 106q-168 98 -195 260q-6 34 -6 71q0 184 126 296t316 121v162h98v-164q187 -19 309 -141.5t126 -339.5h-239q0 114 -53.5 181t-142.5 85
v-455q172 -67 235 -102q176 -96 221 -242q17 -57 17 -122zM384 1183q0 -78 52 -129.5t151 -95.5v419q-90 -8 -146.5 -62t-56.5 -132zM685 197q112 12 173 76.5t61 159.5q0 96 -60.5 156t-173.5 108v-500z" />
    <glyph glyph-name="percent" unicode="%" horiz-adv-x="1567" 
d="M400 871q-143 0 -229.5 103.5t-86.5 257.5q0 153 85 256t224 103q136 0 225 -103t89 -258q0 -154 -87 -256.5t-220 -102.5zM240 0l925 1570h163l-925 -1570h-163zM400 1027q66 0 109 57t43 146q0 90 -43 147.5t-116 57.5t-113 -57t-40 -146q0 -90 42 -147.5t118 -57.5z
M1176 -21q-143 0 -229.5 103.5t-86.5 257.5q0 153 84.5 256t224.5 103q136 0 225 -103t89 -258q0 -154 -87.5 -256.5t-219.5 -102.5zM1176 135q66 0 108.5 57t42.5 146q0 90 -43 147.5t-115 57.5q-73 0 -113.5 -57t-40.5 -146q0 -90 42.5 -147.5t118.5 -57.5z" />
    <glyph glyph-name="ampersand" unicode="&#x26;" horiz-adv-x="1530" 
d="M1227 299l246 -277v-22h-269l-115 132q-184 -155 -494 -155q-148 0 -262.5 43.5t-182.5 133.5t-68 215q0 69 22 131t55 107.5t86.5 90.5t102 75.5t114.5 66.5q-35 36 -60.5 66.5t-62 83t-56.5 112.5t-20 120q0 165 122.5 265t300.5 100q179 0 293 -105.5t114 -262.5
q0 -69 -23.5 -130.5t-69 -113t-95.5 -91.5t-118 -82l275 -317h28q26 156 30 329h224q-4 -318 -117 -515zM485 1220q0 -35 12 -69t43 -75.5t45.5 -57.5t58.5 -62q7 -8 11 -12q110 63 168 126.5t58 146.5q0 76 -50 126.5t-145 50.5q-94 0 -147.5 -47t-53.5 -127zM597 171
q208 0 351 123l-347 399q-69 -41 -112 -70t-88 -68.5t-66.5 -82t-21.5 -89.5q0 -108 78 -160t206 -52z" />
    <glyph glyph-name="quotesingle" unicode="'" horiz-adv-x="564" 
d="M185 876v694h194v-694h-194z" />
    <glyph glyph-name="parenleft" unicode="(" horiz-adv-x="589" 
d="M373 -116q-122 131 -195.5 390t-73.5 511q0 293 70.5 523.5t195.5 373.5h208q-292 -358 -292 -901q0 -282 70.5 -493.5t218.5 -403.5h-202z" />
    <glyph glyph-name="parenright" unicode=")" horiz-adv-x="589" 
d="M216 -116h-202q148 192 218.5 403.5t70.5 493.5q0 543 -292 901h208q125 -143 195.5 -373.5t70.5 -523.5q0 -252 -73.5 -511t-195.5 -390z" />
    <glyph glyph-name="asterisk" unicode="*" horiz-adv-x="953" 
d="M350 903l-159 108l181 199l-260 37l62 178l239 -104l-34 249h197l-34 -249l239 104l61 -178l-261 -37l182 -199l-161 -108l-125 253z" />
    <glyph glyph-name="plus" unicode="+" horiz-adv-x="1305" 
d="M565 121v486h-486v175h486v486h175v-486h485v-175h-485v-486h-175z" />
    <glyph glyph-name="comma" unicode="," horiz-adv-x="680" 
d="M329 273q56 1 98 -21t65 -58.5t34 -77.5t11 -86q0 -61 -20.5 -124t-62 -123t-116.5 -101t-173 -47v127q110 7 173.5 76t63.5 151v11q-37 -23 -79 -23q-61 0 -104.5 45t-43.5 107q0 61 44.5 102.5t109.5 41.5z" />
    <glyph glyph-name="hyphen" unicode="-" horiz-adv-x="926" 
d="M147 588v174h632v-174h-632z" />
    <glyph glyph-name="period" unicode="." horiz-adv-x="635" 
d="M318 -23q-62 0 -106 44t-44 106q0 61 44 104.5t106 43.5q61 0 104 -43.5t43 -104.5q0 -62 -43 -106t-104 -44z" />
    <glyph glyph-name="slash" unicode="/" horiz-adv-x="951" 
d="M-40 -477l816 2047h215l-816 -2047h-215z" />
    <glyph glyph-name="zero" unicode="0" horiz-adv-x="1305" 
d="M662 -21q-97 0 -175 28t-130 72.5t-90 112.5t-59 134.5t-33 153t-15.5 154.5t-3.5 151q0 64 1.5 117t8 121t16.5 122.5t29 115t44 107t62.5 90.5t84.5 72.5t110 45.5t137 17q504 0 504 -810q0 -804 -491 -804zM656 186q50 0 89 19.5t65 49.5t44.5 80t28.5 96.5
t15.5 114.5t6.5 118t1 123t-1.5 124t-7 118.5t-15.5 113.5t-29.5 95t-46 78t-66.5 48t-91 19t-91.5 -19t-67 -48.5t-45.5 -78.5t-29.5 -95t-16 -113.5t-7 -119t-1.5 -124.5t1.5 -124t7 -118.5t16 -114t30.5 -95.5t47.5 -79t68.5 -49t94 -19z" />
    <glyph glyph-name="one" unicode="1" horiz-adv-x="1305" 
d="M651 1570h222v-1570h-231v1140h-376v193h248q74 0 105.5 28t31.5 100v109z" />
    <glyph glyph-name="two" unicode="2" horiz-adv-x="1305" 
d="M117 0v195l487 413q48 40 82.5 72t77 81.5t69.5 96.5t45.5 108.5t18.5 125.5q0 125 -68 204t-199 79q-139 0 -209.5 -86t-75.5 -221h-239q6 146 68 262t183 187.5t284 71.5q117 0 210.5 -37.5t153.5 -104t91.5 -154.5t31.5 -190q0 -88 -24.5 -173.5t-60 -150.5
t-87.5 -130t-95 -106.5t-95 -85.5l-257 -219v-22h702v-216h-1094z" />
    <glyph glyph-name="three" unicode="3" horiz-adv-x="1305" 
d="M639 -21q-119 0 -222.5 33t-182 95.5t-123 161t-43.5 221.5h227q3 -141 99 -219.5t249 -78.5q146 0 242.5 74t96.5 213q0 248 -357 246h-101v196h101q56 0 101.5 10.5t85.5 35t62.5 70.5t22.5 110q0 113 -72 172.5t-185 59.5q-119 0 -192.5 -64.5t-79.5 -178.5h-225
q0 139 67.5 244t178 158t246.5 53q97 0 186 -29.5t157.5 -82.5t109 -133.5t40.5 -175.5q0 -217 -227 -316v-10q150 -39 231.5 -142.5t81.5 -245.5q0 -113 -46.5 -204.5t-126 -150.5t-183 -90.5t-219.5 -31.5z" />
    <glyph glyph-name="four" unicode="4" horiz-adv-x="1305" 
d="M762 0v371h-702v200l695 999h239v-987h256v-212h-256v-371h-232zM309 583h453v661h-16l-437 -647v-14z" />
    <glyph glyph-name="five" unicode="5" horiz-adv-x="1305" 
d="M680 1055q143 0 263 -66t192.5 -189.5t72.5 -279.5t-72.5 -280t-200 -192.5t-285.5 -68.5q-221 0 -373.5 127.5t-180.5 327.5h235q29 -107 114 -170t204 -63q143 0 235 91t92 232q0 140 -90.5 229.5t-231.5 89.5q-99 0 -176 -44.5t-119 -125.5h-227l146 897h852v-212
h-663l-57 -381q116 78 270 78z" />
    <glyph glyph-name="six" unicode="6" horiz-adv-x="1305" 
d="M655 1057q241 0 398.5 -152.5t157.5 -386.5q0 -155 -72.5 -278.5t-199 -192t-283.5 -68.5q-158 0 -286.5 70t-199.5 190t-71 265q0 86 25.5 174.5t70.5 160.5l455 731h255v-28l-303 -487q36 2 53 2zM655 192q141 0 232.5 91t91.5 235t-91.5 235.5t-232.5 91.5
q-142 0 -233.5 -91.5t-91.5 -235.5t91 -235t234 -91z" />
    <glyph glyph-name="seven" unicode="7" horiz-adv-x="1305" 
d="M229 0v51l665 1289v18h-766v212h1062v-126l-721 -1444h-240z" />
    <glyph glyph-name="eight" unicode="8" horiz-adv-x="1305" 
d="M650 -21q-109 0 -208 29.5t-178.5 86t-126.5 148t-47 206.5q0 132 63 234t180 161v13q-75 54 -117.5 137t-42.5 183q0 126 69.5 222.5t177 144t231.5 47.5q127 0 235 -49t175.5 -145.5t67.5 -222.5q0 -99 -42.5 -181t-117.5 -136v-13q116 -59 178.5 -161.5t62.5 -233.5
q0 -115 -47 -206.5t-126 -148t-178 -86t-209 -29.5zM652 938q112 0 181.5 59.5t69.5 155.5q0 101 -69 163.5t-181 62.5q-110 0 -180 -61t-70 -162q0 -98 68.5 -158t180.5 -60zM652 192q142 0 231.5 74t89.5 200q0 125 -89 202t-234 77q-143 0 -231 -77t-88 -202
q0 -126 89.5 -200t231.5 -74z" />
    <glyph glyph-name="nine" unicode="9" horiz-adv-x="1305" 
d="M649 1591q158 0 286.5 -70t199.5 -190t71 -265q0 -86 -25.5 -174.5t-70.5 -160.5l-455 -731h-255v28l303 487q-36 -2 -53 -2q-241 0 -398.5 152.5t-157.5 386.5q0 155 72.5 278.5t199 192t283.5 68.5zM650 725q142 0 233.5 91.5t91.5 235.5t-91 235t-234 91
q-141 0 -232.5 -91t-91.5 -235t91.5 -235.5t232.5 -91.5z" />
    <glyph glyph-name="colon" unicode=":" horiz-adv-x="622" 
d="M311 786q-62 0 -106 44t-44 106q0 60 44 103.5t106 43.5q61 0 104.5 -43.5t43.5 -103.5q0 -62 -43.5 -106t-104.5 -44zM311 -23q-62 0 -106 44t-44 106q0 61 44 104.5t106 43.5q61 0 104.5 -43.5t43.5 -104.5q0 -62 -43.5 -106t-104.5 -44z" />
    <glyph glyph-name="semicolon" unicode=";" horiz-adv-x="651" 
d="M317 786q-61 0 -105 44t-44 106q0 60 43.5 103.5t105.5 43.5q61 0 104.5 -43.5t43.5 -103.5q0 -62 -43.5 -106t-104.5 -44zM321 273q56 1 98 -21t65 -58.5t34 -77.5t11 -86q0 -61 -20.5 -124t-62 -123t-116.5 -101t-173 -47v127q110 7 173.5 76t63.5 151v11
q-37 -23 -79 -23q-61 0 -104.5 45t-43.5 107q0 61 44.5 102.5t109.5 41.5z" />
    <glyph glyph-name="less" unicode="&#x3c;" horiz-adv-x="1305" 
d="M1139 -3l-1005 573v191l1005 573l-2 -201l-818 -468l820 -467v-201z" />
    <glyph glyph-name="equal" unicode="=" horiz-adv-x="1305" 
d="M199 887v196h905v-196h-905zM199 410v195h905v-195h-905z" />
    <glyph glyph-name="greater" unicode="&#x3e;" horiz-adv-x="1305" 
d="M166 -3v201l820 467l-818 468l-2 201l1005 -573v-191z" />
    <glyph glyph-name="question" unicode="?" horiz-adv-x="866" 
d="M225 460v112q0 83 21 146.5t54.5 103t73.5 70.5t80.5 57.5t74 55t54.5 71.5t21 100q0 110 -71 168.5t-192 58.5q-124 0 -224 -61l-62 191q128 58 282 58q208 0 338 -110t130 -308q0 -76 -21 -135.5t-55 -97t-75.5 -68t-82.5 -58.5t-75 -59t-55 -77.5t-21 -107.5v-110
h-195zM324 -23q-63 0 -106.5 44t-43.5 106q0 61 43.5 104.5t106.5 43.5q60 0 103.5 -43.5t43.5 -104.5q0 -62 -43.5 -106t-103.5 -44z" />
    <glyph glyph-name="at" unicode="@" horiz-adv-x="2163" 
d="M1074 -389q-277 0 -497.5 120.5t-346 341.5t-125.5 504q0 214 73.5 401.5t202.5 323t314 213.5t400 78q278 0 499 -125t345 -348t124 -504q0 -145 -35.5 -272.5t-99.5 -221.5t-160.5 -148.5t-212.5 -54.5q-106 0 -171 50t-84 143q-12 56 -12 127h-15q-131 -193 -345 -193
q-168 0 -271 113t-103 318q0 129 42.5 255t116.5 225t183 160t233 61q206 0 266 -169h11l27 112h158q-10 -46 -33.5 -154.5t-33 -153.5t-27 -130.5t-25 -130t-17.5 -105t-14.5 -103.5t-5.5 -79q-3 -98 28 -147t107 -49q151 0 243.5 156t92.5 391q0 240 -99.5 428t-284 294.5
t-424.5 106.5q-185 0 -342.5 -66.5t-265 -182.5t-168 -276t-60.5 -343q0 -243 104.5 -429.5t288.5 -287.5t419 -101q145 0 284 51l51 -144q-168 -55 -335 -55zM928 204q74 0 141 33t116.5 89t86.5 127.5t55.5 151t18.5 157.5q0 259 -213 259q-92 0 -172.5 -47.5
t-133.5 -125.5t-83.5 -176t-30.5 -199q0 -138 56.5 -203.5t158.5 -65.5z" />
    <glyph glyph-name="A" unicode="A" horiz-adv-x="1412" 
d="M842 1570l550 -1525v-45h-241l-118 350h-651l-120 -350h-242v45l552 1525h270zM454 562h507l-242 719h-19z" />
    <glyph glyph-name="B" unicode="B" horiz-adv-x="1382" 
d="M195 0v1570h502q262 0 391 -91q139 -100 139 -298q0 -129 -54 -212t-148 -121v-19q128 -35 196 -131t68 -242q0 -224 -149 -346q-134 -110 -378 -110h-567zM434 923h279q40 0 73 3.5t72.5 16.5t66 35t45 63t18.5 97q0 106 -61 162q-67 58 -226 58h-267v-435zM434 212h271
q189 0 275 78q70 65 70 187q0 52 -13 92.5t-37 64.5t-50.5 40.5t-62 23.5t-61.5 9.5t-58 2.5h-334v-498z" />
    <glyph glyph-name="C" unicode="C" horiz-adv-x="1617" 
d="M826 -21q-345 0 -541.5 218.5t-196.5 587.5q0 370 196.5 588t541.5 218q292 0 480.5 -158t240.5 -436h-245q-47 180 -169.5 281t-306.5 101q-234 0 -366.5 -161t-132.5 -433t132 -432.5t367 -160.5q184 0 306.5 101t169.5 280h245q-52 -278 -240.5 -436t-480.5 -158z" />
    <glyph glyph-name="D" unicode="D" horiz-adv-x="1611" 
d="M195 0v1570h521q393 0 602 -205t209 -591q0 -375 -210.5 -574.5t-603.5 -199.5h-518zM434 212h257q289 0 443 147.5t154 423.5q0 279 -148.5 427t-427.5 148h-278v-1146z" />
    <glyph glyph-name="E" unicode="E" horiz-adv-x="1319" 
d="M195 0v1570h993v-212h-754v-466h690v-212h-690v-468h800v-212h-1039z" />
    <glyph glyph-name="F" unicode="F" horiz-adv-x="1241" 
d="M195 0v1570h1001v-212h-762v-466h660v-212h-660v-680h-239z" />
    <glyph glyph-name="G" unicode="G" horiz-adv-x="1689" 
d="M897 838h650v-838h-194l-23 182v19h-18q-68 -101 -202 -161.5t-300 -60.5q-222 0 -386 100t-250.5 283t-85.5 427q0 242 87 423t254 280t395 99q292 0 480.5 -158t240.5 -436h-245q-47 180 -169.5 281t-306.5 101q-234 0 -366.5 -160.5t-132.5 -431.5
q0 -274 137.5 -434.5t385.5 -160.5q213 0 343.5 118.5t138.5 315.5h-433v212z" />
    <glyph glyph-name="H" unicode="H" horiz-adv-x="1620" 
d="M195 0v1570h239v-677h752v677h239v-1570h-239v680h-752v-680h-239z" />
    <glyph glyph-name="I" unicode="I" horiz-adv-x="630" 
d="M195 0v1570h239v-1570h-239z" />
    <glyph glyph-name="J" unicode="J" horiz-adv-x="1230" 
d="M544 -21q-253 0 -385.5 132t-134.5 372h238q2 -136 76.5 -213.5t205.5 -77.5q135 0 207 85.5t72 249.5v831h-528v212h767v-1077q0 -250 -133.5 -382t-384.5 -132z" />
    <glyph glyph-name="K" unicode="K" horiz-adv-x="1518" 
d="M1491 1570l-588 -595l577 -928v-47h-244l-485 802h-19l-298 -302v-500h-239v1570h239v-747h20l717 747h320z" />
    <glyph glyph-name="L" unicode="L" horiz-adv-x="1136" 
d="M195 0v1570h239v-1358h687v-212h-926z" />
    <glyph glyph-name="M" unicode="M" horiz-adv-x="1907" 
d="M195 0v1570h432l318 -1359h17l317 1359h432v-1570h-239v1358h-19l-323 -1358h-353l-323 1358h-20v-1358h-239z" />
    <glyph glyph-name="N" unicode="N" horiz-adv-x="1620" 
d="M195 0v1570h413l558 -1358h20v1358h238v-1570h-414l-556 1358h-20v-1358h-239z" />
    <glyph glyph-name="O" unicode="O" horiz-adv-x="1654" 
d="M826 -21q-345 0 -541.5 218.5t-196.5 587.5q0 370 196.5 588t541.5 218q346 0 543 -218t197 -588t-197 -588t-543 -218zM826 192q235 0 368 160.5t133 432.5t-133 433t-368 161q-234 0 -366.5 -161t-132.5 -433t132 -432.5t367 -160.5z" />
    <glyph glyph-name="P" unicode="P" horiz-adv-x="1266" 
d="M195 0v1570h531q241 0 366 -118.5t125 -333.5q0 -221 -128 -338t-363 -117h-292v-663h-239zM434 875h254q290 0 290 247q0 127 -73 181.5t-217 54.5h-254v-483z" />
    <glyph glyph-name="Q" unicode="Q" horiz-adv-x="1683" 
d="M1566 785q0 -341 -167 -552l157 -188v-45h-227l-79 95q-176 -116 -424 -116q-345 0 -541.5 218.5t-196.5 587.5q0 370 196.5 588t541.5 218q346 0 543 -218t197 -588zM826 192q162 0 277 78l-276 330v44h229l186 -223q85 147 85 364q0 272 -133 433t-368 161
q-234 0 -366.5 -161t-132.5 -433t132 -432.5t367 -160.5z" />
    <glyph glyph-name="R" unicode="R" horiz-adv-x="1359" 
d="M930 671l389 -623v-48h-244l-399 663h-242v-663h-239v1570h531q241 0 366 -118.5t125 -333.5q0 -166 -74 -274.5t-213 -152.5v-20zM434 1358v-483h254q290 0 290 247q0 127 -73 181.5t-217 54.5h-254z" />
    <glyph glyph-name="S" unicode="S" horiz-adv-x="1245" 
d="M639 -17q-258 0 -413 155t-155 435h245q0 -185 80.5 -281.5t242.5 -96.5q133 0 206.5 66.5t73.5 171.5q0 61 -26.5 109t-71.5 80.5t-103 59.5t-122 50.5t-128 49t-122 60t-103 78t-71.5 108t-26.5 145.5q0 192 136.5 305t337.5 113q99 0 186.5 -29t158 -86.5
t112.5 -152.5t44 -216h-239q0 135 -74 203.5t-188 68.5q-102 0 -168.5 -55.5t-66.5 -140.5q0 -53 26.5 -95.5t71.5 -72.5t103 -56t122 -50t128 -51t122 -63.5t103 -82t71.5 -112t26.5 -148.5q0 -210 -141.5 -339.5t-377.5 -129.5z" />
    <glyph glyph-name="T" unicode="T" horiz-adv-x="1288" 
d="M525 0v1358h-511v212h1260v-212h-510v-1358h-239z" />
    <glyph glyph-name="U" unicode="U" horiz-adv-x="1500" 
d="M749 -21q-287 0 -437 149.5t-150 438.5v1003h239v-996q0 -188 88.5 -285t259.5 -97q172 0 261 97.5t89 286.5v994h239v-1001q0 -289 -150 -439.5t-439 -150.5z" />
    <glyph glyph-name="V" unicode="V" horiz-adv-x="1412" 
d="M572 0l-552 1525v45h242l438 -1281h19l432 1281h241v-45l-550 -1525h-270z" />
    <glyph glyph-name="W" unicode="W" horiz-adv-x="2263" 
d="M572 0l-552 1521v49h242l437 -1279h21l204 1279h414l211 -1279h20l432 1279h240v-49l-550 -1521h-328l-223 1376h-20l-221 -1376h-327z" />
    <glyph glyph-name="X" unicode="X" horiz-adv-x="1400" 
d="M35 0v45l509 742l-506 740v43h256l400 -605h11l402 605h255v-43l-506 -740l509 -742v-45h-253l-409 602h-9l-405 -602h-254z" />
    <glyph glyph-name="Y" unicode="Y" horiz-adv-x="1379" 
d="M570 0v585l-568 940v45h252l427 -741h17l428 741h251v-45l-568 -940v-585h-239z" />
    <glyph glyph-name="Z" unicode="Z" horiz-adv-x="1361" 
d="M72 0v291l949 1047v20h-915v212h1154v-294l-949 -1048v-16h980v-212h-1219z" />
    <glyph glyph-name="bracketleft" unicode="[" horiz-adv-x="674" 
d="M188 -168v1902h458v-154h-272v-1592h272v-156h-458z" />
    <glyph glyph-name="backslash" unicode="\" horiz-adv-x="951" 
d="M991 -477h-215l-816 2047h215z" />
    <glyph glyph-name="bracketright" unicode="]" horiz-adv-x="674" 
d="M486 -168h-458v156h272v1592h-272v154h458v-1902z" />
    <glyph glyph-name="asciicircum" unicode="^" horiz-adv-x="1285" 
d="M52 480l589 1171l592 -1171h-244l-348 737l-345 -737h-244z" />
    <glyph glyph-name="underscore" unicode="_" horiz-adv-x="1222" 
d="M147 -174v174h928v-174h-928z" />
    <glyph glyph-name="grave" unicode="`" horiz-adv-x="604" 
d="M365 1250l-305 320h246l234 -320h-175z" />
    <glyph glyph-name="a" unicode="a" horiz-adv-x="1173" 
d="M569 1131q233 0 355.5 -107.5t122.5 -321.5v-702h-214l-17 115h-20q-47 -62 -107 -91q-82 -45 -202 -45q-199 0 -309 97t-110 266q0 91 31.5 158.5t88 106.5t128 57.5t159.5 18.5h341v43q0 102 -64 157t-183 55q-104 0 -164.5 -41t-69.5 -118h-233q9 150 132.5 251
t334.5 101zM741 248q48 48 65.5 113.5t18.5 154.5h-337q-89 0 -137 -46t-48 -128q0 -83 54 -131t158 -48q141 0 226 85z" />
    <glyph glyph-name="b" unicode="b" horiz-adv-x="1297" 
d="M731 -21q-106 0 -189 38.5t-136 103.5h-19l-32 -121h-199v1570h231v-581h19q52 65 133.5 103.5t187.5 38.5q225 0 355 -154t130 -421q0 -268 -129.5 -422.5t-351.5 -154.5zM674 173q142 0 224.5 101t82.5 282q0 179 -82.5 280.5t-224.5 101.5t-225 -101.5t-83 -280.5
q0 -181 82.5 -282t225.5 -101z" />
    <glyph glyph-name="c" unicode="c" horiz-adv-x="1177" 
d="M614 -21q-255 0 -403 154.5t-148 424.5q0 268 148 420.5t403 152.5q208 0 344 -103t168 -288h-239q-23 95 -95.5 146.5t-177.5 51.5q-147 0 -233 -101t-86 -279q0 -180 86 -282.5t233 -102.5q105 0 178.5 53t96.5 149h237q-32 -187 -168 -291.5t-344 -104.5z" />
    <glyph glyph-name="d" unicode="d" horiz-adv-x="1297" 
d="M566 -21q-222 0 -351.5 154.5t-129.5 422.5q0 267 130 421t355 154q106 0 187.5 -38.5t133.5 -103.5h19v581h231v-1570h-199l-32 121h-19q-53 -65 -136 -103.5t-189 -38.5zM623 173q143 0 225.5 101t82.5 282q0 179 -83 280.5t-225 101.5t-224.5 -101.5t-82.5 -280.5
q0 -181 82.5 -282t224.5 -101z" />
    <glyph glyph-name="e" unicode="e" horiz-adv-x="1216" 
d="M1163 565q0 -33 -2 -49h-867q10 -161 95.5 -252t222.5 -91q188 0 271 162h248q-54 -170 -189 -263t-330 -93q-255 0 -403 154.5t-148 424.5q0 257 149.5 415t401.5 158q250 0 399.5 -156t151.5 -410zM612 938q-118 0 -198 -67t-108 -188h612q-27 122 -107 188.5
t-199 66.5z" />
    <glyph glyph-name="f" unicode="f" horiz-adv-x="690" 
d="M221 0v936h-218v174h218v211q0 56 14 100t37.5 71.5t57 45.5t69.5 25t78 7h198v-193h-116q-107 0 -107 -109v-158h223v-174h-223v-936h-231z" />
    <glyph glyph-name="g" unicode="g" horiz-adv-x="1280" 
d="M426 -460q-161 0 -250 105t-89 264h235q0 -175 173 -175h215q96 0 139 46.5t43 136.5v223h-19q-54 -65 -136.5 -103.5t-188.5 -38.5q-224 0 -352.5 151t-128.5 416q0 266 129.5 416t355.5 150q105 0 187 -38.5t134 -102.5h19l19 120h212v-1193q0 -180 -105.5 -278.5
t-318.5 -98.5h-273zM605 192q144 0 225.5 99t81.5 274q0 174 -81.5 273.5t-225.5 99.5q-143 0 -225 -97.5t-82 -275.5q0 -179 82 -276t225 -97z" />
    <glyph glyph-name="h" unicode="h" horiz-adv-x="1248" 
d="M157 0v1570h232v-574h18q100 135 312 135q200 0 299.5 -117t101.5 -314v-700h-231v656q0 282 -247 282q-122 0 -187.5 -73.5t-65.5 -208.5v-656h-232z" />
    <glyph glyph-name="i" unicode="i" horiz-adv-x="542" 
d="M270 1296q-62 0 -106 43.5t-44 105.5q0 61 44 104.5t106 43.5q61 0 104 -43.5t43 -104.5q0 -62 -43 -105.5t-104 -43.5zM155 0v1110h231v-1110h-231z" />
    <glyph glyph-name="j" unicode="j" horiz-adv-x="545" 
d="M273 1296q-62 0 -106 43.5t-44 105.5q0 61 44 104.5t106 43.5q61 0 104 -43.5t43 -104.5q0 -62 -43 -105.5t-104 -43.5zM144 -460h-167v194h86q94 0 94 106v1270h231v-1324q0 -129 -66 -187.5t-178 -58.5z" />
    <glyph glyph-name="k" unicode="k" horiz-adv-x="1181" 
d="M157 0v1570h232v-963l6 1l463 502h299l-387 -413l400 -634v-63h-232l-336 540l-8 -1l-205 -212v-327h-232z" />
    <glyph glyph-name="l" unicode="l" horiz-adv-x="588" 
d="M388 0q-112 0 -178 58.5t-66 187.5v1324h232v-1271q0 -106 94 -106h86v-193h-168z" />
    <glyph glyph-name="m" unicode="m" horiz-adv-x="1907" 
d="M155 0v1110h203l19 -106h19q50 55 130 91t178 36q111 0 191 -43.5t123 -124.5h18q60 80 150.5 124t201.5 44q191 0 290 -107.5t99 -305.5v-718h-232v680q0 258 -226 258q-114 0 -175.5 -64t-61.5 -182v-692h-232v692q0 121 -58 183.5t-172 62.5q-113 0 -173.5 -64
t-60.5 -182v-692h-231z" />
    <glyph glyph-name="n" unicode="n" horiz-adv-x="1246" 
d="M155 0v1110h213l18 -106h19q49 59 129 93t183 34q200 0 300.5 -117t100.5 -314v-700h-232v659q0 279 -245 279q-123 0 -189 -73.5t-66 -208.5v-656h-231z" />
    <glyph glyph-name="o" unicode="o" horiz-adv-x="1228" 
d="M614 -21q-255 0 -403 154.5t-148 424.5q0 268 148 420.5t403 152.5t403 -153t148 -420q0 -270 -148 -424.5t-403 -154.5zM614 173q147 0 233.5 102.5t86.5 282.5q0 177 -86.5 278.5t-233.5 101.5t-233 -101t-86 -279q0 -180 86 -282.5t233 -102.5z" />
    <glyph glyph-name="p" unicode="p" horiz-adv-x="1297" 
d="M731 1131q222 0 351.5 -154.5t129.5 -422.5q0 -267 -130 -421t-355 -154q-106 0 -187.5 38.5t-133.5 103.5h-19v-581h-231v1570h199l32 -121h19q53 65 136 103.5t189 38.5zM674 937q-143 0 -225.5 -101t-82.5 -282q0 -179 83 -280.5t225 -101.5t224.5 101.5t82.5 280.5
q0 181 -82.5 282t-224.5 101z" />
    <glyph glyph-name="q" unicode="q" horiz-adv-x="1297" 
d="M566 1131q106 0 189 -38.5t136 -103.5h19l32 121h199v-1570h-231v581h-19q-52 -65 -133.5 -103.5t-187.5 -38.5q-225 0 -355 154t-130 421q0 268 129.5 422.5t351.5 154.5zM623 937q-142 0 -224.5 -101t-82.5 -282q0 -179 82.5 -280.5t224.5 -101.5t225 101.5t83 280.5
q0 181 -82.5 282t-225.5 101z" />
    <glyph glyph-name="r" unicode="r" horiz-adv-x="742" 
d="M155 0v1110h213l18 -127h20q62 127 204 127h133v-210h-150q-103 0 -155 -51t-52 -166v-683h-231z" />
    <glyph glyph-name="s" unicode="s" horiz-adv-x="1003" 
d="M504 -21q-201 0 -317 97.5t-119 258.5h230q2 -72 54 -117t152 -45q97 0 147.5 41t50.5 105q0 44 -26 75.5t-68.5 48t-97 33t-111.5 28.5t-111.5 36t-97 55.5t-68.5 86.5t-26 129q0 153 103 236.5t282 83.5q191 0 306.5 -93t123.5 -259h-220q-8 88 -62 129t-142 41
q-82 0 -126.5 -33t-44.5 -91q0 -48 33.5 -80t87.5 -50t119.5 -33.5t130.5 -38.5t119 -56t87.5 -94t33.5 -146q0 -160 -112.5 -254t-310.5 -94z" />
    <glyph glyph-name="t" unicode="t" horiz-adv-x="737" 
d="M439 0q-112 0 -178 58.5t-66 187.5v690h-179v174h179v346h232v-346h250v-174h-250v-637q0 -106 94 -106h156v-193h-238z" />
    <glyph glyph-name="u" unicode="u" horiz-adv-x="1244" 
d="M527 -21q-200 0 -300.5 117.5t-100.5 314.5v699h232v-656q0 -281 245 -281q123 0 189 73t66 208v656h231v-1110h-213l-18 107h-19q-49 -60 -129 -94t-183 -34z" />
    <glyph glyph-name="v" unicode="v" horiz-adv-x="1130" 
d="M394 0l-396 1110h250l307 -915h20l309 915h248l-396 -1110h-342z" />
    <glyph glyph-name="w" unicode="w" horiz-adv-x="1864" 
d="M394 0l-396 1110h250l307 -915h20l195 915h326l193 -915h20l309 915h249l-397 -1110h-342l-186 889h-18l-187 -889h-343z" />
    <glyph glyph-name="x" unicode="x" horiz-adv-x="1096" 
d="M5 0l391 559l-391 551h281l253 -386h17l253 386h282l-391 -551l391 -559h-276l-259 393h-17l-258 -393h-276z" />
    <glyph glyph-name="y" unicode="y" horiz-adv-x="1126" 
d="M881 1110h249l-396 -1110l-103 -267q-31 -77 -60.5 -115.5t-82 -58t-142.5 -19.5h-254v194h211q36 0 60 6.5t39.5 23.5t24 33t20.5 48l56 155h-111l-397 1110h251l308 -918h18z" />
    <glyph glyph-name="z" unicode="z" horiz-adv-x="1076" 
d="M70 0v281l684 615v21h-658v193h889v-282l-683 -615v-20h700v-193h-932z" />
    <glyph glyph-name="braceleft" unicode="{" horiz-adv-x="642" 
d="M435 -166q-118 0 -180 80.5t-62 221.5v353q0 44 -11 75.5t-35.5 51t-42.5 29t-52 21.5v155q26 9 41.5 15.5t37 21.5t33.5 32.5t20.5 46.5t8.5 67v364q0 143 63.5 222t182.5 79h156v-150h-78q-128 0 -128 -155v-364q0 -102 -38.5 -158.5t-113.5 -87.5v-21
q75 -33 113.5 -88t38.5 -152v-353q0 -157 124 -157h82v-149h-160z" />
    <glyph glyph-name="bar" unicode="|" horiz-adv-x="639" 
d="M234 -569v2273h171v-2273h-171z" />
    <glyph glyph-name="braceright" unicode="}" horiz-adv-x="642" 
d="M207 -166h-160v149h82q124 0 124 157v353q0 97 38.5 152t113.5 88v21q-75 31 -113.5 87.5t-38.5 158.5v364q0 155 -128 155h-78v150h156q119 0 182.5 -79t63.5 -222v-364q0 -38 8.5 -67t20.5 -46.5t33.5 -32.5t37 -21.5t41.5 -15.5v-155q-34 -12 -52 -21.5t-42.5 -29
t-35.5 -51t-11 -75.5v-353q0 -141 -62 -221.5t-180 -80.5z" />
    <glyph glyph-name="asciitilde" unicode="~" horiz-adv-x="1314" 
d="M854 384q-60 0 -107.5 19.5t-75 48.5t-53.5 63t-45 63t-49 48.5t-66 19.5q-54 0 -85 -54.5t-31 -147.5h-174q0 161 79 259.5t211 98.5q62 0 110.5 -19.5t77 -48.5t54.5 -63.5t45 -63.5t47 -48.5t62 -19.5q53 0 86.5 64t33.5 164h174q0 -171 -81 -277t-213 -106z" />
    <glyph glyph-name="uni00A0" unicode="&#xa0;" horiz-adv-x="626" 
 />
    <glyph glyph-name="exclamdown" unicode="&#xa1;" horiz-adv-x="638" 
d="M317 1133q63 0 106.5 -44t43.5 -106q0 -61 -43.5 -104.5t-106.5 -43.5q-60 0 -103.5 43.5t-43.5 104.5q0 62 43.5 106t103.5 44zM405 645l26 -1105h-227l26 1105h175z" />
    <glyph glyph-name="cent" unicode="&#xa2;" horiz-adv-x="1202" 
d="M566 -237v222q-143 17 -247 100.5t-153.5 204t-49.5 263.5q0 104 28 199.5t82 175t142 133t198 67.5v205h118v-204q147 -11 256.5 -91.5t166.5 -226.5l-218 -85q-25 78 -78.5 128.5t-126.5 62.5v-724q74 12 127 61.5t76 125.5l209 -79q-50 -141 -158 -224.5t-254 -95.5
v-215zM566 199v712q-107 -26 -162 -126t-55 -232q0 -86 22 -157.5t72 -125.5t123 -71z" />
    <glyph glyph-name="sterling" unicode="&#xa3;" horiz-adv-x="1346" 
d="M136 0v202q119 44 201.5 129.5t82.5 178.5q0 67 -41 188h-237v194h190q-41 108 -41 253q0 197 126 326t344 129q202 0 326 -115.5t137 -283.5h-199q-11 98 -79.5 152t-184.5 54q-130 0 -203.5 -69t-73.5 -197q0 -135 48 -249h432v-194h-387q32 -111 32 -184
q0 -170 -150 -302v-19h753v-193h-1076z" />
    <glyph glyph-name="currency" unicode="&#xa4;" horiz-adv-x="1458" 
d="M313 160l-123 128l116 114q-97 132 -97 300t97 300l-114 112l122 128l116 -118q134 98 301 98.5t299 -96.5l116 114l124 -122l-116 -114q98 -134 98 -302t-98 -302l116 -112l-122 -128l-118 118q-132 -98 -300 -98t-301 98zM481 457q104 -104 248 -104t246 104
q102 103 102 245.5t-102 244.5q-102 101 -245.5 101t-246.5 -103q-100 -101 -101 -244.5t99 -243.5z" />
    <glyph glyph-name="yen" unicode="&#xa5;" horiz-adv-x="1532" 
d="M642 0v239h-367v186h367v172h-367v186h260l-485 787h289l425 -732l426 732h291l-482 -787h256v-186h-364v-172h364v-186h-364v-239h-249z" />
    <glyph glyph-name="brokenbar" unicode="&#xa6;" horiz-adv-x="642" 
d="M236 731v949h172v-949h-172zM234 -531v946h173v-946h-173z" />
    <glyph glyph-name="section" unicode="&#xa7;" horiz-adv-x="1171" 
d="M1084 452q0 -139 -64 -244q64 -88 64 -213q0 -97 -37.5 -177t-102 -132t-149.5 -80.5t-181 -28.5q-101 0 -189 29.5t-159 86.5t-113 152t-44 216h239q0 -135 75 -203t191 -68q100 0 165.5 55t65.5 141q0 53 -26.5 95.5t-71.5 72t-103 55.5t-122 50.5t-128 51t-122 63
t-103 82t-71.5 112t-26.5 148.5q0 135 64 244q-64 88 -64 213q0 97 37.5 177t102 132t149.5 80.5t181 28.5q101 0 189 -29t159 -86.5t113 -152t44 -216.5h-239q0 135 -75 203.5t-191 68.5q-100 0 -165.5 -55.5t-65.5 -140.5q0 -53 26.5 -95.5t71.5 -72.5t103 -56t122 -50
t128 -51t122 -63.5t103 -82t71.5 -112t26.5 -148.5zM310 735q0 -57 24 -103t60 -76t93 -58.5t108.5 -47.5t120.5 -46t116 -50q13 36 13 79q0 57 -24 103t-60 76t-93 58.5t-108.5 47.5t-120.5 46t-116 50q-13 -36 -13 -79z" />
    <glyph glyph-name="dieresis" unicode="&#xa8;" horiz-adv-x="927" 
d="M249 1296q-62 0 -106 43.5t-44 105.5q0 61 44 104.5t106 43.5q61 0 104 -43.5t43 -104.5q0 -62 -43 -105.5t-104 -43.5zM680 1296q-62 0 -106 43.5t-44 105.5q0 61 44 104.5t106 43.5q61 0 104.5 -43.5t43.5 -104.5q0 -62 -43.5 -105.5t-104.5 -43.5z" />
    <glyph glyph-name="copyright" unicode="&#xa9;" horiz-adv-x="1846" 
d="M924 -28q-136 0 -264 41t-230.5 116t-180 175t-119.5 224t-42 257q0 166 66 317t178 259.5t267 173t325 64.5t324 -64.5t265.5 -173t177.5 -259.5t66 -317t-66 -316.5t-177.5 -259t-265.5 -173t-324 -64.5zM924 118q187 0 345.5 89t251 243t92.5 335t-92.5 335
t-251 243.5t-345.5 89.5q-188 0 -347.5 -89.5t-252 -243t-92.5 -335.5q0 -136 54.5 -259.5t147.5 -213t221 -142t269 -52.5zM947 294q-107 0 -193 40t-140 108.5t-83 155.5t-29 185q0 75 17 146t53 133.5t87 109.5t125 74.5t161 27.5q139 0 242.5 -68.5t156.5 -202.5
l-180 -70q-26 77 -84 123.5t-135 46.5q-84 0 -142.5 -47.5t-83.5 -117.5t-25 -155q0 -86 25 -155t83 -115t143 -46q79 0 136 44.5t81 121.5l170 -66q-45 -129 -146.5 -201t-238.5 -72z" />
    <glyph glyph-name="ordfeminine" unicode="&#xaa;" horiz-adv-x="865" 
d="M340 786q-114 0 -193 66t-79 174q0 121 85.5 180.5t229.5 59.5h220q0 32 -6 56q-23 140 -183 140q-120 0 -219 -103l-94 99q79 70 156 101.5t180 31.5q149 0 225.5 -84t76.5 -231v-475h-127v107h-5q-103 -122 -267 -122zM365 917q70 0 128 37.5t90 99.5q17 47 20 85h-210
q-83 0 -128.5 -29.5t-45.5 -83.5q0 -46 44 -77.5t102 -31.5z" />
    <glyph glyph-name="guillemotleft" unicode="&#xab;" horiz-adv-x="1083" 
d="M482 178l-463 389l463 390v-200l-228 -190l228 -188v-201zM943 178l-463 389l463 390v-200l-229 -190l229 -188v-201z" />
    <glyph glyph-name="logicalnot" unicode="&#xac;" horiz-adv-x="1398" 
d="M947 323v357h-818v205h1038v-562h-220z" />
    <glyph glyph-name="uni00AD" unicode="&#xad;" horiz-adv-x="1085" 
d="M147 588v174h791v-174h-791z" />
    <glyph glyph-name="registered" unicode="&#xae;" horiz-adv-x="1846" 
d="M924 -28q-136 0 -264 41t-230.5 116t-180 175t-119.5 224t-42 257q0 166 66 317t178 259.5t267 173t325 64.5t324 -64.5t265.5 -173t177.5 -259.5t66 -317t-66 -316.5t-177.5 -259t-265.5 -173t-324 -64.5zM924 118q187 0 345.5 89t251 243t92.5 335t-92.5 335
t-251 243.5t-345.5 89.5q-188 0 -347.5 -89.5t-252 -243t-92.5 -335.5q0 -136 54.5 -259.5t147.5 -213t221 -142t269 -52.5zM651 314v942h291q146 0 235.5 -75.5t89.5 -198.5q0 -86 -49 -150.5t-134 -93.5l258 -424h-175l-234 408q-8 0 -25.5 -0.5t-26.5 -0.5h-78v-407h-152
zM803 847h152q77 2 118.5 37.5t41.5 95.5q0 66 -45 103t-126 37h-141v-273z" />
    <glyph glyph-name="macron" unicode="&#xaf;" horiz-adv-x="892" 
d="M137 1301v137h617v-137h-617z" />
    <glyph glyph-name="degree" unicode="&#xb0;" horiz-adv-x="950" 
d="M474 944q-133 0 -228 95t-95 228q0 134 95 229t228 95q134 0 228.5 -95t94.5 -229q0 -133 -94.5 -228t-228.5 -95zM474 1099q71 0 120.5 49t49.5 119t-49.5 119t-120.5 49q-70 0 -119 -49t-49 -119t49 -119t119 -49z" />
    <glyph glyph-name="plusminus" unicode="&#xb1;" horiz-adv-x="1305" 
d="M565 209v489h-514v175h514v488h175v-488h514v-175h-514v-489h-175zM51 -174v174h1199v-174h-1199z" />
    <glyph glyph-name="acute" unicode="&#xb4;" horiz-adv-x="621" 
d="M68 1250l247 320h246l-324 -320h-169z" />
    <glyph glyph-name="uni00B5" unicode="&#xb5;" horiz-adv-x="1381" 
d="M234 -372v1482h227v-644q0 -126 60.5 -200t173.5 -74q127 0 198.5 74t71.5 221v623h227v-1110h-227v149q-59 -85 -148.5 -127.5t-186.5 -42.5q-134 0 -211 72v-423h-185z" />
    <glyph glyph-name="paragraph" unicode="&#xb6;" horiz-adv-x="1374" 
d="M570 -273v965q-98 0 -188 30t-160 84.5t-112 139t-42 185.5t42 185.5t112 139t160 84.5t188 30h162v-1843h-162zM977 -273v1843h163v-1843h-163z" />
    <glyph glyph-name="periodcentered" unicode="&#xb7;" horiz-adv-x="657" 
d="M328 659q-67 0 -113 47t-46 113q0 67 46 113t113 46q66 0 113 -46t47 -113q0 -66 -46.5 -113t-113.5 -47z" />
    <glyph glyph-name="cedilla" unicode="&#xb8;" horiz-adv-x="585" 
d="M278 -482q-117 0 -220 85l63 102q78 -73 164 -73q46 0 73 23.5t27 58.5q0 64 -83 88q-46 14 -130 14l114 184h116l-77 -107q31 -3 60 -13q53 -21 84.5 -64t31.5 -100q0 -85 -64 -141.5t-159 -56.5z" />
    <glyph glyph-name="ordmasculine" unicode="&#xba;" horiz-adv-x="909" 
d="M456 792q-171 0 -282 116t-111 284q0 167 111 283t282 116q169 0 279.5 -116t110.5 -283q0 -168 -110 -284t-280 -116zM456 930q113 0 172 73t59 189t-59 189t-172 73q-115 0 -174 -72.5t-59 -189.5t59 -189.5t174 -72.5z" />
    <glyph glyph-name="guillemotright" unicode="&#xbb;" horiz-adv-x="1083" 
d="M140 178v201l229 188l-229 190v200l463 -390zM601 178v201l228 188l-228 190v200l463 -390z" />
    <glyph glyph-name="questiondown" unicode="&#xbf;" horiz-adv-x="870" 
d="M540 1133q63 0 106.5 -44t43.5 -106q0 -61 -43.5 -104.5t-106.5 -43.5q-60 0 -103.5 43.5t-43.5 104.5q0 62 43.5 106t103.5 44zM639 650v-112q0 -83 -21 -146.5t-54.5 -103t-73.5 -70.5t-80.5 -57.5t-74 -55t-54.5 -71.5t-21 -100q0 -110 71 -168.5t192 -58.5
q124 0 224 61l62 -191q-128 -58 -282 -58q-208 0 -338 110t-130 308q0 76 21 135.5t55 97t75 68t82.5 58.5t75.5 59t55 77.5t21 107.5v110h195z" />
    <glyph glyph-name="Agrave" unicode="&#xc0;" horiz-adv-x="1412" 
d="M794 1710h-175l-305 320h246zM842 1570l550 -1525v-45h-241l-118 350h-651l-120 -350h-242v45l552 1525h270zM454 562h507l-242 719h-19z" />
    <glyph glyph-name="Aacute" unicode="&#xc1;" horiz-adv-x="1412" 
d="M1087 2030l-324 -320h-169l247 320h246zM842 1570l550 -1525v-45h-241l-118 350h-651l-120 -350h-242v45l552 1525h270zM454 562h507l-242 719h-19z" />
    <glyph glyph-name="Acircumflex" unicode="&#xc2;" horiz-adv-x="1412" 
d="M703 1911l-145 -202h-199l247 320h196l249 -320h-200zM842 1570l550 -1525v-45h-241l-118 350h-651l-120 -350h-242v45l552 1525h270zM454 562h507l-242 719h-19z" />
    <glyph glyph-name="Atilde" unicode="&#xc3;" horiz-adv-x="1412" 
d="M556 1876q-41 1 -64 -41.5t-23 -119.5h-132q0 144 60.5 224t165.5 80q38 0 71 -12.5t55.5 -31.5t44.5 -41.5t39 -41.5t38 -31.5t43 -12.5q35 0 57.5 43.5t22.5 119.5h139q0 -145 -59.5 -226t-161.5 -81q-50 0 -90 18t-65 43t-46.5 50.5t-45 43t-49.5 17.5zM842 1570
l550 -1525v-45h-241l-118 350h-651l-120 -350h-242v45l552 1525h270zM454 562h507l-242 719h-19z" />
    <glyph glyph-name="Adieresis" unicode="&#xc4;" horiz-adv-x="1412" 
d="M492 1691q-62 0 -106 44t-44 106q0 61 44 104t106 43q61 0 104 -43t43 -104q0 -62 -43 -106t-104 -44zM923 1691q-62 0 -106 44t-44 106q0 61 44 104t106 43q61 0 104.5 -43t43.5 -104q0 -62 -43.5 -106t-104.5 -44zM842 1570l550 -1525v-45h-241l-118 350h-651
l-120 -350h-242v45l552 1525h270zM454 562h507l-242 719h-19z" />
    <glyph glyph-name="Aring" unicode="&#xc5;" horiz-adv-x="1412" 
d="M866 1502l526 -1457v-45h-241l-118 350h-651l-120 -350h-242v45l528 1458q-83 72 -83 191q0 102 66.5 168.5t172.5 66.5q112 0 178.5 -66t66.5 -169q0 -120 -83 -192zM706 1804q-51 0 -83.5 -32.5t-32.5 -81.5q0 -51 33.5 -85.5t82.5 -34.5q51 0 84.5 34t33.5 86
q0 50 -32.5 82t-85.5 32zM454 562h507l-242 719h-19z" />
    <glyph glyph-name="AE" unicode="&#xc6;" horiz-adv-x="2078" 
d="M1993 1360h-807v-473h705v-201h-705v-470h807v-216h-1046v350h-565l-120 -350h-242v45l552 1525h1421v-210zM455 562h492v798h-219z" />
    <glyph glyph-name="Ccedilla" unicode="&#xc7;" horiz-adv-x="1617" 
d="M826 192q184 0 306.5 101t169.5 280h245q-50 -266 -225 -423t-448 -170l-63 -87q31 -3 60 -13q53 -21 84.5 -64t31.5 -100q0 -85 -64 -141.5t-159 -56.5q-117 0 -220 85l63 102q78 -73 164 -73q46 0 73 23.5t27 58.5q0 64 -83 88q-46 14 -130 14l102 165
q-316 22 -494 237.5t-178 566.5q0 370 196.5 588t541.5 218q292 0 480.5 -158t240.5 -436h-245q-47 180 -169.5 281t-306.5 101q-234 0 -366.5 -161t-132.5 -433t132 -432.5t367 -160.5z" />
    <glyph glyph-name="Egrave" unicode="&#xc8;" horiz-adv-x="1319" 
d="M619 1710l-305 320h246l234 -320h-175zM195 0v1570h993v-212h-754v-466h690v-212h-690v-468h800v-212h-1039z" />
    <glyph glyph-name="Eacute" unicode="&#xc9;" horiz-adv-x="1319" 
d="M594 1710l247 320h246l-324 -320h-169zM195 0v1570h993v-212h-754v-466h690v-212h-690v-468h800v-212h-1039z" />
    <glyph glyph-name="Ecircumflex" unicode="&#xca;" horiz-adv-x="1319" 
d="M703 1911l-145 -202h-199l247 320h196l249 -320h-200zM434 212h800v-212h-1039v1570h993v-212h-754v-466h690v-212h-690v-468z" />
    <glyph glyph-name="Edieresis" unicode="&#xcb;" horiz-adv-x="1319" 
d="M492 1691q-62 0 -106 44t-44 106q0 61 44 104t106 43q61 0 104 -43t43 -104q0 -62 -43 -106t-104 -44zM923 1691q-62 0 -106 44t-44 106q0 61 44 104t106 43q61 0 104.5 -43t43.5 -104q0 -62 -43.5 -106t-104.5 -44zM195 0v1570h993v-212h-754v-466h690v-212h-690v-468
h800v-212h-1039z" />
    <glyph glyph-name="Igrave" unicode="&#xcc;" horiz-adv-x="630" 
d="M227 1710l-305 320h246l234 -320h-175zM195 0v1570h239v-1570h-239z" />
    <glyph glyph-name="Iacute" unicode="&#xcd;" horiz-adv-x="630" 
d="M202 1710l247 320h246l-324 -320h-169zM195 0v1570h239v-1570h-239z" />
    <glyph glyph-name="Icircumflex" unicode="&#xce;" horiz-adv-x="630" 
d="M410 2029l249 -320h-200l-148 202l-145 -202h-199l247 320h196zM195 0v1570h239v-1570h-239z" />
    <glyph glyph-name="Idieresis" unicode="&#xcf;" horiz-adv-x="630" 
d="M100 1691q-62 0 -106 44t-44 106q0 61 44 104t106 43q61 0 104 -43t43 -104q0 -62 -43 -106t-104 -44zM531 1691q-62 0 -106 44t-44 106q0 61 44 104t106 43q61 0 104.5 -43t43.5 -104q0 -62 -43.5 -106t-104.5 -44zM195 0v1570h239v-1570h-239z" />
    <glyph glyph-name="Eth" unicode="&#xd0;" horiz-adv-x="1611" 
d="M716 1570q393 0 602 -205t209 -591q0 -375 -210.5 -574.5t-603.5 -199.5h-518v707h-168v156h168v707h521zM691 212q289 0 443 147.5t154 423.5q0 279 -148.5 427t-427.5 148h-278v-495h299v-156h-299v-495h257z" />
    <glyph glyph-name="Ntilde" unicode="&#xd1;" horiz-adv-x="1620" 
d="M956 1704q-50 0 -90 18t-65 43t-46.5 50.5t-45 43t-49.5 17.5q-41 1 -64 -41.5t-23 -119.5h-132q0 144 60.5 224t165.5 80q38 0 71 -12.5t55.5 -31.5t44.5 -41.5t39 -41.5t38 -31.5t43 -12.5q35 0 57.5 43.5t22.5 119.5h139q0 -145 -59.5 -226t-161.5 -81zM195 0v1570
h413l558 -1358h20v1358h238v-1570h-414l-556 1358h-20v-1358h-239z" />
    <glyph glyph-name="Ograve" unicode="&#xd2;" horiz-adv-x="1654" 
d="M739 1708l-305 320h246l234 -320h-175zM826 -21q-345 0 -541.5 218.5t-196.5 587.5q0 370 196.5 588t541.5 218q346 0 543 -218t197 -588t-197 -588t-543 -218zM826 192q235 0 368 160.5t133 432.5t-133 433t-368 161q-234 0 -366.5 -161t-132.5 -433t132 -432.5
t367 -160.5z" />
    <glyph glyph-name="Oacute" unicode="&#xd3;" horiz-adv-x="1654" 
d="M714 1708l247 320h246l-324 -320h-169zM826 -21q-345 0 -541.5 218.5t-196.5 587.5q0 370 196.5 588t541.5 218q346 0 543 -218t197 -588t-197 -588t-543 -218zM826 192q235 0 368 160.5t133 432.5t-133 433t-368 161q-234 0 -366.5 -161t-132.5 -433t132 -432.5
t367 -160.5z" />
    <glyph glyph-name="Ocircumflex" unicode="&#xd4;" horiz-adv-x="1654" 
d="M823 1909l-145 -202h-199l247 320h196l249 -320h-200zM826 1591q346 0 543 -218t197 -588t-197 -588t-543 -218q-345 0 -541.5 218.5t-196.5 587.5q0 370 196.5 588t541.5 218zM826 192q235 0 368 160.5t133 432.5t-133 433t-368 161q-234 0 -366.5 -161t-132.5 -433
t132 -432.5t367 -160.5z" />
    <glyph glyph-name="Otilde" unicode="&#xd5;" horiz-adv-x="1654" 
d="M972 1702q-50 0 -90 18t-65 43t-46.5 50.5t-45 43t-49.5 17.5q-41 1 -64 -41.5t-23 -119.5h-132q0 144 60.5 224t165.5 80q38 0 71 -12.5t55.5 -31.5t44.5 -41.5t39 -41.5t38 -31.5t43 -12.5q35 0 57.5 43.5t22.5 119.5h139q0 -145 -59.5 -226t-161.5 -81zM826 -21
q-345 0 -541.5 218.5t-196.5 587.5q0 370 196.5 588t541.5 218q346 0 543 -218t197 -588t-197 -588t-543 -218zM826 192q235 0 368 160.5t133 432.5t-133 433t-368 161q-234 0 -366.5 -161t-132.5 -433t132 -432.5t367 -160.5z" />
    <glyph glyph-name="Odieresis" unicode="&#xd6;" horiz-adv-x="1654" 
d="M612 1689q-62 0 -106 44t-44 106q0 61 44 104t106 43q61 0 104 -43t43 -104q0 -62 -43 -106t-104 -44zM1043 1689q-62 0 -106 44t-44 106q0 61 44 104t106 43q61 0 104.5 -43t43.5 -104q0 -62 -43.5 -106t-104.5 -44zM826 -21q-345 0 -541.5 218.5t-196.5 587.5
q0 370 196.5 588t541.5 218q346 0 543 -218t197 -588t-197 -588t-543 -218zM826 192q235 0 368 160.5t133 432.5t-133 433t-368 161q-234 0 -366.5 -161t-132.5 -433t132 -432.5t367 -160.5z" />
    <glyph glyph-name="multiply" unicode="&#xd7;" horiz-adv-x="1305" 
d="M997 198l-344 344l-343 -344l-124 124l344 343l-344 344l124 124l343 -344l343 343l124 -124l-343 -343l344 -343z" />
    <glyph glyph-name="Oslash" unicode="&#xd8;" horiz-adv-x="1654" 
d="M1320 1422q120 -106 183 -268.5t63 -368.5q0 -370 -197 -588t-543 -218q-194 0 -344 72l-67 -109l-153 93l70 115q-119 106 -181.5 268t-62.5 367q0 370 196.5 588t541.5 218q191 0 344 -71l64 105l153 -93zM327 785q0 -271 130 -430l596 974q-98 50 -227 50
q-234 0 -366.5 -161t-132.5 -433zM826 192q235 0 368 160.5t133 432.5q0 274 -132 432l-597 -975q100 -50 228 -50z" />
    <glyph glyph-name="Ugrave" unicode="&#xd9;" horiz-adv-x="1500" 
d="M660 1710l-305 320h246l234 -320h-175zM749 -21q-287 0 -437 149.5t-150 438.5v1003h239v-996q0 -188 88.5 -285t259.5 -97q172 0 261 97.5t89 286.5v994h239v-1001q0 -289 -150 -439.5t-439 -150.5z" />
    <glyph glyph-name="Uacute" unicode="&#xda;" horiz-adv-x="1500" 
d="M635 1710l247 320h246l-324 -320h-169zM749 -21q-287 0 -437 149.5t-150 438.5v1003h239v-996q0 -188 88.5 -285t259.5 -97q172 0 261 97.5t89 286.5v994h239v-1001q0 -289 -150 -439.5t-439 -150.5z" />
    <glyph glyph-name="Ucircumflex" unicode="&#xdb;" horiz-adv-x="1500" 
d="M744 1911l-145 -202h-199l247 320h196l249 -320h-200zM1099 1570h239v-1001q0 -289 -150 -439.5t-439 -150.5q-287 0 -437 149.5t-150 438.5v1003h239v-996q0 -188 88.5 -285t259.5 -97q172 0 261 97.5t89 286.5v994z" />
    <glyph glyph-name="Udieresis" unicode="&#xdc;" horiz-adv-x="1500" 
d="M533 1691q-62 0 -106 44t-44 106q0 61 44 104t106 43q61 0 104 -43t43 -104q0 -62 -43 -106t-104 -44zM964 1691q-62 0 -106 44t-44 106q0 61 44 104t106 43q61 0 104.5 -43t43.5 -104q0 -62 -43.5 -106t-104.5 -44zM749 -21q-287 0 -437 149.5t-150 438.5v1003h239v-996
q0 -188 88.5 -285t259.5 -97q172 0 261 97.5t89 286.5v994h239v-1001q0 -289 -150 -439.5t-439 -150.5z" />
    <glyph glyph-name="Yacute" unicode="&#xdd;" horiz-adv-x="1379" 
d="M577 1710l247 320h246l-324 -320h-169zM570 0v585l-568 940v45h252l427 -741h17l428 741h251v-45l-568 -940v-585h-239z" />
    <glyph glyph-name="Thorn" unicode="&#xde;" horiz-adv-x="1264" 
d="M195 0v1570h239v-218h310q229 0 350 -118.5t121 -333.5q0 -220 -124.5 -337.5t-346.5 -117.5h-310v-445h-239zM434 669h292q124 0 188 59t64 174q0 227 -252 227h-292v-460z" />
    <glyph glyph-name="germandbls" unicode="&#xdf;" horiz-adv-x="1292" 
d="M155 0v1066q0 135 35.5 237.5t100.5 164.5t151 92.5t193 30.5q208 0 340 -103t132 -268q0 -59 -18 -108t-45 -80t-58.5 -59t-58.5 -47t-45 -41.5t-18 -45.5q0 -24 18.5 -47.5t48 -45.5t65.5 -48t71.5 -59.5t65 -73t48 -95.5t18.5 -122q0 -159 -97 -253.5t-260 -94.5h-248
v195h191q84 0 131.5 37.5t47.5 109.5q0 41 -18.5 76.5t-47.5 62.5t-64.5 53.5t-71 55.5t-64.5 61.5t-47.5 78t-18.5 99.5q0 63 25 110t61 75t72 54t61 62t25 83q0 80 -63 131.5t-170 51.5q-68 0 -117 -24t-75 -58.5t-41.5 -85.5t-19 -91t-3.5 -90v-1047h-232z" />
    <glyph glyph-name="agrave" unicode="&#xe0;" horiz-adv-x="1173" 
d="M662 1250h-175l-305 320h246zM569 1131q233 0 355.5 -107.5t122.5 -321.5v-702h-214l-17 115h-20q-47 -62 -107 -91q-82 -45 -202 -45q-199 0 -309 97t-110 266q0 91 31.5 158.5t88 106.5t128 57.5t159.5 18.5h341v43q0 102 -64 157t-183 55q-104 0 -164.5 -41
t-69.5 -118h-233q9 150 132.5 251t334.5 101zM741 248q48 48 65.5 113.5t18.5 154.5h-337q-89 0 -137 -46t-48 -128q0 -83 54 -131t158 -48q141 0 226 85z" />
    <glyph glyph-name="aacute" unicode="&#xe1;" horiz-adv-x="1173" 
d="M955 1570l-324 -320h-169l247 320h246zM569 1131q233 0 355.5 -107.5t122.5 -321.5v-702h-214l-17 115h-20q-47 -62 -107 -91q-82 -45 -202 -45q-199 0 -309 97t-110 266q0 91 31.5 158.5t88 106.5t128 57.5t159.5 18.5h341v43q0 102 -64 157t-183 55q-104 0 -164.5 -41
t-69.5 -118h-233q9 150 132.5 251t334.5 101zM741 248q48 48 65.5 113.5t18.5 154.5h-337q-89 0 -137 -46t-48 -128q0 -83 54 -131t158 -48q141 0 226 85z" />
    <glyph glyph-name="acircumflex" unicode="&#xe2;" horiz-adv-x="1173" 
d="M571 1451l-145 -202h-199l247 320h196l249 -320h-200zM569 1131q233 0 355.5 -107.5t122.5 -321.5v-702h-214l-17 115h-20q-47 -62 -107 -91q-82 -45 -202 -45q-199 0 -309 97t-110 266q0 91 31.5 158.5t88 106.5t128 57.5t159.5 18.5h341v43q0 102 -64 157t-183 55
q-104 0 -164.5 -41t-69.5 -118h-233q9 150 132.5 251t334.5 101zM741 248q48 48 65.5 113.5t18.5 154.5h-337q-89 0 -137 -46t-48 -128q0 -83 54 -131t158 -48q141 0 226 85z" />
    <glyph glyph-name="atilde" unicode="&#xe3;" horiz-adv-x="1173" 
d="M424 1416q-41 1 -64 -41.5t-23 -119.5h-132q0 144 60.5 224t165.5 80q38 0 71 -12.5t55.5 -31.5t44.5 -41.5t39 -41.5t38 -31.5t43 -12.5q35 0 57.5 43.5t22.5 119.5h139q0 -145 -59.5 -226t-161.5 -81q-50 0 -90 18t-65 43t-46.5 50.5t-45 43t-49.5 17.5zM569 1131
q233 0 355.5 -107.5t122.5 -321.5v-702h-214l-17 115h-20q-47 -62 -107 -91q-82 -45 -202 -45q-199 0 -309 97t-110 266q0 91 31.5 158.5t88 106.5t128 57.5t159.5 18.5h341v43q0 102 -64 157t-183 55q-104 0 -164.5 -41t-69.5 -118h-233q9 150 132.5 251t334.5 101z
M741 248q48 48 65.5 113.5t18.5 154.5h-337q-89 0 -137 -46t-48 -128q0 -83 54 -131t158 -48q141 0 226 85z" />
    <glyph glyph-name="adieresis" unicode="&#xe4;" horiz-adv-x="1173" 
d="M360 1296q-62 0 -106 43.5t-44 105.5q0 61 44 104.5t106 43.5q61 0 104 -43.5t43 -104.5q0 -62 -43 -105.5t-104 -43.5zM791 1296q-62 0 -106 43.5t-44 105.5q0 61 44 104.5t106 43.5q61 0 104.5 -43.5t43.5 -104.5q0 -62 -43.5 -105.5t-104.5 -43.5zM569 1131
q233 0 355.5 -107.5t122.5 -321.5v-702h-214l-17 115h-20q-47 -62 -107 -91q-82 -45 -202 -45q-199 0 -309 97t-110 266q0 91 31.5 158.5t88 106.5t128 57.5t159.5 18.5h341v43q0 102 -64 157t-183 55q-104 0 -164.5 -41t-69.5 -118h-233q9 150 132.5 251t334.5 101z
M741 248q48 48 65.5 113.5t18.5 154.5h-337q-89 0 -137 -46t-48 -128q0 -83 54 -131t158 -48q141 0 226 85z" />
    <glyph glyph-name="aring" unicode="&#xe5;" horiz-adv-x="1173" 
d="M572 1197q-101 0 -171.5 72t-70.5 172t70.5 170.5t171.5 70.5q100 0 171.5 -70t71.5 -171q0 -102 -70.5 -173t-172.5 -71zM572 1557q-51 0 -83.5 -32.5t-32.5 -81.5q0 -52 33 -86.5t83 -34.5q51 0 84.5 34.5t33.5 86.5q0 50 -32 82t-86 32zM569 1131q233 0 355.5 -107.5
t122.5 -321.5v-702h-214l-17 115h-20q-47 -62 -107 -91q-82 -45 -202 -45q-199 0 -309 97t-110 266q0 91 31.5 158.5t88 106.5t128 57.5t159.5 18.5h341v43q0 102 -64 157t-183 55q-104 0 -164.5 -41t-69.5 -118h-233q9 150 132.5 251t334.5 101zM741 248q48 48 65.5 113.5
t18.5 154.5h-337q-89 0 -137 -46t-48 -128q0 -83 54 -131t158 -48q141 0 226 85z" />
    <glyph glyph-name="ae" unicode="&#xe6;" horiz-adv-x="1974" 
d="M1919 565q0 -33 -2 -49h-867q10 -161 95.5 -252t222.5 -91q188 0 271 162h248q-54 -170 -189 -263t-330 -93q-152 0 -267.5 56t-185.5 161h-21q-60 -108 -157 -160q-107 -57 -250 -57q-199 0 -309 97t-110 266q0 91 31.5 158.5t88 106.5t128 57.5t159.5 18.5h341v43
q0 102 -64 157t-183 55q-104 0 -164.5 -41t-69.5 -118h-233q9 150 132.5 251t334.5 101q283 0 400 -156q150 156 399 156q250 0 399.5 -156t151.5 -410zM1368 938q-118 0 -198 -67t-108 -188h612q-27 122 -107 188.5t-199 66.5zM741 248q74 75 81 217q-2 16 -2 25h-332
q-93 0 -139 -34.5t-46 -113.5q0 -83 54 -131t158 -48q141 0 226 85z" />
    <glyph glyph-name="ccedilla" unicode="&#xe7;" horiz-adv-x="1177" 
d="M614 173q105 0 178.5 53t96.5 149h237q-31 -183 -162.5 -287t-332.5 -109l-62 -86q31 -3 60 -13q53 -21 84.5 -64t31.5 -100q0 -85 -64 -141.5t-159 -56.5q-117 0 -220 85l63 102q78 -73 164 -73q46 0 73 23.5t27 58.5q0 64 -83 88q-46 14 -130 14l105 169
q-215 28 -336.5 178.5t-121.5 394.5q0 268 148 420.5t403 152.5q208 0 344 -103t168 -288h-239q-23 95 -95.5 146.5t-177.5 51.5q-147 0 -233 -101t-86 -279q0 -180 86 -282.5t233 -102.5z" />
    <glyph glyph-name="egrave" unicode="&#xe8;" horiz-adv-x="1216" 
d="M697 1250h-175l-305 320h246zM1163 565q0 -33 -2 -49h-867q10 -161 95.5 -252t222.5 -91q188 0 271 162h248q-54 -170 -189 -263t-330 -93q-255 0 -403 154.5t-148 424.5q0 257 149.5 415t401.5 158q250 0 399.5 -156t151.5 -410zM612 938q-118 0 -198 -67t-108 -188h612
q-27 122 -107 188.5t-199 66.5z" />
    <glyph glyph-name="eacute" unicode="&#xe9;" horiz-adv-x="1216" 
d="M990 1570l-324 -320h-169l247 320h246zM1163 565q0 -33 -2 -49h-867q10 -161 95.5 -252t222.5 -91q188 0 271 162h248q-54 -170 -189 -263t-330 -93q-255 0 -403 154.5t-148 424.5q0 257 149.5 415t401.5 158q250 0 399.5 -156t151.5 -410zM612 938q-118 0 -198 -67
t-108 -188h612q-27 122 -107 188.5t-199 66.5z" />
    <glyph glyph-name="ecircumflex" unicode="&#xea;" horiz-adv-x="1216" 
d="M606 1451l-145 -202h-199l247 320h196l249 -320h-200zM1163 565q0 -33 -2 -49h-867q10 -161 95.5 -252t222.5 -91q188 0 271 162h248q-54 -170 -189 -263t-330 -93q-255 0 -403 154.5t-148 424.5q0 257 149.5 415t401.5 158q250 0 399.5 -156t151.5 -410zM612 938
q-118 0 -198 -67t-108 -188h612q-27 122 -107 188.5t-199 66.5z" />
    <glyph glyph-name="edieresis" unicode="&#xeb;" horiz-adv-x="1216" 
d="M395 1296q-62 0 -106 43.5t-44 105.5q0 61 44 104.5t106 43.5q61 0 104 -43.5t43 -104.5q0 -62 -43 -105.5t-104 -43.5zM826 1296q-62 0 -106 43.5t-44 105.5q0 61 44 104.5t106 43.5q61 0 104.5 -43.5t43.5 -104.5q0 -62 -43.5 -105.5t-104.5 -43.5zM1163 565
q0 -33 -2 -49h-867q10 -161 95.5 -252t222.5 -91q188 0 271 162h248q-54 -170 -189 -263t-330 -93q-255 0 -403 154.5t-148 424.5q0 257 149.5 415t401.5 158q250 0 399.5 -156t151.5 -410zM612 938q-118 0 -198 -67t-108 -188h612q-27 122 -107 188.5t-199 66.5z" />
    <glyph glyph-name="igrave" unicode="&#xec;" horiz-adv-x="542" 
d="M183 1250l-305 320h246l234 -320h-175zM155 0v1110h231v-1110h-231z" />
    <glyph glyph-name="iacute" unicode="&#xed;" horiz-adv-x="542" 
d="M158 1250l247 320h246l-324 -320h-169zM155 0v1110h231v-1110h-231z" />
    <glyph glyph-name="icircumflex" unicode="&#xee;" horiz-adv-x="542" 
d="M366 1569l249 -320h-200l-148 202l-145 -202h-199l247 320h196zM155 0v1110h231v-1110h-231z" />
    <glyph glyph-name="idieresis" unicode="&#xef;" horiz-adv-x="542" 
d="M56 1296q-62 0 -106 43.5t-44 105.5q0 61 44 104.5t106 43.5q61 0 104 -43.5t43 -104.5q0 -62 -43 -105.5t-104 -43.5zM487 1296q-62 0 -106 43.5t-44 105.5q0 61 44 104.5t106 43.5q61 0 104.5 -43.5t43.5 -104.5q0 -62 -43.5 -105.5t-104.5 -43.5zM155 0v1110h231
v-1110h-231z" />
    <glyph glyph-name="eth" unicode="&#xf0;" horiz-adv-x="1204" 
d="M601 -21q-118 0 -223 44t-178.5 118t-116 173t-42.5 206q0 146 75.5 266t203.5 187t279 67q45 0 84 -21l-135 215l-77 -86h-126l150 169l-164 253h254l60 -89l74 89h125l-142 -161l285 -474q104 -172 138 -257.5t34 -164.5q0 -109 -44 -208t-119 -170.5t-178 -113.5
t-217 -42zM599 203q135 0 230.5 92.5t95.5 222.5t-96 223t-230 93t-229.5 -93t-95.5 -223t95.5 -222.5t229.5 -92.5z" />
    <glyph glyph-name="ntilde" unicode="&#xf1;" horiz-adv-x="1246" 
d="M771 1244q-50 0 -90 18t-65 43t-46.5 50.5t-45 43t-49.5 17.5q-41 1 -64 -41.5t-23 -119.5h-132q0 144 60.5 224t165.5 80q38 0 71 -12.5t55.5 -31.5t44.5 -41.5t39 -41.5t38 -31.5t43 -12.5q35 0 57.5 43.5t22.5 119.5h139q0 -145 -59.5 -226t-161.5 -81zM155 0v1110
h213l18 -106h19q49 59 129 93t183 34q200 0 300.5 -117t100.5 -314v-700h-232v659q0 279 -245 279q-123 0 -189 -73.5t-66 -208.5v-656h-231z" />
    <glyph glyph-name="ograve" unicode="&#xf2;" horiz-adv-x="1228" 
d="M527 1250l-305 320h246l234 -320h-175zM614 -21q-255 0 -403 154.5t-148 424.5q0 268 148 420.5t403 152.5t403 -153t148 -420q0 -270 -148 -424.5t-403 -154.5zM614 173q147 0 233.5 102.5t86.5 282.5q0 177 -86.5 278.5t-233.5 101.5t-233 -101t-86 -279
q0 -180 86 -282.5t233 -102.5z" />
    <glyph glyph-name="oacute" unicode="&#xf3;" horiz-adv-x="1228" 
d="M502 1250l247 320h246l-324 -320h-169zM614 -21q-255 0 -403 154.5t-148 424.5q0 268 148 420.5t403 152.5t403 -153t148 -420q0 -270 -148 -424.5t-403 -154.5zM614 173q147 0 233.5 102.5t86.5 282.5q0 177 -86.5 278.5t-233.5 101.5t-233 -101t-86 -279
q0 -180 86 -282.5t233 -102.5z" />
    <glyph glyph-name="ocircumflex" unicode="&#xf4;" horiz-adv-x="1228" 
d="M611 1451l-145 -202h-199l247 320h196l249 -320h-200zM614 1131q255 0 403 -153t148 -420q0 -270 -148 -424.5t-403 -154.5t-403 154.5t-148 424.5q0 268 148 420.5t403 152.5zM614 173q147 0 233.5 102.5t86.5 282.5q0 177 -86.5 278.5t-233.5 101.5t-233 -101t-86 -279
q0 -180 86 -282.5t233 -102.5z" />
    <glyph glyph-name="otilde" unicode="&#xf5;" horiz-adv-x="1228" 
d="M760 1244q-50 0 -90 18t-65 43t-46.5 50.5t-45 43t-49.5 17.5q-41 1 -64 -41.5t-23 -119.5h-132q0 144 60.5 224t165.5 80q38 0 71 -12.5t55.5 -31.5t44.5 -41.5t39 -41.5t38 -31.5t43 -12.5q35 0 57.5 43.5t22.5 119.5h139q0 -145 -59.5 -226t-161.5 -81zM614 -21
q-255 0 -403 154.5t-148 424.5q0 268 148 420.5t403 152.5t403 -153t148 -420q0 -270 -148 -424.5t-403 -154.5zM614 173q147 0 233.5 102.5t86.5 282.5q0 177 -86.5 278.5t-233.5 101.5t-233 -101t-86 -279q0 -180 86 -282.5t233 -102.5z" />
    <glyph glyph-name="odieresis" unicode="&#xf6;" horiz-adv-x="1228" 
d="M400 1296q-62 0 -106 43.5t-44 105.5q0 61 44 104.5t106 43.5q61 0 104 -43.5t43 -104.5q0 -62 -43 -105.5t-104 -43.5zM831 1296q-62 0 -106 43.5t-44 105.5q0 61 44 104.5t106 43.5q61 0 104.5 -43.5t43.5 -104.5q0 -62 -43.5 -105.5t-104.5 -43.5zM614 -21
q-255 0 -403 154.5t-148 424.5q0 268 148 420.5t403 152.5t403 -153t148 -420q0 -270 -148 -424.5t-403 -154.5zM614 173q147 0 233.5 102.5t86.5 282.5q0 177 -86.5 278.5t-233.5 101.5t-233 -101t-86 -279q0 -180 86 -282.5t233 -102.5z" />
    <glyph glyph-name="divide" unicode="&#xf7;" horiz-adv-x="1305" 
d="M640 925q-62 0 -106 44t-44 106q0 61 44 104.5t106 43.5q61 0 104 -43.5t43 -104.5q0 -62 -43 -106t-104 -44zM200 611v175h900v-175h-900zM640 154q-62 0 -106 44t-44 106q0 61 44 104.5t106 43.5q61 0 104 -43.5t43 -104.5q0 -62 -43 -106t-104 -44z" />
    <glyph glyph-name="oslash" unicode="&#xf8;" horiz-adv-x="1228" 
d="M992 1002q173 -154 173 -444q0 -270 -148 -424.5t-403 -154.5q-124 0 -224 38l-82 -134l-153 93l81 133q-173 154 -173 449q0 268 148 420.5t403 152.5q124 0 224 -38l80 131l153 -93zM295 558q0 -153 63 -250l373 610q-54 20 -117 20q-147 0 -233 -101t-86 -279z
M614 173q147 0 233.5 102.5t86.5 282.5q0 151 -63 246l-374 -611q55 -20 117 -20z" />
    <glyph glyph-name="ugrave" unicode="&#xf9;" horiz-adv-x="1244" 
d="M534 1250l-305 320h246l234 -320h-175zM527 -21q-200 0 -300.5 117.5t-100.5 314.5v699h232v-656q0 -281 245 -281q123 0 189 73t66 208v656h231v-1110h-213l-18 107h-19q-49 -60 -129 -94t-183 -34z" />
    <glyph glyph-name="uacute" unicode="&#xfa;" horiz-adv-x="1244" 
d="M509 1250l247 320h246l-324 -320h-169zM527 -21q-200 0 -300.5 117.5t-100.5 314.5v699h232v-656q0 -281 245 -281q123 0 189 73t66 208v656h231v-1110h-213l-18 107h-19q-49 -60 -129 -94t-183 -34z" />
    <glyph glyph-name="ucircumflex" unicode="&#xfb;" horiz-adv-x="1244" 
d="M618 1451l-145 -202h-199l247 320h196l249 -320h-200zM858 1110h231v-1110h-213l-18 107h-19q-49 -60 -129 -94t-183 -34q-200 0 -300.5 117.5t-100.5 314.5v699h232v-656q0 -281 245 -281q123 0 189 73t66 208v656z" />
    <glyph glyph-name="udieresis" unicode="&#xfc;" horiz-adv-x="1244" 
d="M407 1296q-62 0 -106 43.5t-44 105.5q0 61 44 104.5t106 43.5q61 0 104 -43.5t43 -104.5q0 -62 -43 -105.5t-104 -43.5zM838 1296q-62 0 -106 43.5t-44 105.5q0 61 44 104.5t106 43.5q61 0 104.5 -43.5t43.5 -104.5q0 -62 -43.5 -105.5t-104.5 -43.5zM527 -21
q-200 0 -300.5 117.5t-100.5 314.5v699h232v-656q0 -281 245 -281q123 0 189 73t66 208v656h231v-1110h-213l-18 107h-19q-49 -60 -129 -94t-183 -34z" />
    <glyph glyph-name="yacute" unicode="&#xfd;" horiz-adv-x="1126" 
d="M944 1570l-324 -320h-169l247 320h246zM881 1110h249l-396 -1110l-103 -267q-31 -77 -60.5 -115.5t-82 -58t-142.5 -19.5h-254v194h211q36 0 60 6.5t39.5 23.5t24 33t20.5 48l56 155h-111l-397 1110h251l308 -918h18z" />
    <glyph glyph-name="thorn" unicode="&#xfe;" horiz-adv-x="1283" 
d="M157 -460v2030h232v-581h18q53 65 136.5 103.5t188.5 38.5q223 0 352.5 -154.5t129.5 -421.5q0 -268 -130 -422t-355 -154q-106 0 -188 38.5t-134 103.5h-18v-581h-232zM675 173q143 0 225 101t82 281q0 181 -82 282t-225 101q-142 0 -224.5 -101t-82.5 -282
q0 -179 82.5 -280.5t224.5 -101.5z" />
    <glyph glyph-name="ydieresis" unicode="&#xff;" horiz-adv-x="1126" 
d="M349 1296q-62 0 -106 43.5t-44 105.5q0 61 44 104.5t106 43.5q61 0 104 -43.5t43 -104.5q0 -62 -43 -105.5t-104 -43.5zM780 1296q-62 0 -106 43.5t-44 105.5q0 61 44 104.5t106 43.5q61 0 104.5 -43.5t43.5 -104.5q0 -62 -43.5 -105.5t-104.5 -43.5zM881 1110h249
l-396 -1110l-103 -267q-31 -77 -60.5 -115.5t-82 -58t-142.5 -19.5h-254v194h211q36 0 60 6.5t39.5 23.5t24 33t20.5 48l56 155h-111l-397 1110h251l308 -918h18z" />
    <glyph glyph-name="Amacron" unicode="&#x100;" horiz-adv-x="1412" 
d="M1014 1898v-137h-617v137h617zM842 1570l550 -1525v-45h-241l-118 350h-651l-120 -350h-242v45l552 1525h270zM454 562h507l-242 719h-19z" />
    <glyph glyph-name="amacron" unicode="&#x101;" horiz-adv-x="1173" 
d="M882 1438v-137h-617v137h617zM569 1131q233 0 355.5 -107.5t122.5 -321.5v-702h-214l-17 115h-20q-47 -62 -107 -91q-82 -45 -202 -45q-199 0 -309 97t-110 266q0 91 31.5 158.5t88 106.5t128 57.5t159.5 18.5h341v43q0 102 -64 157t-183 55q-104 0 -164.5 -41
t-69.5 -118h-233q9 150 132.5 251t334.5 101zM741 248q48 48 65.5 113.5t18.5 154.5h-337q-89 0 -137 -46t-48 -128q0 -83 54 -131t158 -48q141 0 226 85z" />
    <glyph glyph-name="Abreve" unicode="&#x102;" horiz-adv-x="1412" 
d="M706 1713q-174 0 -260.5 84t-86.5 233h164q0 -93 49 -137t134 -44q86 0 134.5 45t48.5 136h163q0 -152 -88.5 -234.5t-257.5 -82.5zM842 1570l550 -1525v-45h-241l-118 350h-651l-120 -350h-242v45l552 1525h270zM454 562h507l-242 719h-19z" />
    <glyph glyph-name="abreve" unicode="&#x103;" horiz-adv-x="1173" 
d="M574 1253q-174 0 -260.5 84t-86.5 233h164q0 -93 49 -137t134 -44q86 0 134.5 45t48.5 136h163q0 -152 -88.5 -234.5t-257.5 -82.5zM569 1131q233 0 355.5 -107.5t122.5 -321.5v-702h-214l-17 115h-20q-47 -62 -107 -91q-82 -45 -202 -45q-199 0 -309 97t-110 266
q0 91 31.5 158.5t88 106.5t128 57.5t159.5 18.5h341v43q0 102 -64 157t-183 55q-104 0 -164.5 -41t-69.5 -118h-233q9 150 132.5 251t334.5 101zM741 248q48 48 65.5 113.5t18.5 154.5h-337q-89 0 -137 -46t-48 -128q0 -83 54 -131t158 -48q141 0 226 85z" />
    <glyph glyph-name="Aogonek" unicode="&#x104;" horiz-adv-x="1412" 
d="M1392 0q-82 -57 -127 -117.5t-45 -110.5t43.5 -79t128.5 -29v-143q-170 0 -260 52t-90 140q0 64 48 138.5t140 148.5h-79l-118 350h-651l-120 -350h-242v45l552 1525h270l550 -1525v-45zM454 562h507l-242 719h-19z" />
    <glyph glyph-name="aogonek" unicode="&#x105;" horiz-adv-x="1173" 
d="M877 -228q0 -50 43.5 -79t128.5 -29v-143q-170 0 -260 52t-90 140q0 64 48 138.5t140 148.5h-54l-17 115h-20q-47 -62 -107 -91q-82 -45 -202 -45q-199 0 -309 97t-110 266q0 91 31.5 158.5t88 106.5t128 57.5t159.5 18.5h341v43q0 102 -64 157t-183 55
q-104 0 -164.5 -41t-69.5 -118h-233q9 150 132.5 251t334.5 101q233 0 355.5 -107.5t122.5 -321.5v-702h2q-82 -57 -127 -117.5t-45 -110.5zM741 248q48 48 65.5 113.5t18.5 154.5h-337q-89 0 -137 -46t-48 -128q0 -83 54 -131t158 -48q141 0 226 85z" />
    <glyph glyph-name="Cacute" unicode="&#x106;" horiz-adv-x="1617" 
d="M705 1710l247 320h246l-324 -320h-169zM826 -21q-345 0 -541.5 218.5t-196.5 587.5q0 370 196.5 588t541.5 218q292 0 480.5 -158t240.5 -436h-245q-47 180 -169.5 281t-306.5 101q-234 0 -366.5 -161t-132.5 -433t132 -432.5t367 -160.5q184 0 306.5 101t169.5 280h245
q-52 -278 -240.5 -436t-480.5 -158z" />
    <glyph glyph-name="cacute" unicode="&#x107;" horiz-adv-x="1177" 
d="M477 1250l247 320h246l-324 -320h-169zM614 -21q-255 0 -403 154.5t-148 424.5q0 268 148 420.5t403 152.5q208 0 344 -103t168 -288h-239q-23 95 -95.5 146.5t-177.5 51.5q-147 0 -233 -101t-86 -279q0 -180 86 -282.5t233 -102.5q105 0 178.5 53t96.5 149h237
q-32 -187 -168 -291.5t-344 -104.5z" />
    <glyph glyph-name="Cdotaccent" unicode="&#x10a;" horiz-adv-x="1617" 
d="M817 1691q-62 0 -106 44t-44 106q0 61 44 104t106 43q61 0 104 -43t43 -104q0 -62 -43 -106t-104 -44zM826 -21q-345 0 -541.5 218.5t-196.5 587.5q0 370 196.5 588t541.5 218q292 0 480.5 -158t240.5 -436h-245q-47 180 -169.5 281t-306.5 101q-234 0 -366.5 -161
t-132.5 -433t132 -432.5t367 -160.5q184 0 306.5 101t169.5 280h245q-52 -278 -240.5 -436t-480.5 -158z" />
    <glyph glyph-name="cdotaccent" unicode="&#x10b;" horiz-adv-x="1177" 
d="M589 1296q-62 0 -106 43.5t-44 105.5q0 61 44 104.5t106 43.5q61 0 104 -43.5t43 -104.5q0 -62 -43 -105.5t-104 -43.5zM614 -21q-255 0 -403 154.5t-148 424.5q0 268 148 420.5t403 152.5q208 0 344 -103t168 -288h-239q-23 95 -95.5 146.5t-177.5 51.5
q-147 0 -233 -101t-86 -279q0 -180 86 -282.5t233 -102.5q105 0 178.5 53t96.5 149h237q-32 -187 -168 -291.5t-344 -104.5z" />
    <glyph glyph-name="Ccaron" unicode="&#x10c;" horiz-adv-x="1617" 
d="M894 1710h-158l-266 320h180l164 -207l168 207h180zM826 192q184 0 306.5 101t169.5 280h245q-52 -278 -240.5 -436t-480.5 -158q-345 0 -541.5 218.5t-196.5 587.5q0 370 196.5 588t541.5 218q292 0 480.5 -158t240.5 -436h-245q-47 180 -169.5 281t-306.5 101
q-234 0 -366.5 -161t-132.5 -433t132 -432.5t367 -160.5z" />
    <glyph glyph-name="ccaron" unicode="&#x10d;" horiz-adv-x="1177" 
d="M666 1250h-158l-266 320h180l164 -207l168 207h180zM614 173q105 0 178.5 53t96.5 149h237q-32 -187 -168 -291.5t-344 -104.5q-255 0 -403 154.5t-148 424.5q0 268 148 420.5t403 152.5q208 0 344 -103t168 -288h-239q-23 95 -95.5 146.5t-177.5 51.5q-147 0 -233 -101
t-86 -279q0 -180 86 -282.5t233 -102.5z" />
    <glyph glyph-name="Dcaron" unicode="&#x10e;" horiz-adv-x="1611" 
d="M883 1710h-158l-266 320h180l164 -207l168 207h180zM716 1570q393 0 602 -205t209 -591q0 -375 -210.5 -574.5t-603.5 -199.5h-518v1570h521zM691 212q289 0 443 147.5t154 423.5q0 279 -148.5 427t-427.5 148h-278v-1146h257z" />
    <glyph glyph-name="dcaron" unicode="&#x10f;" horiz-adv-x="1297" 
d="M1438 1593q56 1 98 -21t65 -58.5t34 -77.5t11 -86q0 -61 -20.5 -124t-62 -123t-116.5 -101t-173 -47v127q110 8 174 76.5t64 151.5v10q-37 -23 -80 -23q-61 0 -104.5 45t-43.5 107q0 61 44.5 102.5t109.5 41.5zM910 989v581h231v-1570h-199l-32 121h-19
q-53 -65 -136 -103.5t-189 -38.5q-222 0 -351.5 154.5t-129.5 422.5q0 267 130 421t355 154q106 0 187.5 -38.5t133.5 -103.5h19zM623 173q143 0 225.5 101t82.5 282q0 179 -83 280.5t-225 101.5t-224.5 -101.5t-82.5 -280.5q0 -181 82.5 -282t224.5 -101z" />
    <glyph glyph-name="Dcroat" unicode="&#x110;" horiz-adv-x="1611" 
d="M716 1570q393 0 602 -205t209 -591q0 -375 -210.5 -574.5t-603.5 -199.5h-518v707h-168v156h168v707h521zM691 212q289 0 443 147.5t154 423.5q0 279 -148.5 427t-427.5 148h-278v-495h299v-156h-299v-495h257z" />
    <glyph glyph-name="dcroat" unicode="&#x111;" horiz-adv-x="1297" 
d="M1285 1471v-156h-144v-1315h-199l-32 121h-19q-53 -65 -136 -103.5t-189 -38.5q-222 0 -351.5 154.5t-129.5 422.5q0 267 130 421t355 154q106 0 187.5 -38.5t133.5 -103.5h19v326h-331v156h331v99h231v-99h144zM623 173q143 0 225.5 101t82.5 282q0 179 -83 280.5
t-225 101.5t-224.5 -101.5t-82.5 -280.5q0 -181 82.5 -282t224.5 -101z" />
    <glyph glyph-name="Emacron" unicode="&#x112;" horiz-adv-x="1319" 
d="M397 1761v137h617v-137h-617zM195 0v1570h993v-212h-754v-466h690v-212h-690v-468h800v-212h-1039z" />
    <glyph glyph-name="emacron" unicode="&#x113;" horiz-adv-x="1216" 
d="M917 1438v-137h-617v137h617zM1163 565q0 -33 -2 -49h-867q10 -161 95.5 -252t222.5 -91q188 0 271 162h248q-54 -170 -189 -263t-330 -93q-255 0 -403 154.5t-148 424.5q0 257 149.5 415t401.5 158q250 0 399.5 -156t151.5 -410zM612 938q-118 0 -198 -67t-108 -188h612
q-27 122 -107 188.5t-199 66.5z" />
    <glyph glyph-name="Edotaccent" unicode="&#x116;" horiz-adv-x="1319" 
d="M706 1691q-62 0 -106 44t-44 106q0 61 44 104t106 43q61 0 104 -43t43 -104q0 -62 -43 -106t-104 -44zM195 0v1570h993v-212h-754v-466h690v-212h-690v-468h800v-212h-1039z" />
    <glyph glyph-name="edotaccent" unicode="&#x117;" horiz-adv-x="1216" 
d="M609 1296q-62 0 -106 43.5t-44 105.5q0 61 44 104.5t106 43.5q61 0 104 -43.5t43 -104.5q0 -62 -43 -105.5t-104 -43.5zM1163 565q0 -33 -2 -49h-867q10 -161 95.5 -252t222.5 -91q188 0 271 162h248q-54 -170 -189 -263t-330 -93q-255 0 -403 154.5t-148 424.5
q0 257 149.5 415t401.5 158q250 0 399.5 -156t151.5 -410zM612 938q-118 0 -198 -67t-108 -188h612q-27 122 -107 188.5t-199 66.5z" />
    <glyph glyph-name="Eogonek" unicode="&#x118;" horiz-adv-x="1319" 
d="M1234 0q-82 -57 -127 -117.5t-45 -110.5t43.5 -79t128.5 -29v-143q-170 0 -260 52t-90 140q0 64 48 138.5t140 148.5h-877v1570h993v-212h-754v-466h690v-212h-690v-468h800v-212z" />
    <glyph glyph-name="eogonek" unicode="&#x119;" horiz-adv-x="1216" 
d="M1163 565q0 -33 -2 -49h-867q10 -161 95.5 -252t222.5 -91q188 0 271 162h248q-40 -125 -125 -209.5t-207 -120.5q-80 -57 -123.5 -116.5t-43.5 -108.5q0 -50 43.5 -79t128.5 -29v-143q-170 0 -260 52t-90 140q0 120 153 258q-253 2 -399.5 156t-146.5 423
q0 257 149.5 415t401.5 158q250 0 399.5 -156t151.5 -410zM612 938q-118 0 -198 -67t-108 -188h612q-27 122 -107 188.5t-199 66.5z" />
    <glyph glyph-name="Ecaron" unicode="&#x11a;" horiz-adv-x="1319" 
d="M783 1710h-158l-266 320h180l164 -207l168 207h180zM434 212h800v-212h-1039v1570h993v-212h-754v-466h690v-212h-690v-468z" />
    <glyph glyph-name="ecaron" unicode="&#x11b;" horiz-adv-x="1216" 
d="M686 1250h-158l-266 320h180l164 -207l168 207h180zM1163 565q0 -33 -2 -49h-867q10 -161 95.5 -252t222.5 -91q188 0 271 162h248q-54 -170 -189 -263t-330 -93q-255 0 -403 154.5t-148 424.5q0 257 149.5 415t401.5 158q250 0 399.5 -156t151.5 -410zM612 938
q-118 0 -198 -67t-108 -188h612q-27 122 -107 188.5t-199 66.5z" />
    <glyph glyph-name="Gbreve" unicode="&#x11e;" horiz-adv-x="1689" 
d="M831 1713q-174 0 -260.5 84t-86.5 233h164q0 -93 49 -137t134 -44q86 0 134.5 45t48.5 136h163q0 -152 -88.5 -234.5t-257.5 -82.5zM897 838h650v-838h-194l-23 182v19h-18q-68 -101 -202 -161.5t-300 -60.5q-222 0 -386 100t-250.5 283t-85.5 427q0 242 87 423t254 280
t395 99q292 0 480.5 -158t240.5 -436h-245q-47 180 -169.5 281t-306.5 101q-234 0 -366.5 -160.5t-132.5 -431.5q0 -274 137.5 -434.5t385.5 -160.5q213 0 343.5 118.5t138.5 315.5h-433v212z" />
    <glyph glyph-name="gbreve" unicode="&#x11f;" horiz-adv-x="1280" 
d="M638 1253q-174 0 -260.5 84t-86.5 233h164q0 -93 49 -137t134 -44q86 0 134.5 45t48.5 136h163q0 -152 -88.5 -234.5t-257.5 -82.5zM426 -460q-161 0 -250 105t-89 264h235q0 -175 173 -175h215q96 0 139 46.5t43 136.5v223h-19q-54 -65 -136.5 -103.5t-188.5 -38.5
q-224 0 -352.5 151t-128.5 416q0 266 129.5 416t355.5 150q105 0 187 -38.5t134 -102.5h19l19 120h212v-1193q0 -180 -105.5 -278.5t-318.5 -98.5h-273zM605 192q144 0 225.5 99t81.5 274q0 174 -81.5 273.5t-225.5 99.5q-143 0 -225 -97.5t-82 -275.5q0 -179 82 -276
t225 -97z" />
    <glyph glyph-name="Gdotaccent" unicode="&#x120;" horiz-adv-x="1689" 
d="M831 1691q-62 0 -106 44t-44 106q0 61 44 104t106 43q61 0 104 -43t43 -104q0 -62 -43 -106t-104 -44zM897 838h650v-838h-194l-23 182v19h-18q-68 -101 -202 -161.5t-300 -60.5q-222 0 -386 100t-250.5 283t-85.5 427q0 242 87 423t254 280t395 99q292 0 480.5 -158
t240.5 -436h-245q-47 180 -169.5 281t-306.5 101q-234 0 -366.5 -160.5t-132.5 -431.5q0 -274 137.5 -434.5t385.5 -160.5q213 0 343.5 118.5t138.5 315.5h-433v212z" />
    <glyph glyph-name="gdotaccent" unicode="&#x121;" horiz-adv-x="1280" 
d="M638 1296q-62 0 -106 43.5t-44 105.5q0 61 44 104.5t106 43.5q61 0 104 -43.5t43 -104.5q0 -62 -43 -105.5t-104 -43.5zM426 -460q-161 0 -250 105t-89 264h235q0 -175 173 -175h215q96 0 139 46.5t43 136.5v223h-19q-54 -65 -136.5 -103.5t-188.5 -38.5
q-224 0 -352.5 151t-128.5 416q0 266 129.5 416t355.5 150q105 0 187 -38.5t134 -102.5h19l19 120h212v-1193q0 -180 -105.5 -278.5t-318.5 -98.5h-273zM605 192q144 0 225.5 99t81.5 274q0 174 -81.5 273.5t-225.5 99.5q-143 0 -225 -97.5t-82 -275.5q0 -179 82 -276
t225 -97z" />
    <glyph glyph-name="uni0122" unicode="&#x122;" horiz-adv-x="1689" 
d="M897 838h650v-838h-194l-23 182v19h-18q-68 -101 -202 -161.5t-300 -60.5q-222 0 -386 100t-250.5 283t-85.5 427q0 242 87 423t254 280t395 99q292 0 480.5 -158t240.5 -436h-245q-47 180 -169.5 281t-306.5 101q-234 0 -366.5 -160.5t-132.5 -431.5
q0 -274 137.5 -434.5t385.5 -160.5q213 0 343.5 118.5t138.5 315.5h-433v212zM823 -94q43 0 75 -17t48.5 -44.5t24.5 -56t8 -57.5q0 -110 -68.5 -182t-202.5 -72h-13v85h13q74 0 119.5 31t45.5 87q0 9 -1 13q-29 -21 -65 -21q-52 0 -85 32.5t-33 82.5q0 51 36 85t98 34z" />
    <glyph glyph-name="uni0123" unicode="&#x123;" horiz-adv-x="1280" 
d="M640 1194q-43 0 -75 15t-48.5 39.5t-24.5 50t-8 51.5q0 99 68.5 163.5t202.5 64.5h13v-76h-13q-74 0 -119.5 -28t-45.5 -78q0 -8 1 -12q29 19 65 19q52 0 85 -29t33 -74t-36 -75.5t-98 -30.5zM911 1110h212v-1193q0 -180 -105.5 -278.5t-318.5 -98.5h-273
q-161 0 -250 105t-89 264h235q0 -175 173 -175h215q96 0 139 46.5t43 136.5v223h-19q-54 -65 -136.5 -103.5t-188.5 -38.5q-224 0 -352.5 151t-128.5 416q0 266 129.5 416t355.5 150q105 0 187 -38.5t134 -102.5h19zM605 192q144 0 225.5 99t81.5 274q0 174 -81.5 273.5
t-225.5 99.5q-143 0 -225 -97.5t-82 -275.5q0 -179 82 -276t225 -97z" />
    <glyph glyph-name="Hbar" unicode="&#x126;" horiz-adv-x="1620" 
d="M1541 1290v-136h-116v-1154h-239v680h-752v-680h-239v1154h-117v136h117v280h239v-280h752v280h239v-280h116zM1186 893v261h-752v-261h752z" />
    <glyph glyph-name="hbar" unicode="&#x127;" horiz-adv-x="1248" 
d="M719 1131q200 0 299.5 -117t101.5 -314v-700h-231v656q0 282 -247 282q-122 0 -187.5 -73.5t-65.5 -208.5v-656h-232v1281h-171v156h171v133h232v-133h303v-156h-303v-285h18q100 135 312 135z" />
    <glyph glyph-name="Itilde" unicode="&#x128;" horiz-adv-x="630" 
d="M460 1704q-50 0 -90 18t-65 43t-46.5 50.5t-45 43t-49.5 17.5q-41 1 -64 -41.5t-23 -119.5h-132q0 144 60.5 224t165.5 80q38 0 71 -12.5t55.5 -31.5t44.5 -41.5t39 -41.5t38 -31.5t43 -12.5q35 0 57.5 43.5t22.5 119.5h139q0 -145 -59.5 -226t-161.5 -81zM195 0v1570
h239v-1570h-239z" />
    <glyph glyph-name="itilde" unicode="&#x129;" horiz-adv-x="542" 
d="M416 1244q-50 0 -90 18t-65 43t-46.5 50.5t-45 43t-49.5 17.5q-41 1 -64 -41.5t-23 -119.5h-132q0 144 60.5 224t165.5 80q38 0 71 -12.5t55.5 -31.5t44.5 -41.5t39 -41.5t38 -31.5t43 -12.5q35 0 57.5 43.5t22.5 119.5h139q0 -145 -59.5 -226t-161.5 -81zM155 0v1110
h231v-1110h-231z" />
    <glyph glyph-name="Imacron" unicode="&#x12a;" horiz-adv-x="630" 
d="M5 1761v137h617v-137h-617zM195 0v1570h239v-1570h-239z" />
    <glyph glyph-name="imacron" unicode="&#x12b;" horiz-adv-x="542" 
d="M-39 1301v137h617v-137h-617zM155 0v1110h231v-1110h-231z" />
    <glyph glyph-name="Iogonek" unicode="&#x12e;" horiz-adv-x="630" 
d="M434 0q-82 -57 -127 -117.5t-45 -110.5t43.5 -79t128.5 -29v-143q-170 0 -260 52t-90 140q0 64 48 138.5t140 148.5h-77v1570h239v-1570z" />
    <glyph glyph-name="iogonek" unicode="&#x12f;" horiz-adv-x="542" 
d="M270 1296q-62 0 -106 43.5t-44 105.5q0 61 44 104.5t106 43.5q61 0 104 -43.5t43 -104.5q0 -62 -43 -105.5t-104 -43.5zM155 0v1110h231v-1110q-82 -57 -127 -117.5t-45 -110.5t43.5 -79t128.5 -29v-143q-170 0 -260 52t-90 140q0 64 48 138.5t140 148.5h-69z" />
    <glyph glyph-name="Idotaccent" unicode="&#x130;" horiz-adv-x="630" 
d="M314 1691q-62 0 -106 44t-44 106q0 61 44 104t106 43q61 0 104 -43t43 -104q0 -62 -43 -106t-104 -44zM195 0v1570h239v-1570h-239z" />
    <glyph glyph-name="dotlessi" unicode="&#x131;" horiz-adv-x="542" 
d="M155 0v1110h231v-1110h-231z" />
    <glyph glyph-name="IJ" unicode="&#x132;" horiz-adv-x="1860" 
d="M195 0v1570h239v-1570h-239zM1174 -21q-253 0 -385.5 132t-134.5 372h238q2 -136 76.5 -213.5t205.5 -77.5q135 0 207 85.5t72 249.5v831h-528v212h767v-1077q0 -250 -133.5 -382t-384.5 -132z" />
    <glyph glyph-name="uni0136" unicode="&#x136;" horiz-adv-x="1518" 
d="M1491 1570l-588 -595l577 -928v-47h-244l-485 802h-19l-298 -302v-500h-239v1570h239v-747h20l717 747h320zM801 -94q43 0 75 -17t48.5 -44.5t24.5 -56t8 -57.5q0 -110 -68.5 -182t-202.5 -72h-13v85h13q74 0 119.5 31t45.5 87q0 9 -1 13q-29 -21 -65 -21q-52 0 -85 32.5
t-33 82.5q0 51 36 85t98 34z" />
    <glyph glyph-name="uni0137" unicode="&#x137;" horiz-adv-x="1181" 
d="M770 697l400 -634v-63h-232l-336 540l-8 -1l-205 -212v-327h-232v1570h232v-963l6 1l463 502h299zM662 -94q43 0 75 -17t48.5 -44.5t24.5 -56t8 -57.5q0 -110 -68.5 -182t-202.5 -72h-13v85h13q74 0 119.5 31t45.5 87q0 9 -1 13q-29 -21 -65 -21q-52 0 -85 32.5t-33 82.5
q0 51 36 85t98 34z" />
    <glyph glyph-name="kgreenlandic" unicode="&#x138;" horiz-adv-x="1178" 
d="M155 0v1110h231v-503l7 1l463 502h299l-387 -413l400 -634v-63h-233l-335 540l-8 -1l-206 -212v-327h-231z" />
    <glyph glyph-name="Lacute" unicode="&#x139;" horiz-adv-x="1136" 
d="M214 1708l247 320h246l-324 -320h-169zM195 0v1570h239v-1358h687v-212h-926z" />
    <glyph glyph-name="lacute" unicode="&#x13a;" horiz-adv-x="588" 
d="M148 1710l247 320h246l-324 -320h-169zM388 0q-112 0 -178 58.5t-66 187.5v1324h232v-1271q0 -106 94 -106h86v-193h-168z" />
    <glyph glyph-name="uni013B" unicode="&#x13b;" horiz-adv-x="1136" 
d="M434 212h687v-212h-926v1570h239v-1358zM657 -94q43 0 75 -17t48.5 -44.5t24.5 -56t8 -57.5q0 -110 -68.5 -182t-202.5 -72h-13v85h13q74 0 119.5 31t45.5 87q0 9 -1 13q-29 -21 -65 -21q-52 0 -85 32.5t-33 82.5q0 51 36 85t98 34z" />
    <glyph glyph-name="uni013C" unicode="&#x13c;" horiz-adv-x="588" 
d="M470 193h86v-193h-168q-112 0 -178 58.5t-66 187.5v1324h232v-1271q0 -106 94 -106zM368 -94q43 0 75 -17t48.5 -44.5t24.5 -56t8 -57.5q0 -110 -68.5 -182t-202.5 -72h-13v85h13q74 0 119.5 31t45.5 87q0 9 -1 13q-29 -21 -65 -21q-52 0 -85 32.5t-33 82.5q0 51 36 85
t98 34z" />
    <glyph glyph-name="Lcaron" unicode="&#x13d;" horiz-adv-x="1136" 
d="M1098 1350q0 -61 -20.5 -124t-62 -123t-116.5 -101t-173 -47v127q110 8 174 76.5t64 151.5v10q-37 -23 -80 -23q-61 0 -104.5 45t-43.5 107q0 61 44.5 102.5t109.5 41.5q56 1 98 -21t65 -58.5t34 -77.5t11 -86zM434 212h687v-212h-926v1570h239v-1358z" />
    <glyph glyph-name="lcaron" unicode="&#x13e;" horiz-adv-x="588" 
d="M676 1593q56 1 98 -21t65 -58.5t34 -77.5t11 -86q0 -61 -20.5 -124t-62 -123t-116.5 -101t-173 -47v127q110 8 174 76.5t64 151.5v10q-37 -23 -80 -23q-61 0 -104.5 45t-43.5 107q0 61 44.5 102.5t109.5 41.5zM376 299q0 -106 94 -106h86v-193h-168q-112 0 -178 58.5
t-66 187.5v1324h232v-1271z" />
    <glyph glyph-name="Lslash" unicode="&#x141;" horiz-adv-x="1136" 
d="M434 212h687v-212h-926v522l-109 -76v236l109 76v812h239v-647l321 223v-234l-321 -224v-476z" />
    <glyph glyph-name="lslash" unicode="&#x142;" horiz-adv-x="588" 
d="M559 901l-183 -167v-435q0 -106 94 -106h86v-193h-168q-112 0 -178 58.5t-66 187.5v275l-126 -115v236l126 115v813h232v-602l183 167v-234z" />
    <glyph glyph-name="Nacute" unicode="&#x143;" horiz-adv-x="1620" 
d="M698 1710l247 320h246l-324 -320h-169zM195 0v1570h413l558 -1358h20v1358h238v-1570h-414l-556 1358h-20v-1358h-239z" />
    <glyph glyph-name="nacute" unicode="&#x144;" horiz-adv-x="1246" 
d="M513 1250l247 320h246l-324 -320h-169zM155 0v1110h213l18 -106h19q49 59 129 93t183 34q200 0 300.5 -117t100.5 -314v-700h-232v659q0 279 -245 279q-123 0 -189 -73.5t-66 -208.5v-656h-231z" />
    <glyph glyph-name="uni0145" unicode="&#x145;" horiz-adv-x="1620" 
d="M1186 1570h238v-1570h-414l-556 1358h-20v-1358h-239v1570h413l558 -1358h20v1358zM808 -94q43 0 75 -17t48.5 -44.5t24.5 -56t8 -57.5q0 -110 -68.5 -182t-202.5 -72h-13v85h13q74 0 119.5 31t45.5 87q0 9 -1 13q-29 -21 -65 -21q-52 0 -85 32.5t-33 82.5q0 51 36 85
t98 34z" />
    <glyph glyph-name="uni0146" unicode="&#x146;" horiz-adv-x="1246" 
d="M717 1131q200 0 300.5 -117t100.5 -314v-700h-232v659q0 279 -245 279q-123 0 -189 -73.5t-66 -208.5v-656h-231v1110h213l18 -106h19q49 59 129 93t183 34zM623 -94q43 0 75 -17t48.5 -44.5t24.5 -56t8 -57.5q0 -110 -68.5 -182t-202.5 -72h-13v85h13q74 0 119.5 31
t45.5 87q0 9 -1 13q-29 -21 -65 -21q-52 0 -85 32.5t-33 82.5q0 51 36 85t98 34z" />
    <glyph glyph-name="Ncaron" unicode="&#x147;" horiz-adv-x="1620" 
d="M887 1710h-158l-266 320h180l164 -207l168 207h180zM1186 1570h238v-1570h-414l-556 1358h-20v-1358h-239v1570h413l558 -1358h20v1358z" />
    <glyph glyph-name="ncaron" unicode="&#x148;" horiz-adv-x="1246" 
d="M702 1250h-158l-266 320h180l164 -207l168 207h180zM717 1131q200 0 300.5 -117t100.5 -314v-700h-232v659q0 279 -245 279q-123 0 -189 -73.5t-66 -208.5v-656h-231v1110h213l18 -106h19q49 59 129 93t183 34z" />
    <glyph glyph-name="Eng" unicode="&#x14a;" horiz-adv-x="1603" 
d="M810 -400v157h157q72 0 108 35.5t36 95.5q0 50 -31 112l-639 1263h-7v-1263h-239v1570h326l643 -1261h4v1261h239v-1581q0 -66 -10.5 -119.5t-40 -105t-77.5 -86.5t-127.5 -56.5t-184.5 -21.5h-157z" />
    <glyph glyph-name="eng" unicode="&#x14b;" horiz-adv-x="1246" 
d="M707 -460v194h85q94 0 94 106v816q0 282 -247 282q-121 0 -187 -73.5t-66 -208.5v-656h-231v1110h213l18 -104h20q107 125 311 125q200 0 300.5 -117t100.5 -314v-914q0 -129 -66.5 -187.5t-177.5 -58.5h-167z" />
    <glyph glyph-name="Omacron" unicode="&#x14c;" horiz-adv-x="1654" 
d="M517 1759v137h617v-137h-617zM826 -21q-345 0 -541.5 218.5t-196.5 587.5q0 370 196.5 588t541.5 218q346 0 543 -218t197 -588t-197 -588t-543 -218zM826 192q235 0 368 160.5t133 432.5t-133 433t-368 161q-234 0 -366.5 -161t-132.5 -433t132 -432.5t367 -160.5z" />
    <glyph glyph-name="omacron" unicode="&#x14d;" horiz-adv-x="1228" 
d="M305 1301v137h617v-137h-617zM614 -21q-255 0 -403 154.5t-148 424.5q0 268 148 420.5t403 152.5t403 -153t148 -420q0 -270 -148 -424.5t-403 -154.5zM614 173q147 0 233.5 102.5t86.5 282.5q0 177 -86.5 278.5t-233.5 101.5t-233 -101t-86 -279q0 -180 86 -282.5
t233 -102.5z" />
    <glyph glyph-name="Ohungarumlaut" unicode="&#x150;" horiz-adv-x="1654" 
d="M531 1708l221 320h207l-255 -320h-173zM946 1708l221 320h245l-287 -320h-179zM826 -21q-345 0 -541.5 218.5t-196.5 587.5q0 370 196.5 588t541.5 218q346 0 543 -218t197 -588t-197 -588t-543 -218zM826 192q235 0 368 160.5t133 432.5t-133 433t-368 161
q-234 0 -366.5 -161t-132.5 -433t132 -432.5t367 -160.5z" />
    <glyph glyph-name="ohungarumlaut" unicode="&#x151;" horiz-adv-x="1228" 
d="M319 1250l221 320h207l-255 -320h-173zM734 1250l221 320h245l-287 -320h-179zM614 -21q-255 0 -403 154.5t-148 424.5q0 268 148 420.5t403 152.5t403 -153t148 -420q0 -270 -148 -424.5t-403 -154.5zM614 173q147 0 233.5 102.5t86.5 282.5q0 177 -86.5 278.5
t-233.5 101.5t-233 -101t-86 -279q0 -180 86 -282.5t233 -102.5z" />
    <glyph glyph-name="OE" unicode="&#x152;" horiz-adv-x="2483" 
d="M1598 212h800v-212h-1039v186q-198 -207 -533 -207q-345 0 -541.5 218.5t-196.5 587.5q0 370 196.5 588t541.5 218q337 0 533 -207v186h993v-212h-754v-466h690v-212h-690v-468zM826 192q235 0 368 160.5t133 432.5t-133 433t-368 161q-234 0 -366.5 -161t-132.5 -433
t132 -432.5t367 -160.5z" />
    <glyph glyph-name="oe" unicode="&#x153;" horiz-adv-x="2090" 
d="M2036 565q0 -33 -2 -49h-867q10 -161 95.5 -252t222.5 -91q188 0 271 162h248q-54 -170 -189 -263t-330 -93q-287 0 -436 192q-147 -192 -435 -192q-255 0 -403 154.5t-148 424.5q0 268 148 420.5t403 152.5q291 0 438 -194q73 93 183.5 143.5t249.5 50.5
q250 0 399.5 -156t151.5 -410zM614 173q147 0 233.5 102.5t86.5 282.5q0 177 -86.5 278.5t-233.5 101.5t-233 -101t-86 -279q0 -180 86 -282.5t233 -102.5zM1485 938q-118 0 -198 -67t-108 -188h612q-27 122 -107 188.5t-199 66.5z" />
    <glyph glyph-name="Racute" unicode="&#x154;" horiz-adv-x="1359" 
d="M1069 2030l-324 -320h-169l247 320h246zM930 671l389 -623v-48h-244l-399 663h-242v-663h-239v1570h531q241 0 366 -118.5t125 -333.5q0 -166 -74 -274.5t-213 -152.5v-20zM434 1358v-483h254q290 0 290 247q0 127 -73 181.5t-217 54.5h-254z" />
    <glyph glyph-name="racute" unicode="&#x155;" horiz-adv-x="742" 
d="M299 1250l247 320h246l-324 -320h-169zM155 0v1110h213l18 -127h20q62 127 204 127h133v-210h-150q-103 0 -155 -51t-52 -166v-683h-231z" />
    <glyph glyph-name="uni0156" unicode="&#x156;" horiz-adv-x="1359" 
d="M930 671l389 -623v-48h-244l-399 663h-242v-663h-239v1570h531q241 0 366 -118.5t125 -333.5q0 -166 -74 -274.5t-213 -152.5v-20zM434 1358v-483h254q290 0 290 247q0 127 -73 181.5t-217 54.5h-254zM686 -94q43 0 75 -17t48.5 -44.5t24.5 -56t8 -57.5
q0 -110 -68.5 -182t-202.5 -72h-13v85h13q74 0 119.5 31t45.5 87q0 9 -1 13q-29 -21 -65 -21q-52 0 -85 32.5t-33 82.5q0 51 36 85t98 34z" />
    <glyph glyph-name="uni0157" unicode="&#x157;" horiz-adv-x="742" 
d="M610 1110h133v-210h-150q-103 0 -155 -51t-52 -166v-683h-231v1110h213l18 -127h20q62 127 204 127zM401 -94q43 0 75 -17t48.5 -44.5t24.5 -56t8 -57.5q0 -110 -68.5 -182t-202.5 -72h-13v85h13q74 0 119.5 31t45.5 87q0 9 -1 13q-29 -21 -65 -21q-52 0 -85 32.5
t-33 82.5q0 51 36 85t98 34z" />
    <glyph glyph-name="Rcaron" unicode="&#x158;" horiz-adv-x="1359" 
d="M765 1710h-158l-266 320h180l164 -207l168 207h180zM930 671l389 -623v-48h-244l-399 663h-242v-663h-239v1570h531q241 0 366 -118.5t125 -333.5q0 -166 -74 -274.5t-213 -152.5v-20zM434 1358v-483h254q290 0 290 247q0 127 -73 181.5t-217 54.5h-254z" />
    <glyph glyph-name="rcaron" unicode="&#x159;" horiz-adv-x="742" 
d="M488 1250h-158l-266 320h180l164 -207l168 207h180zM406 983q62 127 204 127h133v-210h-150q-103 0 -155 -51t-52 -166v-683h-231v1110h213l18 -127h20z" />
    <glyph glyph-name="Sacute" unicode="&#x15a;" horiz-adv-x="1245" 
d="M502 1710l247 320h246l-324 -320h-169zM639 -17q-258 0 -413 155t-155 435h245q0 -185 80.5 -281.5t242.5 -96.5q133 0 206.5 66.5t73.5 171.5q0 61 -26.5 109t-71.5 80.5t-103 59.5t-122 50.5t-128 49t-122 60t-103 78t-71.5 108t-26.5 145.5q0 192 136.5 305t337.5 113
q99 0 186.5 -29t158 -86.5t112.5 -152.5t44 -216h-239q0 135 -74 203.5t-188 68.5q-102 0 -168.5 -55.5t-66.5 -140.5q0 -53 26.5 -95.5t71.5 -72.5t103 -56t122 -50t128 -51t122 -63.5t103 -82t71.5 -112t26.5 -148.5q0 -210 -141.5 -339.5t-377.5 -129.5z" />
    <glyph glyph-name="sacute" unicode="&#x15b;" horiz-adv-x="1003" 
d="M348 1250l247 320h246l-324 -320h-169zM504 -21q-201 0 -317 97.5t-119 258.5h230q2 -72 54 -117t152 -45q97 0 147.5 41t50.5 105q0 44 -26 75.5t-68.5 48t-97 33t-111.5 28.5t-111.5 36t-97 55.5t-68.5 86.5t-26 129q0 153 103 236.5t282 83.5q191 0 306.5 -93
t123.5 -259h-220q-8 88 -62 129t-142 41q-82 0 -126.5 -33t-44.5 -91q0 -48 33.5 -80t87.5 -50t119.5 -33.5t130.5 -38.5t119 -56t87.5 -94t33.5 -146q0 -160 -112.5 -254t-310.5 -94z" />
    <glyph glyph-name="Scedilla" unicode="&#x15e;" horiz-adv-x="1245" 
d="M1158 452q0 -195 -122.5 -321t-330.5 -145l-67 -93q31 -3 60 -13q53 -21 84.5 -64t31.5 -100q0 -85 -64 -141.5t-159 -56.5q-117 0 -220 85l63 102q78 -73 164 -73q46 0 73 23.5t27 58.5q0 64 -83 88q-46 14 -130 14l104 169q-237 15 -377.5 168.5t-140.5 419.5h245
q0 -185 80.5 -281.5t242.5 -96.5q133 0 206.5 66.5t73.5 171.5q0 61 -26.5 109t-71.5 80.5t-103 59.5t-122 50.5t-128 49t-122 60t-103 78t-71.5 108t-26.5 145.5q0 192 136.5 305t337.5 113q99 0 186.5 -29t158 -86.5t112.5 -152.5t44 -216h-239q0 135 -74 203.5t-188 68.5
q-102 0 -168.5 -55.5t-66.5 -140.5q0 -53 26.5 -95.5t71.5 -72.5t103 -56t122 -50t128 -51t122 -63.5t103 -82t71.5 -112t26.5 -148.5z" />
    <glyph glyph-name="scedilla" unicode="&#x15f;" horiz-adv-x="1003" 
d="M927 327q0 -147 -95.5 -239t-266.5 -107l-64 -88q31 -3 60 -13q53 -21 84.5 -64t31.5 -100q0 -85 -64 -141.5t-159 -56.5q-117 0 -220 85l63 102q78 -73 164 -73q46 0 73 23.5t27 58.5q0 64 -83 88q-46 14 -130 14l102 165q-177 13 -278 109t-104 245h230q2 -72 54 -117
t152 -45q97 0 147.5 41t50.5 105q0 44 -26 75.5t-68.5 48t-97 33t-111.5 28.5t-111.5 36t-97 55.5t-68.5 86.5t-26 129q0 153 103 236.5t282 83.5q191 0 306.5 -93t123.5 -259h-220q-8 88 -62 129t-142 41q-82 0 -126.5 -33t-44.5 -91q0 -48 33.5 -80t87.5 -50t119.5 -33.5
t130.5 -38.5t119 -56t87.5 -94t33.5 -146z" />
    <glyph glyph-name="Scaron" unicode="&#x160;" horiz-adv-x="1245" 
d="M691 1710h-158l-266 320h180l164 -207l168 207h180zM384 1183q0 -53 26.5 -95.5t71.5 -72.5t103 -56t122 -50t128 -51t122 -63.5t103 -82t71.5 -112t26.5 -148.5q0 -210 -141.5 -339.5t-377.5 -129.5q-258 0 -413 155t-155 435h245q0 -185 80.5 -281.5t242.5 -96.5
q133 0 206.5 66.5t73.5 171.5q0 61 -26.5 109t-71.5 80.5t-103 59.5t-122 50.5t-128 49t-122 60t-103 78t-71.5 108t-26.5 145.5q0 192 136.5 305t337.5 113q99 0 186.5 -29t158 -86.5t112.5 -152.5t44 -216h-239q0 135 -74 203.5t-188 68.5q-102 0 -168.5 -55.5
t-66.5 -140.5z" />
    <glyph glyph-name="scaron" unicode="&#x161;" horiz-adv-x="1003" 
d="M537 1250h-158l-266 320h180l164 -207l168 207h180zM316 825q0 -48 33.5 -80t87.5 -50t119.5 -33.5t130.5 -38.5t119 -56t87.5 -94t33.5 -146q0 -160 -112.5 -254t-310.5 -94q-201 0 -317 97.5t-119 258.5h230q2 -72 54 -117t152 -45q97 0 147.5 41t50.5 105
q0 44 -26 75.5t-68.5 48t-97 33t-111.5 28.5t-111.5 36t-97 55.5t-68.5 86.5t-26 129q0 153 103 236.5t282 83.5q191 0 306.5 -93t123.5 -259h-220q-8 88 -62 129t-142 41q-82 0 -126.5 -33t-44.5 -91z" />
    <glyph glyph-name="uni0162" unicode="&#x162;" horiz-adv-x="1288" 
d="M764 0h-63l-77 -107q31 -3 60 -13q53 -21 84.5 -64t31.5 -100q0 -85 -64 -141.5t-159 -56.5q-117 0 -220 85l63 102q78 -73 164 -73q46 0 73 23.5t27 58.5q0 64 -83 88q-46 14 -130 14l114 184h-60v1358h-511v212h1260v-212h-510v-1358z" />
    <glyph glyph-name="uni0163" unicode="&#x163;" horiz-adv-x="737" 
d="M677 936h-250v-637q0 -106 94 -106h156v-193h-137l-77 -107q31 -3 60 -13q53 -21 84.5 -64t31.5 -100q0 -85 -64 -141.5t-159 -56.5q-117 0 -220 85l63 102q78 -73 164 -73q46 0 73 23.5t27 58.5q0 64 -83 88q-46 14 -130 14l114 184h15q-112 0 -178 58.5t-66 187.5v690
h-179v174h179v346h232v-346h250v-174z" />
    <glyph glyph-name="Tcaron" unicode="&#x164;" horiz-adv-x="1288" 
d="M722 1710h-158l-266 320h180l164 -207l168 207h180zM14 1570h1260v-212h-510v-1358h-239v1358h-511v212z" />
    <glyph glyph-name="tcaron" unicode="&#x165;" horiz-adv-x="737" 
d="M713 1874q56 1 98 -21t65 -58.5t34 -77.5t11 -86q0 -61 -20.5 -124t-62 -123t-116.5 -101t-173 -47v127q110 8 174 76.5t64 151.5v10q-37 -23 -80 -23q-61 0 -104.5 45t-43.5 107q0 61 44.5 102.5t109.5 41.5zM427 1456v-346h250v-174h-250v-637q0 -106 94 -106h156v-193
h-238q-112 0 -178 58.5t-66 187.5v690h-179v174h179v346h232z" />
    <glyph glyph-name="Tbar" unicode="&#x166;" horiz-adv-x="1288" 
d="M1274 1358h-510v-495h233v-156h-233v-707h-239v707h-234v156h234v495h-511v212h1260v-212z" />
    <glyph glyph-name="tbar" unicode="&#x167;" horiz-adv-x="841" 
d="M715 190l38 -184q-83 -27 -178 -27q-163 0 -249 92t-86 237v169h-179v156h179v284h-179v193h183v285l228 165v-450h250v-193h-250v-284h250v-156h-250v-138q0 -166 142 -166q46 0 101 17z" />
    <glyph glyph-name="Utilde" unicode="&#x168;" horiz-adv-x="1500" 
d="M893 1704q-50 0 -90 18t-65 43t-46.5 50.5t-45 43t-49.5 17.5q-41 1 -64 -41.5t-23 -119.5h-132q0 144 60.5 224t165.5 80q38 0 71 -12.5t55.5 -31.5t44.5 -41.5t39 -41.5t38 -31.5t43 -12.5q35 0 57.5 43.5t22.5 119.5h139q0 -145 -59.5 -226t-161.5 -81zM749 -21
q-287 0 -437 149.5t-150 438.5v1003h239v-996q0 -188 88.5 -285t259.5 -97q172 0 261 97.5t89 286.5v994h239v-1001q0 -289 -150 -439.5t-439 -150.5z" />
    <glyph glyph-name="utilde" unicode="&#x169;" horiz-adv-x="1244" 
d="M767 1244q-50 0 -90 18t-65 43t-46.5 50.5t-45 43t-49.5 17.5q-41 1 -64 -41.5t-23 -119.5h-132q0 144 60.5 224t165.5 80q38 0 71 -12.5t55.5 -31.5t44.5 -41.5t39 -41.5t38 -31.5t43 -12.5q35 0 57.5 43.5t22.5 119.5h139q0 -145 -59.5 -226t-161.5 -81zM527 -21
q-200 0 -300.5 117.5t-100.5 314.5v699h232v-656q0 -281 245 -281q123 0 189 73t66 208v656h231v-1110h-213l-18 107h-19q-49 -60 -129 -94t-183 -34z" />
    <glyph glyph-name="Umacron" unicode="&#x16a;" horiz-adv-x="1500" 
d="M438 1761v137h617v-137h-617zM749 -21q-287 0 -437 149.5t-150 438.5v1003h239v-996q0 -188 88.5 -285t259.5 -97q172 0 261 97.5t89 286.5v994h239v-1001q0 -289 -150 -439.5t-439 -150.5z" />
    <glyph glyph-name="umacron" unicode="&#x16b;" horiz-adv-x="1244" 
d="M312 1301v137h617v-137h-617zM527 -21q-200 0 -300.5 117.5t-100.5 314.5v699h232v-656q0 -281 245 -281q123 0 189 73t66 208v656h231v-1110h-213l-18 107h-19q-49 -60 -129 -94t-183 -34z" />
    <glyph glyph-name="Uring" unicode="&#x16e;" horiz-adv-x="1500" 
d="M745 1657q-101 0 -171.5 72t-70.5 172t70.5 170.5t171.5 70.5q100 0 171.5 -70t71.5 -171q0 -102 -70.5 -173t-172.5 -71zM745 1782q51 0 84.5 34.5t33.5 86.5q0 50 -32 82t-86 32q-51 0 -83.5 -32.5t-32.5 -81.5q0 -52 33 -86.5t83 -34.5zM749 -21q-287 0 -437 149.5
t-150 438.5v1003h239v-996q0 -188 88.5 -285t259.5 -97q172 0 261 97.5t89 286.5v994h239v-1001q0 -289 -150 -439.5t-439 -150.5z" />
    <glyph glyph-name="uring" unicode="&#x16f;" horiz-adv-x="1244" 
d="M619 1197q-101 0 -171.5 72t-70.5 172t70.5 170.5t171.5 70.5q100 0 171.5 -70t71.5 -171q0 -102 -70.5 -173t-172.5 -71zM619 1322q51 0 84.5 34.5t33.5 86.5q0 50 -32 82t-86 32q-51 0 -83.5 -32.5t-32.5 -81.5q0 -52 33 -86.5t83 -34.5zM527 -21q-200 0 -300.5 117.5
t-100.5 314.5v699h232v-656q0 -281 245 -281q123 0 189 73t66 208v656h231v-1110h-213l-18 107h-19q-49 -60 -129 -94t-183 -34z" />
    <glyph glyph-name="Uhungarumlaut" unicode="&#x170;" horiz-adv-x="1500" 
d="M452 1710l221 320h207l-255 -320h-173zM867 1710l221 320h245l-287 -320h-179zM749 -21q-287 0 -437 149.5t-150 438.5v1003h239v-996q0 -188 88.5 -285t259.5 -97q172 0 261 97.5t89 286.5v994h239v-1001q0 -289 -150 -439.5t-439 -150.5z" />
    <glyph glyph-name="uhungarumlaut" unicode="&#x171;" horiz-adv-x="1244" 
d="M326 1250l221 320h207l-255 -320h-173zM741 1250l221 320h245l-287 -320h-179zM527 -21q-200 0 -300.5 117.5t-100.5 314.5v699h232v-656q0 -281 245 -281q123 0 189 73t66 208v656h231v-1110h-213l-18 107h-19q-49 -60 -129 -94t-183 -34z" />
    <glyph glyph-name="Uogonek" unicode="&#x172;" horiz-adv-x="1500" 
d="M1099 1570h239v-1001q0 -387 -265 -523q-78 -55 -121 -114.5t-43 -107.5q0 -50 43.5 -79t128.5 -29v-143q-170 0 -260 52t-90 140q0 102 112 218q-40 -4 -94 -4q-287 0 -437 149.5t-150 438.5v1003h239v-996q0 -188 88.5 -285t259.5 -97q172 0 261 97.5t89 286.5v994z
" />
    <glyph glyph-name="uogonek" unicode="&#x173;" horiz-adv-x="1244" 
d="M1089 0q-82 -57 -127 -117.5t-45 -110.5t43.5 -79t128.5 -29v-143q-170 0 -260 52t-90 140q0 64 48 138.5t140 148.5h-51l-18 107h-19q-49 -60 -129 -94t-183 -34q-200 0 -300.5 117.5t-100.5 314.5v699h232v-656q0 -281 245 -281q123 0 189 73t66 208v656h231v-1110z
" />
    <glyph glyph-name="Wcircumflex" unicode="&#x174;" horiz-adv-x="2263" 
d="M1128 1911l-145 -202h-199l247 320h196l249 -320h-200zM2001 1570h240v-49l-550 -1521h-328l-223 1376h-20l-221 -1376h-327l-552 1521v49h242l437 -1279h21l204 1279h414l211 -1279h20z" />
    <glyph glyph-name="wcircumflex" unicode="&#x175;" horiz-adv-x="1864" 
d="M930 1451l-145 -202h-199l247 320h196l249 -320h-200zM1618 1110h249l-397 -1110h-342l-186 889h-18l-187 -889h-343l-396 1110h250l307 -915h20l195 915h326l193 -915h20z" />
    <glyph glyph-name="Ycircumflex" unicode="&#x176;" horiz-adv-x="1379" 
d="M686 1911l-145 -202h-199l247 320h196l249 -320h-200zM1126 1570h251v-45l-568 -940v-585h-239v585l-568 940v45h252l427 -741h17z" />
    <glyph glyph-name="ycircumflex" unicode="&#x177;" horiz-adv-x="1126" 
d="M560 1451l-145 -202h-199l247 320h196l249 -320h-200zM881 1110h249l-396 -1110l-103 -267q-31 -77 -60.5 -115.5t-82 -58t-142.5 -19.5h-254v194h211q36 0 60 6.5t39.5 23.5t24 33t20.5 48l56 155h-111l-397 1110h251l308 -918h18z" />
    <glyph glyph-name="Ydieresis" unicode="&#x178;" horiz-adv-x="1379" 
d="M475 1691q-62 0 -106 44t-44 106q0 61 44 104t106 43q61 0 104 -43t43 -104q0 -62 -43 -106t-104 -44zM906 1691q-62 0 -106 44t-44 106q0 61 44 104t106 43q61 0 104.5 -43t43.5 -104q0 -62 -43.5 -106t-104.5 -44zM570 0v585l-568 940v45h252l427 -741h17l428 741h251
v-45l-568 -940v-585h-239z" />
    <glyph glyph-name="Zacute" unicode="&#x179;" horiz-adv-x="1361" 
d="M569 1710l247 320h246l-324 -320h-169zM72 0v291l949 1047v20h-915v212h1154v-294l-949 -1048v-16h980v-212h-1219z" />
    <glyph glyph-name="zacute" unicode="&#x17a;" horiz-adv-x="1076" 
d="M424 1250l247 320h246l-324 -320h-169zM70 0v281l684 615v21h-658v193h889v-282l-683 -615v-20h700v-193h-932z" />
    <glyph glyph-name="Zdotaccent" unicode="&#x17b;" horiz-adv-x="1361" 
d="M681 1691q-62 0 -106 44t-44 106q0 61 44 104t106 43q61 0 104 -43t43 -104q0 -62 -43 -106t-104 -44zM72 0v291l949 1047v20h-915v212h1154v-294l-949 -1048v-16h980v-212h-1219z" />
    <glyph glyph-name="zdotaccent" unicode="&#x17c;" horiz-adv-x="1076" 
d="M536 1296q-62 0 -106 43.5t-44 105.5q0 61 44 104.5t106 43.5q61 0 104 -43.5t43 -104.5q0 -62 -43 -105.5t-104 -43.5zM70 0v281l684 615v21h-658v193h889v-282l-683 -615v-20h700v-193h-932z" />
    <glyph glyph-name="Zcaron" unicode="&#x17d;" horiz-adv-x="1361" 
d="M758 1710h-158l-266 320h180l164 -207l168 207h180zM311 212h980v-212h-1219v291l949 1047v20h-915v212h1154v-294l-949 -1048v-16z" />
    <glyph glyph-name="zcaron" unicode="&#x17e;" horiz-adv-x="1076" 
d="M613 1250h-158l-266 320h180l164 -207l168 207h180zM302 193h700v-193h-932v281l684 615v21h-658v193h889v-282l-683 -615v-20z" />
    <glyph glyph-name="florin" unicode="&#x192;" horiz-adv-x="1013" 
d="M73 -492v175q167 0 232.5 69t65.5 251v935h-197v172h197v141q0 154 92 253.5t228 99.5q134 0 265 -111l-125 -147q-43 37 -72 51t-68 14q-54 0 -90.5 -40.5t-36.5 -119.5v-141h271v-172h-271v-954q0 -244 -124.5 -360t-366.5 -116z" />
    <glyph glyph-name="uni01C4" unicode="&#x1c4;" horiz-adv-x="2942" 
d="M2339 1710h-158l-266 320h180l164 -207l168 207h180zM716 1570q393 0 602 -205t209 -591q0 -375 -210.5 -574.5t-603.5 -199.5h-518v1570h521zM1892 212h980v-212h-1219v291l949 1047v20h-915v212h1154v-294l-949 -1048v-16zM691 212q289 0 443 147.5t154 423.5
q0 279 -148.5 427t-427.5 148h-278v-1146h257z" />
    <glyph glyph-name="uni01C5" unicode="&#x1c5;" horiz-adv-x="2694" 
d="M716 1570q393 0 602 -205t209 -591q0 -375 -210.5 -574.5t-603.5 -199.5h-518v1570h521zM2231 1250h-158l-266 320h180l164 -207l168 207h180zM691 212q289 0 443 147.5t154 423.5q0 279 -148.5 427t-427.5 148h-278v-1146h257zM1920 193h700v-193h-932v281l684 615v21
h-658v193h889v-282l-683 -615v-20z" />
    <glyph glyph-name="uni01C6" unicode="&#x1c6;" horiz-adv-x="2373" 
d="M910 989v581h231v-1570h-199l-32 121h-19q-53 -65 -136 -103.5t-189 -38.5q-222 0 -351.5 154.5t-129.5 422.5q0 267 130 421t355 154q106 0 187.5 -38.5t133.5 -103.5h19zM1910 1250h-158l-266 320h180l164 -207l168 207h180zM1599 193h700v-193h-932v281l684 615v21
h-658v193h889v-282l-683 -615v-20zM623 173q143 0 225.5 101t82.5 282q0 179 -83 280.5t-225 101.5t-224.5 -101.5t-82.5 -280.5q0 -181 82.5 -282t224.5 -101z" />
    <glyph glyph-name="uni01C7" unicode="&#x1c7;" horiz-adv-x="2407" 
d="M195 0v1570h239v-1358h687v-212h-926zM1721 -21q-253 0 -385.5 132t-134.5 372h238q2 -136 76.5 -213.5t205.5 -77.5q135 0 207 85.5t72 249.5v831h-528v212h767v-1077q0 -250 -133.5 -382t-384.5 -132z" />
    <glyph glyph-name="uni01C8" unicode="&#x1c8;" horiz-adv-x="1681" 
d="M1409 1296q-62 0 -106 43.5t-44 105.5q0 61 44 104.5t106 43.5q61 0 104 -43.5t43 -104.5q0 -62 -43 -105.5t-104 -43.5zM195 0v1570h239v-1358h687v-212h-926zM1280 -460h-167v194h86q94 0 94 106v1270h231v-1324q0 -129 -66 -187.5t-178 -58.5z" />
    <glyph glyph-name="uni01C9" unicode="&#x1c9;" horiz-adv-x="1133" 
d="M861 1296q-62 0 -106 43.5t-44 105.5q0 61 44 104.5t106 43.5q61 0 104 -43.5t43 -104.5q0 -62 -43 -105.5t-104 -43.5zM388 0q-112 0 -178 58.5t-66 187.5v1324h232v-1271q0 -106 94 -106h86v-193h-168zM732 -460h-167v194h86q94 0 94 106v1270h231v-1324
q0 -129 -66 -187.5t-178 -58.5z" />
    <glyph glyph-name="uni01CA" unicode="&#x1ca;" horiz-adv-x="2850" 
d="M195 0v1570h413l558 -1358h20v1358h238v-1570h-414l-556 1358h-20v-1358h-239zM2164 -21q-253 0 -385.5 132t-134.5 372h238q2 -136 76.5 -213.5t205.5 -77.5q135 0 207 85.5t72 249.5v831h-528v212h767v-1077q0 -250 -133.5 -382t-384.5 -132z" />
    <glyph glyph-name="uni01CB" unicode="&#x1cb;" horiz-adv-x="2165" 
d="M1893 1296q-62 0 -106 43.5t-44 105.5q0 61 44 104.5t106 43.5q61 0 104 -43.5t43 -104.5q0 -62 -43 -105.5t-104 -43.5zM195 0v1570h413l558 -1358h20v1358h238v-1570h-414l-556 1358h-20v-1358h-239zM1764 -460h-167v194h86q94 0 94 106v1270h231v-1324
q0 -129 -66 -187.5t-178 -58.5z" />
    <glyph glyph-name="uni01CC" unicode="&#x1cc;" horiz-adv-x="1791" 
d="M1519 1296q-62 0 -106 43.5t-44 105.5q0 61 44 104.5t106 43.5q61 0 104 -43.5t43 -104.5q0 -62 -43 -105.5t-104 -43.5zM155 0v1110h213l18 -106h19q49 59 129 93t183 34q200 0 300.5 -117t100.5 -314v-700h-232v659q0 279 -245 279q-123 0 -189 -73.5t-66 -208.5v-656
h-231zM1390 -460h-167v194h86q94 0 94 106v1270h231v-1324q0 -129 -66 -187.5t-178 -58.5z" />
    <glyph glyph-name="uni01CD" unicode="&#x1cd;" horiz-adv-x="1412" 
d="M783 1710h-158l-266 320h180l164 -207l168 207h180zM842 1570l550 -1525v-45h-241l-118 350h-651l-120 -350h-242v45l552 1525h270zM454 562h507l-242 719h-19z" />
    <glyph glyph-name="uni01CE" unicode="&#x1ce;" horiz-adv-x="1173" 
d="M651 1250h-158l-266 320h180l164 -207l168 207h180zM569 1131q233 0 355.5 -107.5t122.5 -321.5v-702h-214l-17 115h-20q-47 -62 -107 -91q-82 -45 -202 -45q-199 0 -309 97t-110 266q0 91 31.5 158.5t88 106.5t128 57.5t159.5 18.5h341v43q0 102 -64 157t-183 55
q-104 0 -164.5 -41t-69.5 -118h-233q9 150 132.5 251t334.5 101zM741 248q48 48 65.5 113.5t18.5 154.5h-337q-89 0 -137 -46t-48 -128q0 -83 54 -131t158 -48q141 0 226 85z" />
    <glyph glyph-name="uni01CF" unicode="&#x1cf;" horiz-adv-x="630" 
d="M391 1710h-158l-266 320h180l164 -207l168 207h180zM195 0v1570h239v-1570h-239z" />
    <glyph glyph-name="uni01D0" unicode="&#x1d0;" horiz-adv-x="542" 
d="M347 1250h-158l-266 320h180l164 -207l168 207h180zM155 0v1110h231v-1110h-231z" />
    <glyph glyph-name="uni01D1" unicode="&#x1d1;" horiz-adv-x="1654" 
d="M903 1708h-158l-266 320h180l164 -207l168 207h180zM826 1591q346 0 543 -218t197 -588t-197 -588t-543 -218q-345 0 -541.5 218.5t-196.5 587.5q0 370 196.5 588t541.5 218zM826 192q235 0 368 160.5t133 432.5t-133 433t-368 161q-234 0 -366.5 -161t-132.5 -433
t132 -432.5t367 -160.5z" />
    <glyph glyph-name="uni01D2" unicode="&#x1d2;" horiz-adv-x="1228" 
d="M691 1250h-158l-266 320h180l164 -207l168 207h180zM614 1131q255 0 403 -153t148 -420q0 -270 -148 -424.5t-403 -154.5t-403 154.5t-148 424.5q0 268 148 420.5t403 152.5zM614 173q147 0 233.5 102.5t86.5 282.5q0 177 -86.5 278.5t-233.5 101.5t-233 -101t-86 -279
q0 -180 86 -282.5t233 -102.5z" />
    <glyph glyph-name="uni01D3" unicode="&#x1d3;" horiz-adv-x="1500" 
d="M824 1710h-158l-266 320h180l164 -207l168 207h180zM1099 1570h239v-1001q0 -289 -150 -439.5t-439 -150.5q-287 0 -437 149.5t-150 438.5v1003h239v-996q0 -188 88.5 -285t259.5 -97q172 0 261 97.5t89 286.5v994z" />
    <glyph glyph-name="uni01D4" unicode="&#x1d4;" horiz-adv-x="1244" 
d="M698 1250h-158l-266 320h180l164 -207l168 207h180zM858 1110h231v-1110h-213l-18 107h-19q-49 -60 -129 -94t-183 -34q-200 0 -300.5 117.5t-100.5 314.5v699h232v-656q0 -281 245 -281q123 0 189 73t66 208v656z" />
    <glyph glyph-name="uni01D5" unicode="&#x1d5;" horiz-adv-x="1500" 
d="M438 2179v137h617v-137h-617zM533 1691q-62 0 -106 44t-44 106q0 61 44 104t106 43q61 0 104 -43t43 -104q0 -62 -43 -106t-104 -44zM964 1691q-62 0 -106 44t-44 106q0 61 44 104t106 43q61 0 104.5 -43t43.5 -104q0 -62 -43.5 -106t-104.5 -44zM749 -21
q-287 0 -437 149.5t-150 438.5v1003h239v-996q0 -188 88.5 -285t259.5 -97q172 0 261 97.5t89 286.5v994h239v-1001q0 -289 -150 -439.5t-439 -150.5z" />
    <glyph glyph-name="uni01D6" unicode="&#x1d6;" horiz-adv-x="1244" 
d="M312 1784v137h617v-137h-617zM407 1296q-62 0 -106 43.5t-44 105.5q0 61 44 104.5t106 43.5q61 0 104 -43.5t43 -104.5q0 -62 -43 -105.5t-104 -43.5zM838 1296q-62 0 -106 43.5t-44 105.5q0 61 44 104.5t106 43.5q61 0 104.5 -43.5t43.5 -104.5q0 -62 -43.5 -105.5
t-104.5 -43.5zM527 -21q-200 0 -300.5 117.5t-100.5 314.5v699h232v-656q0 -281 245 -281q123 0 189 73t66 208v656h231v-1110h-213l-18 107h-19q-49 -60 -129 -94t-183 -34z" />
    <glyph glyph-name="uni01D7" unicode="&#x1d7;" horiz-adv-x="1500" 
d="M635 2128l247 320h246l-324 -320h-169zM533 1691q-62 0 -106 44t-44 106q0 61 44 104t106 43q61 0 104 -43t43 -104q0 -62 -43 -106t-104 -44zM964 1691q-62 0 -106 44t-44 106q0 61 44 104t106 43q61 0 104.5 -43t43.5 -104q0 -62 -43.5 -106t-104.5 -44zM749 -21
q-287 0 -437 149.5t-150 438.5v1003h239v-996q0 -188 88.5 -285t259.5 -97q172 0 261 97.5t89 286.5v994h239v-1001q0 -289 -150 -439.5t-439 -150.5z" />
    <glyph glyph-name="uni01D8" unicode="&#x1d8;" horiz-adv-x="1244" 
d="M509 1733l247 320h246l-324 -320h-169zM407 1296q-62 0 -106 43.5t-44 105.5q0 61 44 104.5t106 43.5q61 0 104 -43.5t43 -104.5q0 -62 -43 -105.5t-104 -43.5zM838 1296q-62 0 -106 43.5t-44 105.5q0 61 44 104.5t106 43.5q61 0 104.5 -43.5t43.5 -104.5
q0 -62 -43.5 -105.5t-104.5 -43.5zM527 -21q-200 0 -300.5 117.5t-100.5 314.5v699h232v-656q0 -281 245 -281q123 0 189 73t66 208v656h231v-1110h-213l-18 107h-19q-49 -60 -129 -94t-183 -34z" />
    <glyph glyph-name="uni01D9" unicode="&#x1d9;" horiz-adv-x="1500" 
d="M824 2128h-158l-266 320h180l164 -207l168 207h180zM533 1691q-62 0 -106 44t-44 106q0 61 44 104t106 43q61 0 104 -43t43 -104q0 -62 -43 -106t-104 -44zM964 1988q61 0 104.5 -43t43.5 -104q0 -62 -43.5 -106t-104.5 -44q-62 0 -106 44t-44 106q0 61 44 104t106 43z
M1099 1570h239v-1001q0 -289 -150 -439.5t-439 -150.5q-287 0 -437 149.5t-150 438.5v1003h239v-996q0 -188 88.5 -285t259.5 -97q172 0 261 97.5t89 286.5v994z" />
    <glyph glyph-name="uni01DA" unicode="&#x1da;" horiz-adv-x="1244" 
d="M698 1733h-158l-266 320h180l164 -207l168 207h180zM407 1296q-62 0 -106 43.5t-44 105.5q0 61 44 104.5t106 43.5q61 0 104 -43.5t43 -104.5q0 -62 -43 -105.5t-104 -43.5zM838 1593q61 0 104.5 -43.5t43.5 -104.5q0 -62 -43.5 -105.5t-104.5 -43.5q-62 0 -106 43.5
t-44 105.5q0 61 44 104.5t106 43.5zM858 1110h231v-1110h-213l-18 107h-19q-49 -60 -129 -94t-183 -34q-200 0 -300.5 117.5t-100.5 314.5v699h232v-656q0 -281 245 -281q123 0 189 73t66 208v656z" />
    <glyph glyph-name="uni01DB" unicode="&#x1db;" horiz-adv-x="1500" 
d="M660 2128l-305 320h246l234 -320h-175zM533 1691q-62 0 -106 44t-44 106q0 61 44 104t106 43q61 0 104 -43t43 -104q0 -62 -43 -106t-104 -44zM964 1691q-62 0 -106 44t-44 106q0 61 44 104t106 43q61 0 104.5 -43t43.5 -104q0 -62 -43.5 -106t-104.5 -44zM749 -21
q-287 0 -437 149.5t-150 438.5v1003h239v-996q0 -188 88.5 -285t259.5 -97q172 0 261 97.5t89 286.5v994h239v-1001q0 -289 -150 -439.5t-439 -150.5z" />
    <glyph glyph-name="uni01DC" unicode="&#x1dc;" horiz-adv-x="1244" 
d="M534 1733l-305 320h246l234 -320h-175zM407 1296q-62 0 -106 43.5t-44 105.5q0 61 44 104.5t106 43.5q61 0 104 -43.5t43 -104.5q0 -62 -43 -105.5t-104 -43.5zM838 1296q-62 0 -106 43.5t-44 105.5q0 61 44 104.5t106 43.5q61 0 104.5 -43.5t43.5 -104.5
q0 -62 -43.5 -105.5t-104.5 -43.5zM527 -21q-200 0 -300.5 117.5t-100.5 314.5v699h232v-656q0 -281 245 -281q123 0 189 73t66 208v656h231v-1110h-213l-18 107h-19q-49 -60 -129 -94t-183 -34z" />
    <glyph glyph-name="uni01EB" unicode="&#x1eb;" horiz-adv-x="1228" 
d="M752 -8q-77 -55 -119 -113.5t-42 -106.5q0 -50 43.5 -79t128.5 -29v-143q-170 0 -260 52t-90 140q0 125 164 267q-239 11 -376.5 164.5t-137.5 413.5q0 268 148 420.5t403 152.5t403 -153t148 -420q0 -231 -109.5 -378.5t-303.5 -187.5zM295 558q0 -180 86 -282.5
t233 -102.5t233.5 102.5t86.5 282.5q0 177 -86.5 278.5t-233.5 101.5t-233 -101t-86 -279z" />
    <glyph glyph-name="uni01F1" unicode="&#x1f1;" horiz-adv-x="2942" 
d="M195 0v1570h521q393 0 602 -205t209 -591q0 -375 -210.5 -574.5t-603.5 -199.5h-518zM1653 0v291l949 1047v20h-915v212h1154v-294l-949 -1048v-16h980v-212h-1219zM434 212h257q289 0 443 147.5t154 423.5q0 279 -148.5 427t-427.5 148h-278v-1146z" />
    <glyph glyph-name="uni01F2" unicode="&#x1f2;" horiz-adv-x="2694" 
d="M195 0v1570h521q393 0 602 -205t209 -591q0 -375 -210.5 -574.5t-603.5 -199.5h-518zM434 212h257q289 0 443 147.5t154 423.5q0 279 -148.5 427t-427.5 148h-278v-1146zM1688 0v281l684 615v21h-658v193h889v-282l-683 -615v-20h700v-193h-932z" />
    <glyph glyph-name="uni01F3" unicode="&#x1f3;" horiz-adv-x="2373" 
d="M566 -21q-222 0 -351.5 154.5t-129.5 422.5q0 267 130 421t355 154q106 0 187.5 -38.5t133.5 -103.5h19v581h231v-1570h-199l-32 121h-19q-53 -65 -136 -103.5t-189 -38.5zM1367 0v281l684 615v21h-658v193h889v-282l-683 -615v-20h700v-193h-932zM623 173
q143 0 225.5 101t82.5 282q0 179 -83 280.5t-225 101.5t-224.5 -101.5t-82.5 -280.5q0 -181 82.5 -282t224.5 -101z" />
    <glyph glyph-name="Oslashacute" unicode="&#x1fe;" horiz-adv-x="1654" 
d="M1207 2028l-324 -320h-169l247 320h246zM1320 1422q120 -106 183 -268.5t63 -368.5q0 -370 -197 -588t-543 -218q-194 0 -344 72l-67 -109l-153 93l70 115q-119 106 -181.5 268t-62.5 367q0 370 196.5 588t541.5 218q191 0 344 -71l64 105l153 -93zM327 785
q0 -271 130 -430l596 974q-98 50 -227 50q-234 0 -366.5 -161t-132.5 -433zM826 192q235 0 368 160.5t133 432.5q0 274 -132 432l-597 -975q100 -50 228 -50z" />
    <glyph glyph-name="oslashacute" unicode="&#x1ff;" horiz-adv-x="1228" 
d="M995 1570l-324 -320h-169l247 320h246zM992 1002q173 -154 173 -444q0 -270 -148 -424.5t-403 -154.5q-124 0 -224 38l-82 -134l-153 93l81 133q-173 154 -173 449q0 268 148 420.5t403 152.5q124 0 224 -38l80 131l153 -93zM295 558q0 -153 63 -250l373 610
q-54 20 -117 20q-147 0 -233 -101t-86 -279zM614 173q147 0 233.5 102.5t86.5 282.5q0 151 -63 246l-374 -611q55 -20 117 -20z" />
    <glyph glyph-name="uni0218" unicode="&#x218;" horiz-adv-x="1245" 
d="M384 1183q0 -53 26.5 -95.5t71.5 -72.5t103 -56t122 -50t128 -51t122 -63.5t103 -82t71.5 -112t26.5 -148.5q0 -210 -141.5 -339.5t-377.5 -129.5q-258 0 -413 155t-155 435h245q0 -185 80.5 -281.5t242.5 -96.5q133 0 206.5 66.5t73.5 171.5q0 61 -26.5 109t-71.5 80.5
t-103 59.5t-122 50.5t-128 49t-122 60t-103 78t-71.5 108t-26.5 145.5q0 192 136.5 305t337.5 113q99 0 186.5 -29t158 -86.5t112.5 -152.5t44 -216h-239q0 135 -74 203.5t-188 68.5q-102 0 -168.5 -55.5t-66.5 -140.5zM656 -94q43 0 75 -17t48.5 -44.5t24.5 -56t8 -57.5
q0 -110 -68.5 -182t-202.5 -72h-13v85h13q74 0 119.5 31t45.5 87q0 9 -1 13q-29 -21 -65 -21q-52 0 -85 32.5t-33 82.5q0 51 36 85t98 34z" />
    <glyph glyph-name="uni0219" unicode="&#x219;" horiz-adv-x="1003" 
d="M316 825q0 -48 33.5 -80t87.5 -50t119.5 -33.5t130.5 -38.5t119 -56t87.5 -94t33.5 -146q0 -160 -112.5 -254t-310.5 -94q-201 0 -317 97.5t-119 258.5h230q2 -72 54 -117t152 -45q97 0 147.5 41t50.5 105q0 44 -26 75.5t-68.5 48t-97 33t-111.5 28.5t-111.5 36t-97 55.5
t-68.5 86.5t-26 129q0 153 103 236.5t282 83.5q191 0 306.5 -93t123.5 -259h-220q-8 88 -62 129t-142 41q-82 0 -126.5 -33t-44.5 -91zM519 -94q43 0 75 -17t48.5 -44.5t24.5 -56t8 -57.5q0 -110 -68.5 -182t-202.5 -72h-13v85h13q74 0 119.5 31t45.5 87q0 9 -1 13
q-29 -21 -65 -21q-52 0 -85 32.5t-33 82.5q0 51 36 85t98 34z" />
    <glyph glyph-name="uni021A" unicode="&#x21a;" horiz-adv-x="1288" 
d="M14 1570h1260v-212h-510v-1358h-239v1358h-511v212zM642 -94q43 0 75 -17t48.5 -44.5t24.5 -56t8 -57.5q0 -110 -68.5 -182t-202.5 -72h-13v85h13q74 0 119.5 31t45.5 87q0 9 -1 13q-29 -21 -65 -21q-52 0 -85 32.5t-33 82.5q0 51 36 85t98 34z" />
    <glyph glyph-name="uni021B" unicode="&#x21b;" horiz-adv-x="737" 
d="M677 936h-250v-637q0 -106 94 -106h156v-193h-238q-112 0 -178 58.5t-66 187.5v690h-179v174h179v346h232v-346h250v-174zM481 -94q43 0 75 -17t48.5 -44.5t24.5 -56t8 -57.5q0 -110 -68.5 -182t-202.5 -72h-13v85h13q74 0 119.5 31t45.5 87q0 9 -1 13q-29 -21 -65 -21
q-52 0 -85 32.5t-33 82.5q0 51 36 85t98 34z" />
    <glyph glyph-name="uni0237" unicode="&#x237;" horiz-adv-x="545" 
d="M144 -460h-167v194h86q94 0 94 106v1270h231v-1324q0 -129 -66 -187.5t-178 -58.5z" />
    <glyph glyph-name="uni0254" unicode="&#x254;" horiz-adv-x="1177" 
d="M563 -21q-208 0 -344 104.5t-168 291.5h237q23 -96 96.5 -149t178.5 -53q147 0 233 102.5t86 282.5q0 178 -86 279t-233 101q-105 0 -177.5 -51.5t-95.5 -146.5h-239q32 185 168 288t344 103q255 0 403 -152.5t148 -420.5q0 -270 -148 -424.5t-403 -154.5z" />
    <glyph glyph-name="circumflex" unicode="&#x2c6;" horiz-adv-x="806" 
d="M755 1249h-200l-148 202l-145 -202h-199l247 320h196z" />
    <glyph glyph-name="caron" unicode="&#x2c7;" horiz-adv-x="807" 
d="M575 1570h180l-268 -320h-158l-266 320h180l164 -207z" />
    <glyph glyph-name="breve" unicode="&#x2d8;" horiz-adv-x="880" 
d="M441 1253q-174 0 -260.5 84t-86.5 233h164q0 -93 49 -137t134 -44q86 0 134.5 45t48.5 136h163q0 -152 -88.5 -234.5t-257.5 -82.5z" />
    <glyph glyph-name="dotaccent" unicode="&#x2d9;" horiz-adv-x="495" 
d="M249 1296q-62 0 -106 43.5t-44 105.5q0 61 44 104.5t106 43.5q61 0 104 -43.5t43 -104.5q0 -62 -43 -105.5t-104 -43.5z" />
    <glyph glyph-name="ring" unicode="&#x2da;" horiz-adv-x="666" 
d="M331 1197q-101 0 -171.5 72t-70.5 172t70.5 170.5t171.5 70.5q100 0 171.5 -70t71.5 -171q0 -102 -70.5 -173t-172.5 -71zM331 1322q51 0 84.5 34.5t33.5 86.5q0 50 -32 82t-86 32q-51 0 -83.5 -32.5t-32.5 -81.5q0 -52 33 -86.5t83 -34.5z" />
    <glyph glyph-name="ogonek" unicode="&#x2db;" horiz-adv-x="532" 
d="M432 -479q-170 0 -260 52t-90 140q0 64 48.5 139t141.5 150l160 -2q-82 -57 -127 -117.5t-45 -110.5t43.5 -79t128.5 -29v-143z" />
    <glyph glyph-name="tilde" unicode="&#x2dc;" horiz-adv-x="940" 
d="M617 1263q-50 0 -90 18t-65 43t-46.5 50.5t-45 43t-49.5 17.5q-41 1 -64 -41.5t-23 -119.5h-132q0 144 60.5 224t165.5 80q45 0 83 -17.5t63.5 -43t47.5 -50.5t46.5 -42.5t50.5 -17.5q35 0 57.5 43.5t22.5 119.5h139q0 -145 -59.5 -226t-161.5 -81z" />
    <glyph glyph-name="hungarumlaut" unicode="&#x2dd;" horiz-adv-x="1007" 
d="M66 1250l221 320h207l-255 -320h-173zM481 1250l221 320h245l-287 -320h-179z" />
    <glyph glyph-name="gravecomb" unicode="&#x300;" 
d="M-239 1250l-305 320h246l234 -320h-175z" />
    <glyph glyph-name="acutecomb" unicode="&#x301;" 
d="M-553 1250l247 320h246l-324 -320h-169z" />
    <glyph glyph-name="uni0302" unicode="&#x302;" 
d="M-62 1249h-200l-148 202l-145 -202h-199l247 320h196z" />
    <glyph glyph-name="tildecomb" unicode="&#x303;" 
d="M-323 1263q-50 0 -90 18t-65 43t-46.5 50.5t-45 43t-49.5 17.5q-41 1 -64 -41.5t-23 -119.5h-132q0 144 60.5 224t165.5 80q45 0 83 -17.5t63.5 -43t47.5 -50.5t46.5 -42.5t50.5 -17.5q35 0 57.5 43.5t22.5 119.5h139q0 -145 -59.5 -226t-161.5 -81z" />
    <glyph glyph-name="uni0304" unicode="&#x304;" 
d="M-755 1301v137h617v-137h-617z" />
    <glyph glyph-name="uni0306" unicode="&#x306;" 
d="M-439 1253q-174 0 -260.5 84t-86.5 233h164q0 -93 49 -137t134 -44q86 0 134.5 45t48.5 136h163q0 -152 -88.5 -234.5t-257.5 -82.5z" />
    <glyph glyph-name="uni0307" unicode="&#x307;" 
d="M-246 1296q-62 0 -106 43.5t-44 105.5q0 61 44 104.5t106 43.5q61 0 104 -43.5t43 -104.5q0 -62 -43 -105.5t-104 -43.5z" />
    <glyph glyph-name="uni0308" unicode="&#x308;" 
d="M-678 1296q-62 0 -106 43.5t-44 105.5q0 61 44 104.5t106 43.5q61 0 104 -43.5t43 -104.5q0 -62 -43 -105.5t-104 -43.5zM-247 1296q-62 0 -106 43.5t-44 105.5q0 61 44 104.5t106 43.5q61 0 104.5 -43.5t43.5 -104.5q0 -62 -43.5 -105.5t-104.5 -43.5z" />
    <glyph glyph-name="uni030A" unicode="&#x30a;" 
d="M-335 1197q-101 0 -171.5 72t-70.5 172t70.5 170.5t171.5 70.5q100 0 171.5 -70t71.5 -171q0 -102 -70.5 -173t-172.5 -71zM-335 1322q51 0 84.5 34.5t33.5 86.5q0 50 -32 82t-86 32q-51 0 -83.5 -32.5t-32.5 -81.5q0 -52 33 -86.5t83 -34.5z" />
    <glyph glyph-name="uni030B" unicode="&#x30b;" 
d="M-941 1250l221 320h207l-255 -320h-173zM-526 1250l221 320h245l-287 -320h-179z" />
    <glyph glyph-name="uni030C" unicode="&#x30c;" 
d="M-243 1570h180l-268 -320h-158l-266 320h180l164 -207z" />
    <glyph glyph-name="uni030F" unicode="&#x30f;" 
d="M-481 1250h-179l-287 320h245zM-66 1250h-173l-255 320h207z" />
    <glyph glyph-name="uni0312" unicode="&#x312;" 
d="M-250 1431q52 0 85 -29t33 -74t-36 -75.5t-98 -30.5q-43 0 -75 15t-48.5 39.5t-24.5 50t-8 51.5q0 99 68.5 163.5t202.5 64.5h13v-76h-13q-74 0 -119.5 -28t-45.5 -78q0 -8 1 -12q29 19 65 19z" />
    <glyph glyph-name="uni031B" unicode="&#x31b;" 
d="M-441 1114v151q46 0 79 16.5t50 45.5t24.5 61t7.5 69v113h175v-95q0 -163 -83 -262t-253 -99z" />
    <glyph glyph-name="uni0326" unicode="&#x326;" 
d="M-277 -94q43 0 75 -17t48.5 -44.5t24.5 -56t8 -57.5q0 -110 -68.5 -182t-202.5 -72h-13v85h13q74 0 119.5 31t45.5 87q0 9 -1 13q-29 -21 -65 -21q-52 0 -85 32.5t-33 82.5q0 51 36 85t98 34z" />
    <glyph glyph-name="uni0327" unicode="&#x327;" 
d="M-307 -482q-117 0 -220 85l63 102q78 -73 164 -73q46 0 73 23.5t27 58.5q0 64 -83 88q-46 14 -130 14l114 184h116l-77 -107q31 -3 60 -13q53 -21 84.5 -64t31.5 -100q0 -85 -64 -141.5t-159 -56.5z" />
    <glyph glyph-name="uni0328" unicode="&#x328;" 
d="M-100 -479q-170 0 -260 52t-90 140q0 64 48.5 139t141.5 150l160 -2q-82 -57 -127 -117.5t-45 -110.5t43.5 -79t128.5 -29v-143z" />
    <glyph glyph-name="uni0337" unicode="&#x337;" 
d="M-574 287v236l541 493v-234z" />
    <glyph glyph-name="uni03BC" unicode="&#x3bc;" horiz-adv-x="1381" 
d="M234 -372v1482h227v-644q0 -126 60.5 -200t173.5 -74q127 0 198.5 74t71.5 221v623h227v-1110h-227v149q-59 -85 -148.5 -127.5t-186.5 -42.5q-134 0 -211 72v-423h-185z" />
    <glyph glyph-name="pi" unicode="&#x3c0;" horiz-adv-x="1105" 
d="M921 -21q-119 0 -181.5 64.5t-62.5 211.5v662h-305v-917h-193v917h-100v193h908v-193h-116v-650q0 -117 79 -117q29 0 57 16l61 -151q-65 -36 -147 -36z" />
    <glyph glyph-name="Wgrave" unicode="&#x1e80;" horiz-adv-x="2263" 
d="M1044 1710l-305 320h246l234 -320h-175zM572 0l-552 1521v49h242l437 -1279h21l204 1279h414l211 -1279h20l432 1279h240v-49l-550 -1521h-328l-223 1376h-20l-221 -1376h-327z" />
    <glyph glyph-name="wgrave" unicode="&#x1e81;" horiz-adv-x="1864" 
d="M846 1250l-305 320h246l234 -320h-175zM394 0l-396 1110h250l307 -915h20l195 915h326l193 -915h20l309 915h249l-397 -1110h-342l-186 889h-18l-187 -889h-343z" />
    <glyph glyph-name="Wacute" unicode="&#x1e82;" horiz-adv-x="2263" 
d="M1019 1710l247 320h246l-324 -320h-169zM572 0l-552 1521v49h242l437 -1279h21l204 1279h414l211 -1279h20l432 1279h240v-49l-550 -1521h-328l-223 1376h-20l-221 -1376h-327z" />
    <glyph glyph-name="wacute" unicode="&#x1e83;" horiz-adv-x="1864" 
d="M821 1250l247 320h246l-324 -320h-169zM394 0l-396 1110h250l307 -915h20l195 915h326l193 -915h20l309 915h249l-397 -1110h-342l-186 889h-18l-187 -889h-343z" />
    <glyph glyph-name="Wdieresis" unicode="&#x1e84;" horiz-adv-x="2263" 
d="M917 1691q-62 0 -106 44t-44 106q0 61 44 104t106 43q61 0 104 -43t43 -104q0 -62 -43 -106t-104 -44zM1348 1691q-62 0 -106 44t-44 106q0 61 44 104t106 43q61 0 104.5 -43t43.5 -104q0 -62 -43.5 -106t-104.5 -44zM572 0l-552 1521v49h242l437 -1279h21l204 1279h414
l211 -1279h20l432 1279h240v-49l-550 -1521h-328l-223 1376h-20l-221 -1376h-327z" />
    <glyph glyph-name="wdieresis" unicode="&#x1e85;" horiz-adv-x="1864" 
d="M719 1296q-62 0 -106 43.5t-44 105.5q0 61 44 104.5t106 43.5q61 0 104 -43.5t43 -104.5q0 -62 -43 -105.5t-104 -43.5zM1150 1296q-62 0 -106 43.5t-44 105.5q0 61 44 104.5t106 43.5q61 0 104.5 -43.5t43.5 -104.5q0 -62 -43.5 -105.5t-104.5 -43.5zM394 0l-396 1110
h250l307 -915h20l195 915h326l193 -915h20l309 915h249l-397 -1110h-342l-186 889h-18l-187 -889h-343z" />
    <glyph glyph-name="uni1EA4" unicode="&#x1ea4;" horiz-adv-x="1412" 
d="M1087 2489l-324 -320h-169l247 320h246zM703 1911l-145 -202h-199l247 320h196l249 -320h-200zM842 1570l550 -1525v-45h-241l-118 350h-651l-120 -350h-242v45l552 1525h270zM454 562h507l-242 719h-19z" />
    <glyph glyph-name="uni1EA5" unicode="&#x1ea5;" horiz-adv-x="1173" 
d="M955 2029l-324 -320h-169l247 320h246zM571 1451l-145 -202h-199l247 320h196l249 -320h-200zM569 1131q233 0 355.5 -107.5t122.5 -321.5v-702h-214l-17 115h-20q-47 -62 -107 -91q-82 -45 -202 -45q-199 0 -309 97t-110 266q0 91 31.5 158.5t88 106.5t128 57.5
t159.5 18.5h341v43q0 102 -64 157t-183 55q-104 0 -164.5 -41t-69.5 -118h-233q9 150 132.5 251t334.5 101zM741 248q48 48 65.5 113.5t18.5 154.5h-337q-89 0 -137 -46t-48 -128q0 -83 54 -131t158 -48q141 0 226 85z" />
    <glyph glyph-name="uni1EA6" unicode="&#x1ea6;" horiz-adv-x="1412" 
d="M794 2169h-175l-305 320h246zM359 1709l247 320h196l249 -320h-200l-148 202l-145 -202h-199zM842 1570l550 -1525v-45h-241l-118 350h-651l-120 -350h-242v45l552 1525h270zM454 562h507l-242 719h-19z" />
    <glyph glyph-name="uni1EA7" unicode="&#x1ea7;" horiz-adv-x="1173" 
d="M662 1709h-175l-305 320h246zM227 1249l247 320h196l249 -320h-200l-148 202l-145 -202h-199zM569 1131q233 0 355.5 -107.5t122.5 -321.5v-702h-214l-17 115h-20q-47 -62 -107 -91q-82 -45 -202 -45q-199 0 -309 97t-110 266q0 91 31.5 158.5t88 106.5t128 57.5
t159.5 18.5h341v43q0 102 -64 157t-183 55q-104 0 -164.5 -41t-69.5 -118h-233q9 150 132.5 251t334.5 101zM741 248q48 48 65.5 113.5t18.5 154.5h-337q-89 0 -137 -46t-48 -128q0 -83 54 -131t158 -48q141 0 226 85z" />
    <glyph glyph-name="uni1EAA" unicode="&#x1eaa;" horiz-adv-x="1412" 
d="M556 2335q-41 1 -64 -41.5t-23 -119.5h-132q0 144 60.5 224t165.5 80q45 0 83 -17.5t63.5 -43t47.5 -50.5t46.5 -42.5t50.5 -17.5q35 0 57.5 43.5t22.5 119.5h139q0 -145 -59.5 -226t-161.5 -81q-50 0 -90 18t-65 43t-46.5 50.5t-45 43t-49.5 17.5zM606 2029h196
l249 -320h-200l-148 202l-145 -202h-199zM842 1570l550 -1525v-45h-241l-118 350h-651l-120 -350h-242v45l552 1525h270zM454 562h507l-242 719h-19z" />
    <glyph glyph-name="uni1EAB" unicode="&#x1eab;" horiz-adv-x="1173" 
d="M424 1875q-41 1 -64 -41.5t-23 -119.5h-132q0 144 60.5 224t165.5 80q45 0 83 -17.5t63.5 -43t47.5 -50.5t46.5 -42.5t50.5 -17.5q35 0 57.5 43.5t22.5 119.5h139q0 -145 -59.5 -226t-161.5 -81q-50 0 -90 18t-65 43t-46.5 50.5t-45 43t-49.5 17.5zM474 1569h196
l249 -320h-200l-148 202l-145 -202h-199zM569 1131q233 0 355.5 -107.5t122.5 -321.5v-702h-214l-17 115h-20q-47 -62 -107 -91q-82 -45 -202 -45q-199 0 -309 97t-110 266q0 91 31.5 158.5t88 106.5t128 57.5t159.5 18.5h341v43q0 102 -64 157t-183 55q-104 0 -164.5 -41
t-69.5 -118h-233q9 150 132.5 251t334.5 101zM741 248q48 48 65.5 113.5t18.5 154.5h-337q-89 0 -137 -46t-48 -128q0 -83 54 -131t158 -48q141 0 226 85z" />
    <glyph glyph-name="uni1EAE" unicode="&#x1eae;" horiz-adv-x="1412" 
d="M1087 2490l-324 -320h-169l247 320h246zM706 1713q-174 0 -260.5 84t-86.5 233h164q0 -93 49 -137t134 -44q86 0 134.5 45t48.5 136h163q0 -152 -88.5 -234.5t-257.5 -82.5zM842 1570l550 -1525v-45h-241l-118 350h-651l-120 -350h-242v45l552 1525h270zM454 562h507
l-242 719h-19z" />
    <glyph glyph-name="uni1EAF" unicode="&#x1eaf;" horiz-adv-x="1173" 
d="M955 2030l-324 -320h-169l247 320h246zM574 1253q-174 0 -260.5 84t-86.5 233h164q0 -93 49 -137t134 -44q86 0 134.5 45t48.5 136h163q0 -152 -88.5 -234.5t-257.5 -82.5zM569 1131q233 0 355.5 -107.5t122.5 -321.5v-702h-214l-17 115h-20q-47 -62 -107 -91
q-82 -45 -202 -45q-199 0 -309 97t-110 266q0 91 31.5 158.5t88 106.5t128 57.5t159.5 18.5h341v43q0 102 -64 157t-183 55q-104 0 -164.5 -41t-69.5 -118h-233q9 150 132.5 251t334.5 101zM741 248q48 48 65.5 113.5t18.5 154.5h-337q-89 0 -137 -46t-48 -128
q0 -83 54 -131t158 -48q141 0 226 85z" />
    <glyph glyph-name="uni1EB0" unicode="&#x1eb0;" horiz-adv-x="1412" 
d="M794 2170h-175l-305 320h246zM523 2030q0 -93 49 -137t134 -44q86 0 134.5 45t48.5 136h163q0 -152 -88.5 -234.5t-257.5 -82.5q-174 0 -260.5 84t-86.5 233h164zM842 1570l550 -1525v-45h-241l-118 350h-651l-120 -350h-242v45l552 1525h270zM454 562h507l-242 719h-19z
" />
    <glyph glyph-name="uni1EB1" unicode="&#x1eb1;" horiz-adv-x="1173" 
d="M662 1710h-175l-305 320h246zM391 1570q0 -93 49 -137t134 -44q86 0 134.5 45t48.5 136h163q0 -152 -88.5 -234.5t-257.5 -82.5q-174 0 -260.5 84t-86.5 233h164zM569 1131q233 0 355.5 -107.5t122.5 -321.5v-702h-214l-17 115h-20q-47 -62 -107 -91q-82 -45 -202 -45
q-199 0 -309 97t-110 266q0 91 31.5 158.5t88 106.5t128 57.5t159.5 18.5h341v43q0 102 -64 157t-183 55q-104 0 -164.5 -41t-69.5 -118h-233q9 150 132.5 251t334.5 101zM741 248q48 48 65.5 113.5t18.5 154.5h-337q-89 0 -137 -46t-48 -128q0 -83 54 -131t158 -48
q141 0 226 85z" />
    <glyph glyph-name="uni1EB4" unicode="&#x1eb4;" horiz-adv-x="1412" 
d="M556 2336q-41 1 -64 -41.5t-23 -119.5h-132q0 144 60.5 224t165.5 80q38 0 71 -12.5t55.5 -31.5t44.5 -41.5t39 -41.5t38 -31.5t43 -12.5q35 0 57.5 43.5t22.5 119.5h139q0 -145 -59.5 -226t-161.5 -81q-50 0 -90 18t-65 43t-46.5 50.5t-45 43t-49.5 17.5zM706 1849
q86 0 134.5 45t48.5 136h163q0 -152 -88.5 -234.5t-257.5 -82.5q-174 0 -260.5 84t-86.5 233h164q0 -93 49 -137t134 -44zM842 1570l550 -1525v-45h-241l-118 350h-651l-120 -350h-242v45l552 1525h270zM454 562h507l-242 719h-19z" />
    <glyph glyph-name="uni1EB5" unicode="&#x1eb5;" horiz-adv-x="1173" 
d="M424 1876q-41 1 -64 -41.5t-23 -119.5h-132q0 144 60.5 224t165.5 80q38 0 71 -12.5t55.5 -31.5t44.5 -41.5t39 -41.5t38 -31.5t43 -12.5q35 0 57.5 43.5t22.5 119.5h139q0 -145 -59.5 -226t-161.5 -81q-50 0 -90 18t-65 43t-46.5 50.5t-45 43t-49.5 17.5zM574 1389
q86 0 134.5 45t48.5 136h163q0 -152 -88.5 -234.5t-257.5 -82.5q-174 0 -260.5 84t-86.5 233h164q0 -93 49 -137t134 -44zM569 1131q233 0 355.5 -107.5t122.5 -321.5v-702h-214l-17 115h-20q-47 -62 -107 -91q-82 -45 -202 -45q-199 0 -309 97t-110 266q0 91 31.5 158.5
t88 106.5t128 57.5t159.5 18.5h341v43q0 102 -64 157t-183 55q-104 0 -164.5 -41t-69.5 -118h-233q9 150 132.5 251t334.5 101zM741 248q48 48 65.5 113.5t18.5 154.5h-337q-89 0 -137 -46t-48 -128q0 -83 54 -131t158 -48q141 0 226 85z" />
    <glyph glyph-name="uni1EBC" unicode="&#x1ebc;" horiz-adv-x="1319" 
d="M852 1704q-50 0 -90 18t-65 43t-46.5 50.5t-45 43t-49.5 17.5q-41 1 -64 -41.5t-23 -119.5h-132q0 144 60.5 224t165.5 80q38 0 71 -12.5t55.5 -31.5t44.5 -41.5t39 -41.5t38 -31.5t43 -12.5q35 0 57.5 43.5t22.5 119.5h139q0 -145 -59.5 -226t-161.5 -81zM195 0v1570
h993v-212h-754v-466h690v-212h-690v-468h800v-212h-1039z" />
    <glyph glyph-name="uni1EBD" unicode="&#x1ebd;" horiz-adv-x="1216" 
d="M459 1416q-41 1 -64 -41.5t-23 -119.5h-132q0 144 60.5 224t165.5 80q38 0 71 -12.5t55.5 -31.5t44.5 -41.5t39 -41.5t38 -31.5t43 -12.5q35 0 57.5 43.5t22.5 119.5h139q0 -145 -59.5 -226t-161.5 -81q-50 0 -90 18t-65 43t-46.5 50.5t-45 43t-49.5 17.5zM1163 565
q0 -33 -2 -49h-867q10 -161 95.5 -252t222.5 -91q188 0 271 162h248q-54 -170 -189 -263t-330 -93q-255 0 -403 154.5t-148 424.5q0 257 149.5 415t401.5 158q250 0 399.5 -156t151.5 -410zM612 938q-118 0 -198 -67t-108 -188h612q-27 122 -107 188.5t-199 66.5z" />
    <glyph glyph-name="uni1EBE" unicode="&#x1ebe;" horiz-adv-x="1319" 
d="M1087 2489l-324 -320h-169l247 320h246zM703 1911l-145 -202h-199l247 320h196l249 -320h-200zM434 212h800v-212h-1039v1570h993v-212h-754v-466h690v-212h-690v-468z" />
    <glyph glyph-name="uni1EBF" unicode="&#x1ebf;" horiz-adv-x="1216" 
d="M990 2029l-324 -320h-169l247 320h246zM606 1451l-145 -202h-199l247 320h196l249 -320h-200zM1163 565q0 -33 -2 -49h-867q10 -161 95.5 -252t222.5 -91q188 0 271 162h248q-54 -170 -189 -263t-330 -93q-255 0 -403 154.5t-148 424.5q0 257 149.5 415t401.5 158
q250 0 399.5 -156t151.5 -410zM612 938q-118 0 -198 -67t-108 -188h612q-27 122 -107 188.5t-199 66.5z" />
    <glyph glyph-name="uni1EC0" unicode="&#x1ec0;" horiz-adv-x="1319" 
d="M794 2169h-175l-305 320h246zM359 1709l247 320h196l249 -320h-200l-148 202l-145 -202h-199zM434 212h800v-212h-1039v1570h993v-212h-754v-466h690v-212h-690v-468z" />
    <glyph glyph-name="uni1EC1" unicode="&#x1ec1;" horiz-adv-x="1216" 
d="M697 1709h-175l-305 320h246zM262 1249l247 320h196l249 -320h-200l-148 202l-145 -202h-199zM1163 565q0 -33 -2 -49h-867q10 -161 95.5 -252t222.5 -91q188 0 271 162h248q-54 -170 -189 -263t-330 -93q-255 0 -403 154.5t-148 424.5q0 257 149.5 415t401.5 158
q250 0 399.5 -156t151.5 -410zM612 938q-118 0 -198 -67t-108 -188h612q-27 122 -107 188.5t-199 66.5z" />
    <glyph glyph-name="uni1EC4" unicode="&#x1ec4;" horiz-adv-x="1319" 
d="M556 2335q-41 1 -64 -41.5t-23 -119.5h-132q0 144 60.5 224t165.5 80q45 0 83 -17.5t63.5 -43t47.5 -50.5t46.5 -42.5t50.5 -17.5q35 0 57.5 43.5t22.5 119.5h139q0 -145 -59.5 -226t-161.5 -81q-50 0 -90 18t-65 43t-46.5 50.5t-45 43t-49.5 17.5zM606 2029h196
l249 -320h-200l-148 202l-145 -202h-199zM434 212h800v-212h-1039v1570h993v-212h-754v-466h690v-212h-690v-468z" />
    <glyph glyph-name="uni1EC5" unicode="&#x1ec5;" horiz-adv-x="1216" 
d="M459 1875q-41 1 -64 -41.5t-23 -119.5h-132q0 144 60.5 224t165.5 80q45 0 83 -17.5t63.5 -43t47.5 -50.5t46.5 -42.5t50.5 -17.5q35 0 57.5 43.5t22.5 119.5h139q0 -145 -59.5 -226t-161.5 -81q-50 0 -90 18t-65 43t-46.5 50.5t-45 43t-49.5 17.5zM509 1569h196
l249 -320h-200l-148 202l-145 -202h-199zM1163 565q0 -33 -2 -49h-867q10 -161 95.5 -252t222.5 -91q188 0 271 162h248q-54 -170 -189 -263t-330 -93q-255 0 -403 154.5t-148 424.5q0 257 149.5 415t401.5 158q250 0 399.5 -156t151.5 -410zM612 938q-118 0 -198 -67
t-108 -188h612q-27 122 -107 188.5t-199 66.5z" />
    <glyph glyph-name="uni1ED0" unicode="&#x1ed0;" horiz-adv-x="1654" 
d="M1207 2487l-324 -320h-169l247 320h246zM823 1909l-145 -202h-199l247 320h196l249 -320h-200zM826 1591q346 0 543 -218t197 -588t-197 -588t-543 -218q-345 0 -541.5 218.5t-196.5 587.5q0 370 196.5 588t541.5 218zM826 192q235 0 368 160.5t133 432.5t-133 433
t-368 161q-234 0 -366.5 -161t-132.5 -433t132 -432.5t367 -160.5z" />
    <glyph glyph-name="uni1ED1" unicode="&#x1ed1;" horiz-adv-x="1228" 
d="M995 2029l-324 -320h-169l247 320h246zM611 1451l-145 -202h-199l247 320h196l249 -320h-200zM614 1131q255 0 403 -153t148 -420q0 -270 -148 -424.5t-403 -154.5t-403 154.5t-148 424.5q0 268 148 420.5t403 152.5zM614 173q147 0 233.5 102.5t86.5 282.5
q0 177 -86.5 278.5t-233.5 101.5t-233 -101t-86 -279q0 -180 86 -282.5t233 -102.5z" />
    <glyph glyph-name="uni1ED2" unicode="&#x1ed2;" horiz-adv-x="1654" 
d="M914 2167h-175l-305 320h246zM479 1707l247 320h196l249 -320h-200l-148 202l-145 -202h-199zM826 1591q346 0 543 -218t197 -588t-197 -588t-543 -218q-345 0 -541.5 218.5t-196.5 587.5q0 370 196.5 588t541.5 218zM826 192q235 0 368 160.5t133 432.5t-133 433
t-368 161q-234 0 -366.5 -161t-132.5 -433t132 -432.5t367 -160.5z" />
    <glyph glyph-name="uni1ED3" unicode="&#x1ed3;" horiz-adv-x="1228" 
d="M702 1709h-175l-305 320h246zM267 1249l247 320h196l249 -320h-200l-148 202l-145 -202h-199zM614 1131q255 0 403 -153t148 -420q0 -270 -148 -424.5t-403 -154.5t-403 154.5t-148 424.5q0 268 148 420.5t403 152.5zM614 173q147 0 233.5 102.5t86.5 282.5
q0 177 -86.5 278.5t-233.5 101.5t-233 -101t-86 -279q0 -180 86 -282.5t233 -102.5z" />
    <glyph glyph-name="uni1ED6" unicode="&#x1ed6;" horiz-adv-x="1654" 
d="M676 2333q-41 1 -64 -41.5t-23 -119.5h-132q0 144 60.5 224t165.5 80q45 0 83 -17.5t63.5 -43t47.5 -50.5t46.5 -42.5t50.5 -17.5q35 0 57.5 43.5t22.5 119.5h139q0 -145 -59.5 -226t-161.5 -81q-50 0 -90 18t-65 43t-46.5 50.5t-45 43t-49.5 17.5zM726 2027h196
l249 -320h-200l-148 202l-145 -202h-199zM826 1591q346 0 543 -218t197 -588t-197 -588t-543 -218q-345 0 -541.5 218.5t-196.5 587.5q0 370 196.5 588t541.5 218zM826 192q235 0 368 160.5t133 432.5t-133 433t-368 161q-234 0 -366.5 -161t-132.5 -433t132 -432.5
t367 -160.5z" />
    <glyph glyph-name="uni1ED7" unicode="&#x1ed7;" horiz-adv-x="1228" 
d="M464 1875q-41 1 -64 -41.5t-23 -119.5h-132q0 144 60.5 224t165.5 80q45 0 83 -17.5t63.5 -43t47.5 -50.5t46.5 -42.5t50.5 -17.5q35 0 57.5 43.5t22.5 119.5h139q0 -145 -59.5 -226t-161.5 -81q-50 0 -90 18t-65 43t-46.5 50.5t-45 43t-49.5 17.5zM514 1569h196
l249 -320h-200l-148 202l-145 -202h-199zM614 1131q255 0 403 -153t148 -420q0 -270 -148 -424.5t-403 -154.5t-403 154.5t-148 424.5q0 268 148 420.5t403 152.5zM614 173q147 0 233.5 102.5t86.5 282.5q0 177 -86.5 278.5t-233.5 101.5t-233 -101t-86 -279
q0 -180 86 -282.5t233 -102.5z" />
    <glyph glyph-name="Ygrave" unicode="&#x1ef2;" horiz-adv-x="1379" 
d="M602 1710l-305 320h246l234 -320h-175zM570 0v585l-568 940v45h252l427 -741h17l428 741h251v-45l-568 -940v-585h-239z" />
    <glyph glyph-name="ygrave" unicode="&#x1ef3;" horiz-adv-x="1126" 
d="M651 1250h-175l-305 320h246zM881 1110h249l-396 -1110l-103 -267q-31 -77 -60.5 -115.5t-82 -58t-142.5 -19.5h-254v194h211q36 0 60 6.5t39.5 23.5t24 33t20.5 48l56 155h-111l-397 1110h251l308 -918h18z" />
    <glyph glyph-name="uni1EF8" unicode="&#x1ef8;" horiz-adv-x="1379" 
d="M835 1704q-50 0 -90 18t-65 43t-46.5 50.5t-45 43t-49.5 17.5q-41 1 -64 -41.5t-23 -119.5h-132q0 144 60.5 224t165.5 80q38 0 71 -12.5t55.5 -31.5t44.5 -41.5t39 -41.5t38 -31.5t43 -12.5q35 0 57.5 43.5t22.5 119.5h139q0 -145 -59.5 -226t-161.5 -81zM570 0v585
l-568 940v45h252l427 -741h17l428 741h251v-45l-568 -940v-585h-239z" />
    <glyph glyph-name="uni1EF9" unicode="&#x1ef9;" horiz-adv-x="1126" 
d="M413 1416q-41 1 -64 -41.5t-23 -119.5h-132q0 144 60.5 224t165.5 80q38 0 71 -12.5t55.5 -31.5t44.5 -41.5t39 -41.5t38 -31.5t43 -12.5q35 0 57.5 43.5t22.5 119.5h139q0 -145 -59.5 -226t-161.5 -81q-50 0 -90 18t-65 43t-46.5 50.5t-45 43t-49.5 17.5zM881 1110h249
l-396 -1110l-103 -267q-31 -77 -60.5 -115.5t-82 -58t-142.5 -19.5h-254v194h211q36 0 60 6.5t39.5 23.5t24 33t20.5 48l56 155h-111l-397 1110h251l308 -918h18z" />
    <glyph glyph-name="endash" unicode="&#x2013;" horiz-adv-x="1138" 
d="M0 588v174h1138v-174h-1138z" />
    <glyph glyph-name="emdash" unicode="&#x2014;" horiz-adv-x="2276" 
d="M0 588v174h2276v-174h-2276z" />
    <glyph glyph-name="uni2015" unicode="&#x2015;" horiz-adv-x="1677" 
d="M147 588v174h1383v-174h-1383z" />
    <glyph glyph-name="quoteleft" unicode="&#x2018;" horiz-adv-x="618" 
d="M484 1477q-110 -7 -173.5 -76t-63.5 -151v-11q37 23 79 23q61 0 104.5 -45t43.5 -107q0 -61 -44.5 -102.5t-109.5 -41.5q-56 -1 -98 21t-65 58.5t-34 77.5t-11 86q0 61 20.5 124t62 123t116.5 101t173 47v-127z" />
    <glyph glyph-name="quoteright" unicode="&#x2019;" horiz-adv-x="618" 
d="M298 1593q56 1 98 -21t65 -58.5t34 -77.5t11 -86q0 -61 -20.5 -124t-62 -123t-116.5 -101t-173 -47v127q110 8 174 76.5t64 151.5v10q-37 -23 -80 -23q-61 0 -104.5 45t-43.5 107q0 61 44.5 102.5t109.5 41.5z" />
    <glyph glyph-name="quotesinglbase" unicode="&#x201a;" horiz-adv-x="680" 
d="M329 273q56 1 98 -21t65 -58.5t34 -77.5t11 -86q0 -61 -20.5 -124t-62 -123t-116.5 -101t-173 -47v127q110 7 173.5 76t63.5 151v11q-37 -23 -79 -23q-61 0 -104.5 45t-43.5 107q0 61 44.5 102.5t109.5 41.5z" />
    <glyph glyph-name="quotedblleft" unicode="&#x201c;" horiz-adv-x="1050" 
d="M112 1209q0 61 20.5 124t62 123t116.5 101t173 47v-127q-110 -7 -173.5 -76t-63.5 -151v-11q37 23 79 23q61 0 104.5 -45t43.5 -107q0 -61 -44.5 -102.5t-109.5 -41.5q-56 -1 -98 21t-65 58.5t-34 77.5t-11 86zM916 1477q-110 -7 -173.5 -76t-63.5 -151v-11q37 23 79 23
q61 0 104.5 -45t43.5 -107q0 -61 -44.5 -102.5t-109.5 -41.5q-56 -1 -98 21t-65 58.5t-34 77.5t-11 86q0 61 20.5 124t62 123t116.5 101t173 47v-127z" />
    <glyph glyph-name="quotedblright" unicode="&#x201d;" horiz-adv-x="1051" 
d="M299 1594q56 1 98 -21t65 -58.5t34 -77.5t11 -86q0 -61 -20.5 -124t-62 -123t-116.5 -101t-173 -47v127q110 7 173.5 76t63.5 151v11q-37 -23 -79 -23q-61 0 -104.5 45t-43.5 107q0 61 44.5 102.5t109.5 41.5zM731 1594q56 1 98 -21t65 -58.5t34 -77.5t11 -86
q0 -61 -20.5 -124t-62 -123t-116.5 -101t-173 -47v127q110 7 173.5 76t63.5 151v11q-37 -23 -79 -23q-61 0 -104.5 45t-43.5 107q0 61 44.5 102.5t109.5 41.5z" />
    <glyph glyph-name="quotedblbase" unicode="&#x201e;" horiz-adv-x="1112" 
d="M329 273q56 1 98 -21t65 -58.5t34 -77.5t11 -86q0 -61 -20.5 -124t-62 -123t-116.5 -101t-173 -47v127q110 7 173.5 76t63.5 151v11q-37 -23 -79 -23q-61 0 -104.5 45t-43.5 107q0 61 44.5 102.5t109.5 41.5zM761 273q56 1 98 -21t65 -58.5t34 -77.5t11 -86
q0 -61 -20.5 -124t-62 -123t-116.5 -101t-173 -47v127q110 7 173.5 76t63.5 151v11q-37 -23 -79 -23q-61 0 -104.5 45t-43.5 107q0 61 44.5 102.5t109.5 41.5z" />
    <glyph glyph-name="dagger" unicode="&#x2020;" horiz-adv-x="831" 
d="M311 -228v1156h-256v208h256v434h209v-434h256v-208h-256v-1156h-209z" />
    <glyph glyph-name="daggerdbl" unicode="&#x2021;" horiz-adv-x="940" 
d="M366 -228v434h-256v209h256v513h-256v208h256v434h209v-434h256v-208h-256v-513h256v-209h-256v-434h-209z" />
    <glyph glyph-name="bullet" unicode="&#x2022;" horiz-adv-x="824" 
d="M412 271q-110 0 -187 77.5t-77 186.5t77.5 186.5t186.5 77.5t186.5 -77.5t77.5 -186.5t-77 -186.5t-187 -77.5z" />
    <glyph glyph-name="ellipsis" unicode="&#x2026;" horiz-adv-x="1551" 
d="M318 -24q-62 0 -106 44t-44 106q0 61 44 104t106 43q61 0 104 -43t43 -104q0 -62 -43 -106t-104 -44zM776 -24q-62 0 -106 44t-44 106q0 61 44 104t106 43q60 0 103.5 -43t43.5 -104q0 -62 -43.5 -106t-103.5 -44zM1233 -24q-62 0 -105.5 44t-43.5 106q0 61 43.5 104
t105.5 43q61 0 104.5 -43t43.5 -104q0 -62 -43.5 -106t-104.5 -44z" />
    <glyph glyph-name="perthousand" unicode="&#x2030;" horiz-adv-x="2281" 
d="M400 871q-143 0 -229.5 103.5t-86.5 257.5q0 153 85 256t224 103q136 0 225 -103t89 -258q0 -154 -87 -256.5t-220 -102.5zM240 0l925 1570h163l-925 -1570h-163zM400 1027q66 0 109 57t43 146q0 90 -43 147.5t-116 57.5t-113 -57t-40 -146q0 -90 42 -147.5t118 -57.5z
M1176 -21q-143 0 -229.5 103.5t-86.5 257.5q0 153 84.5 256t224.5 103q136 0 225 -103t89 -258q0 -154 -87.5 -256.5t-219.5 -102.5zM1889 -21q-143 0 -229 103.5t-86 257.5q0 153 84.5 256t224.5 103q136 0 225 -103t89 -258q0 -154 -87.5 -256.5t-220.5 -102.5zM1176 135
q66 0 108.5 57t42.5 146q0 90 -43 147.5t-115 57.5q-73 0 -113.5 -57t-40.5 -146q0 -90 42.5 -147.5t118.5 -57.5zM1889 135q66 0 109 57t43 146q0 90 -43 147.5t-115 57.5q-73 0 -113.5 -57t-40.5 -146q0 -90 42 -147.5t118 -57.5z" />
    <glyph glyph-name="uni2031" unicode="&#x2031;" horiz-adv-x="2995" 
d="M400 871q-143 0 -229.5 103.5t-86.5 257.5q0 153 85 256t224 103q136 0 225 -103t89 -258q0 -154 -87 -256.5t-220 -102.5zM240 0l925 1570h163l-925 -1570h-163zM400 1027q66 0 109 57t43 146q0 90 -43 147.5t-116 57.5t-113 -57t-40 -146q0 -90 42 -147.5t118 -57.5z
M1176 -21q-143 0 -229.5 103.5t-86.5 257.5q0 153 84.5 256t224.5 103q136 0 225 -103t89 -258q0 -154 -87.5 -256.5t-219.5 -102.5zM1889 -21q-143 0 -229 103.5t-86 257.5q0 153 84.5 256t224.5 103q136 0 225 -103t89 -258q0 -154 -87.5 -256.5t-220.5 -102.5zM2603 -21
q-143 0 -229.5 103.5t-86.5 257.5q0 153 85 256t224 103q136 0 225 -103t89 -258q0 -154 -87 -256.5t-220 -102.5zM1176 135q66 0 108.5 57t42.5 146q0 90 -43 147.5t-115 57.5q-73 0 -113.5 -57t-40.5 -146q0 -90 42.5 -147.5t118.5 -57.5zM1889 135q66 0 109 57t43 146
q0 90 -43 147.5t-115 57.5q-73 0 -113.5 -57t-40.5 -146q0 -90 42 -147.5t118 -57.5zM2603 135q66 0 109 57t43 146q0 90 -43 147.5t-116 57.5t-113 -57t-40 -146q0 -90 42 -147.5t118 -57.5z" />
    <glyph glyph-name="guilsinglleft" unicode="&#x2039;" horiz-adv-x="622" 
d="M482 178l-463 389l463 390v-200l-229 -190l229 -188v-201z" />
    <glyph glyph-name="guilsinglright" unicode="&#x203a;" horiz-adv-x="622" 
d="M140 178v201l229 188l-229 190v200l463 -390z" />
    <glyph glyph-name="fraction" unicode="&#x2044;" horiz-adv-x="349" 
d="M-370 0l926 1570h163l-926 -1570h-163z" />
    <glyph glyph-name="Euro" unicode="&#x20ac;" horiz-adv-x="1351" 
d="M834 -21q-115 0 -211.5 41t-165.5 115t-116 170t-72 213h-154v170h131q-4 45 -4 97q0 22 2 62.5t2 47.5h-131v176h156q26 115 73.5 208.5t116.5 164.5t163.5 110t207.5 39q275 0 439 -224l-148 -116q-105 152 -285 152q-143 0 -234.5 -93t-125.5 -241h505v-173h-536
q-6 -68 -6 -98q0 -40 6 -104h536v-171h-505q31 -171 122.5 -264.5t239.5 -93.5q177 0 277 153l140 -136q-160 -205 -423 -205z" />
    <glyph glyph-name="uni20B1" unicode="&#x20b1;" horiz-adv-x="1474" 
d="M1409 1168v-98h-125q-13 -198 -140 -302.5t-349 -104.5h-292v-663h-239v1070h-115v98h115v402h531q226 0 350.5 -104.5t138.5 -297.5h125zM503 1358v-190h541q-13 102 -85 146t-202 44h-254zM757 875q259 0 286 195h-540v-195h254z" />
    <glyph glyph-name="uni20B3" unicode="&#x20b3;" horiz-adv-x="1754" 
d="M173 0l115 297h-144v205h225l66 174h-291v205h374l268 689h184l268 -689h372v-205h-291l66 -174h225v-205h-144l115 -297h-258l-107 297h-675l-108 -297h-260zM756 881h246l-123 342zM618 502h522l-63 174h-396z" />
    <glyph glyph-name="uni20B4" unicode="&#x20b4;" horiz-adv-x="1564" 
d="M1245 1065h188v-167h-1305v167h849q44 50 44 116q0 86 -65 142t-163 56q-88 0 -159 -46t-117 -132l-198 122q76 136 196.5 202t270.5 66q131 0 237.5 -49t171.5 -146.5t65 -226.5q0 -57 -15 -104zM128 591v166h1305v-166h-862q-87 -69 -87 -173q0 -103 83.5 -163
t217.5 -60q125 0 212 63t117 181l235 -54q-32 -130 -120 -222.5t-205 -136t-254 -43.5q-145 0 -264 49.5t-190 143.5t-71 214q0 116 72 201h-189z" />
    <glyph glyph-name="uni20B8" unicode="&#x20b8;" horiz-adv-x="1498" 
d="M119 1374v196h1260v-196h-1260zM630 0v997h-511v195h1260v-195h-510v-997h-239z" />
    <glyph glyph-name="uni20BD" unicode="&#x20bd;" horiz-adv-x="1462" 
d="M867 663h-291v-167h369v-212h-369v-284h-239v284h-196v212h196v167h-196v212h196v695h530q242 0 366.5 -118t124.5 -334q0 -221 -128 -338t-363 -117zM576 1358v-483h253q290 0 290 247q0 128 -73 182t-217 54h-253z" />
    <glyph glyph-name="uni2116" unicode="&#x2116;" horiz-adv-x="2593" 
d="M195 0v1570h413l558 -1358h20v1358h238v-1570h-414l-556 1358h-20v-1358h-239zM2040 363q-135 0 -241 65t-163 174.5t-57 240.5q0 130 57 238t163 172.5t241 64.5t242 -64.5t164.5 -172.5t57.5 -238q0 -131 -57.5 -240.5t-164.5 -174.5t-242 -65zM2040 527q129 0 198 90
t69 226q0 134 -69 222.5t-198 88.5q-128 0 -196 -88.5t-68 -222.5q0 -88 27.5 -158t88.5 -114t148 -44zM1586 0v174h890v-174h-890z" />
    <glyph glyph-name="trademark" unicode="&#x2122;" horiz-adv-x="1727" 
d="M240 721v722h-224v127h604v-127h-224v-722h-156zM765 721v849h236l182 -585l179 585h235v-849h-155v685l-209 -638h-99l-215 644v-691h-154z" />
    <glyph glyph-name="uni2126" unicode="&#x2126;" horiz-adv-x="1799" 
d="M1315 184h344v-184h-629v200q184 33 293.5 196.5t109.5 404.5q0 108 -34.5 208t-92.5 161q-77 84 -188 133t-220 49q-108 0 -218 -49.5t-188 -132.5q-59 -62 -93.5 -161.5t-34.5 -207.5q0 -239 109.5 -402t293.5 -199v-200h-630v192h364q-154 107 -246 275t-92 342
q0 137 51.5 272.5t139.5 227.5q103 109 250.5 172.5t293.5 63.5q147 0 294.5 -64.5t250.5 -173.5q88 -92 139.5 -228t51.5 -276q0 -184 -86.5 -351.5t-232.5 -267.5z" />
    <glyph glyph-name="arrowleft" unicode="&#x2190;" horiz-adv-x="2240" 
d="M2156 797v-174h-1234v-424l-870 511l870 510v-423h1234z" />
    <glyph glyph-name="arrowright" unicode="&#x2192;" horiz-adv-x="2240" 
d="M2188 710l-870 -511v424h-1234v174h1234v423z" />
    <glyph glyph-name="partialdiff" unicode="&#x2202;" horiz-adv-x="1395" 
d="M607 -13q-233 0 -368.5 141t-135.5 368q0 136 49 254.5t131.5 199t191 127t225.5 46.5q183 0 330 -165q3 90 -17 161q-26 149 -109 224t-208 75q-214 0 -290 -190l-169 53q59 146 184 226t295 80q140 0 246 -55.5t170.5 -156.5t96.5 -235t32 -298q0 -247 -74.5 -438.5
t-224 -304t-355.5 -112.5zM620 184q92 0 169.5 36t128 95.5t79.5 132t33 149.5q3 63 -14 122t-52 108t-95.5 78.5t-139.5 29.5q-98 0 -178.5 -37.5t-131 -99.5t-77.5 -139.5t-27 -160.5q0 -149 87.5 -231.5t217.5 -82.5z" />
    <glyph glyph-name="uni2206" unicode="&#x2206;" horiz-adv-x="1405" 
d="M46 0l656 1646l657 -1646h-1313zM328 193h749l-375 981z" />
    <glyph glyph-name="product" unicode="&#x220f;" horiz-adv-x="1438" 
d="M251 0v1377h-100v193h1135v-193h-99v-1377h-194v1377h-548v-1377h-194z" />
    <glyph glyph-name="summation" unicode="&#x2211;" horiz-adv-x="1388" 
d="M1280 1570v-218h-816l558 -567l-558 -567h816v-218h-1199v117l631 668l-631 668v117h1199z" />
    <glyph glyph-name="minus" unicode="&#x2212;" horiz-adv-x="1305" 
d="M212 611v175h881v-175h-881z" />
    <glyph glyph-name="radical" unicode="&#x221a;" horiz-adv-x="1304" 
d="M531 -229l-307 836h-172v194h311l179 -532l513 1301h208z" />
    <glyph glyph-name="infinity" unicode="&#x221e;" horiz-adv-x="2089" 
d="M579 394q-199 0 -317.5 117.5t-118.5 303.5t118.5 303t317.5 117q124 0 246.5 -69.5t217.5 -193.5q99 125 221.5 194t245.5 69q199 0 317.5 -117t118.5 -303t-118.5 -303.5t-317.5 -117.5q-124 0 -246.5 69.5t-220.5 194.5q-96 -125 -218.5 -194.5t-245.5 -69.5zM607 580
q82 0 172.5 61t160.5 174q-71 114 -161 174t-172 60q-117 0 -188 -63t-71 -171t71 -171.5t188 -63.5zM1482 580q117 0 188 63.5t71 171.5t-71 171t-188 63q-83 0 -174.5 -62t-162.5 -172q72 -112 163 -173.5t174 -61.5z" />
    <glyph glyph-name="integral" unicode="&#x222b;" horiz-adv-x="984" 
d="M38 -514v193q191 0 269.5 70.5t78.5 241.5v1270q0 147 95 245t233 98q137 0 244 -94l-123 -147q-59 48 -121 48q-57 0 -95.5 -40.5t-38.5 -117.5v-1268q0 -242 -144 -370.5t-398 -128.5z" />
    <glyph glyph-name="approxequal" unicode="&#x2248;" horiz-adv-x="1317" 
d="M854 784q-60 0 -107.5 19.5t-75 48.5t-53.5 63.5t-45 63.5t-49 48.5t-66 19.5q-54 0 -85 -54.5t-31 -148.5h-174q0 162 79 260t211 98q62 0 110.5 -19.5t77 -48.5t54.5 -63t45 -63t47 -48.5t62 -19.5q53 0 86.5 63.5t33.5 163.5h174q0 -170 -81 -276.5t-213 -106.5z
M854 255q-60 0 -107.5 19.5t-75 48.5t-53.5 63t-45 63t-49 48.5t-66 19.5q-54 0 -85 -54.5t-31 -147.5h-174q0 161 79 259.5t211 98.5q62 0 110.5 -19.5t77 -48.5t54.5 -63.5t45 -63.5t47 -48.5t62 -19.5q53 0 86.5 64t33.5 164h174q0 -171 -81 -277t-213 -106z" />
    <glyph glyph-name="notequal" unicode="&#x2260;" horiz-adv-x="1305" 
d="M110 0l239 410h-154v195h271l165 282h-436v196h554l286 487h163l-286 -487h188v-196h-305l-165 -282h470v-195h-588l-239 -410h-163z" />
    <glyph glyph-name="lessequal" unicode="&#x2264;" horiz-adv-x="1305" 
d="M1136 201l-1004 573v192l1004 573v-201l-819 -468l819 -468v-201zM1136 -174h-1001v174h1001v-174z" />
    <glyph glyph-name="greaterequal" unicode="&#x2265;" horiz-adv-x="1305" 
d="M169 201v201l819 468l-819 468v201l1004 -573v-192zM169 -174v174h1001v-174h-1001z" />
    <glyph glyph-name="lozenge" unicode="&#x25ca;" horiz-adv-x="1278" 
d="M484 0l-421 785l421 785h311l421 -785l-421 -785h-311zM624 121h30l335 664l-335 664h-30l-335 -664z" />
    <glyph glyph-name="uniF8FF" unicode="&#xf8ff;" horiz-adv-x="1897" 
d="M949 -68q-175 0 -334.5 68t-275 183t-183.5 274.5t-68 334.5t68 334t183.5 274.5t275 183.5t334.5 68q140 0 271.5 -43.5t237 -123t185 -185t123 -237t43.5 -271.5q0 -175 -68 -334.5t-183.5 -274.5t-274.5 -183t-334 -68zM949 11q159 0 303.5 62t249 166.5t166 249
t61.5 303.5t-61.5 303.5t-166 249t-249 166t-303.5 61.5q-160 0 -304.5 -61.5t-249 -166t-166 -249t-61.5 -303.5t61.5 -303.5t166 -249.5t249 -166.5t304.5 -61.5zM500 455q-15 0 -26.5 11t-11.5 28v596q0 17 11.5 29t26.5 12q17 0 29 -12t12 -29v-596q0 -17 -12 -28
t-29 -11zM949 455q-17 0 -28 11t-11 28v596q0 17 11 29t28 12q16 0 27 -12t11 -29v-596q0 -17 -10.5 -28t-27.5 -11zM1395 455q-18 0 -25 11l-301 299q-9 12 -9 27q0 18 9 27l301 298q9 14 25 14q15 0 27.5 -13t12.5 -28q0 -16 -11 -27l-271 -271l271 -271q11 -11 11 -27
t-12.5 -27.5t-27.5 -11.5zM650 753q-17 0 -27.5 11t-10.5 28t10.5 28t27.5 11h148q17 0 29 -11t12 -28t-12 -28t-29 -11h-148z" />
    <glyph glyph-name="i.loclTRK" horiz-adv-x="542" 
d="M270 1296q-62 0 -106 43.5t-44 105.5q0 61 44 104.5t106 43.5q61 0 104 -43.5t43 -104.5q0 -62 -43 -105.5t-104 -43.5zM155 0v1110h231v-1110h-231z" />
    <glyph glyph-name="T_h" horiz-adv-x="2313" 
d="M1784 1131q200 0 299.5 -117t101.5 -314v-700h-231v656q0 282 -247 282q-122 0 -187.5 -73.5t-65.5 -208.5v-656h-232v1358h-458v-1358h-239v1358h-511v212h1440v-574h18q100 135 312 135z" />
    <glyph glyph-name="t_t" horiz-adv-x="1375" 
d="M1315 936h-250v-637q0 -106 94 -106h156v-193h-238q-112 0 -178 58.5t-66 187.5v690h-406v-637q0 -106 94 -106h156v-193h-238q-112 0 -178 58.5t-66 187.5v690h-179v174h179v346h232v-346h406v346h232v-346h250v-174z" />
    <glyph glyph-name="zero.lf" horiz-adv-x="1217" 
d="M618 -21q-97 0 -175 28t-130 72.5t-90 112.5t-59 134.5t-33 153t-15.5 154.5t-3.5 151q0 64 1.5 117t8 121t16.5 122.5t29 115t44 107t62.5 90.5t84.5 72.5t110 45.5t137 17q504 0 504 -810q0 -804 -491 -804zM612 186q50 0 89 19.5t65 49.5t44.5 80t28.5 96.5
t15.5 114.5t6.5 118t1 123t-1.5 124t-7 118.5t-15.5 113.5t-29.5 95t-46 78t-66.5 48t-91 19t-91.5 -19t-67 -48.5t-45.5 -78.5t-29.5 -95t-16 -113.5t-7 -119t-1.5 -124.5t1.5 -124t7 -118.5t16 -114t30.5 -95.5t47.5 -79t68.5 -49t94 -19z" />
    <glyph glyph-name="one.lf" horiz-adv-x="808" 
d="M398 1570h222v-1570h-231v1140h-376v193h248q74 0 105.5 28t31.5 100v109z" />
    <glyph glyph-name="two.lf" horiz-adv-x="1230" 
d="M77 0v195l487 413q48 40 82.5 72t77 81.5t69.5 96.5t45.5 108.5t18.5 125.5q0 125 -68 204t-199 79q-139 0 -209.5 -86t-75.5 -221h-239q6 146 68 262t183 187.5t284 71.5q117 0 210.5 -37.5t153.5 -104t91.5 -154.5t31.5 -190q0 -88 -24.5 -173.5t-60 -150.5t-87.5 -130
t-95 -106.5t-95 -85.5l-257 -219v-22h702v-216h-1094z" />
    <glyph glyph-name="three.lf" horiz-adv-x="1264" 
d="M617 -21q-119 0 -222.5 33t-182 95.5t-123 161t-43.5 221.5h227q3 -141 99 -219.5t249 -78.5q146 0 242.5 74t96.5 213q0 248 -357 246h-101v196h101q56 0 101.5 10.5t85.5 35t62.5 70.5t22.5 110q0 113 -72 172.5t-185 59.5q-119 0 -192.5 -64.5t-79.5 -178.5h-225
q0 139 67.5 244t178 158t246.5 53q97 0 186 -29.5t157.5 -82.5t109 -133.5t40.5 -175.5q0 -217 -227 -316v-10q150 -39 231.5 -142.5t81.5 -245.5q0 -113 -46.5 -204.5t-126 -150.5t-183 -90.5t-219.5 -31.5z" />
    <glyph glyph-name="four.lf" horiz-adv-x="1227" 
d="M724 0v371h-702v200l695 999h239v-987h256v-212h-256v-371h-232zM271 583h453v661h-16l-437 -647v-14z" />
    <glyph glyph-name="five.lf" horiz-adv-x="1269" 
d="M664 1055q143 0 263 -66t192.5 -189.5t72.5 -279.5t-72.5 -280t-200 -192.5t-285.5 -68.5q-221 0 -373.5 127.5t-180.5 327.5h235q29 -107 114 -170t204 -63q143 0 235 91t92 232q0 140 -90.5 229.5t-231.5 89.5q-99 0 -176 -44.5t-119 -125.5h-227l146 897h852v-212
h-663l-57 -381q116 78 270 78z" />
    <glyph glyph-name="six.lf" horiz-adv-x="1204" 
d="M603 1057q241 0 398.5 -152.5t157.5 -386.5q0 -155 -72.5 -278.5t-199 -192t-283.5 -68.5q-158 0 -286.5 70t-199.5 190t-71 265q0 86 25.5 174.5t70.5 160.5l455 731h255v-28l-303 -487q36 2 53 2zM603 192q141 0 232.5 91t91.5 235t-91.5 235.5t-232.5 91.5
q-142 0 -233.5 -91.5t-91.5 -235.5t91 -235t234 -91z" />
    <glyph glyph-name="seven.lf" horiz-adv-x="1101" 
d="M128 0v51l665 1289v18h-766v212h1062v-126l-721 -1444h-240z" />
    <glyph glyph-name="eight.lf" horiz-adv-x="1273" 
d="M636 -21q-109 0 -208 29.5t-178.5 86t-126.5 148t-47 206.5q0 132 63 234t180 161v13q-75 54 -117.5 137t-42.5 183q0 126 69.5 222.5t177 144t231.5 47.5q127 0 235 -49t175.5 -145.5t67.5 -222.5q0 -99 -42.5 -181t-117.5 -136v-13q116 -59 178.5 -161.5t62.5 -233.5
q0 -115 -47 -206.5t-126 -148t-178 -86t-209 -29.5zM638 938q112 0 181.5 59.5t69.5 155.5q0 101 -69 163.5t-181 62.5q-110 0 -180 -61t-70 -162q0 -98 68.5 -158t180.5 -60zM638 192q142 0 231.5 74t89.5 200q0 125 -89 202t-234 77q-143 0 -231 -77t-88 -202
q0 -126 89.5 -200t231.5 -74z" />
    <glyph glyph-name="nine.lf" horiz-adv-x="1203" 
d="M599 1591q158 0 286.5 -70t199.5 -190t71 -265q0 -86 -25.5 -174.5t-70.5 -160.5l-455 -731h-255v28l303 487q-36 -2 -53 -2q-241 0 -398.5 152.5t-157.5 386.5q0 155 72.5 278.5t199 192t283.5 68.5zM600 725q142 0 233.5 91.5t91.5 235.5t-91 235t-234 91
q-141 0 -232.5 -91t-91.5 -235t91.5 -235.5t232.5 -91.5z" />
    <glyph glyph-name="uni0308.case" 
d="M-678 1231q-62 0 -106 44t-44 106q0 61 44 104t106 43q61 0 104 -43t43 -104q0 -62 -43 -106t-104 -44zM-247 1231q-62 0 -106 44t-44 106q0 61 44 104t106 43q61 0 104.5 -43t43.5 -104q0 -62 -43.5 -106t-104.5 -44z" />
    <glyph glyph-name="uni0307.case" 
d="M-246 1231q-62 0 -106 44t-44 106q0 61 44 104t106 43q61 0 104 -43t43 -104q0 -62 -43 -106t-104 -44z" />
    <glyph glyph-name="uni0337.case" 
d="M-745 416v236l669 464v-234z" />
    </font>
</defs>
</svg>
